{
	"asset":{
		"generator":"Khronos glTF Blender I/O v5.1.18",
		"version":"2.0"
	},
	"scene":0,
	"scenes":[
		{
			"name":"Scene",
			"nodes":[
				0
			]
		}
	],
	"nodes":[
		{
			"mesh":0,
			"name":"Arch_Round"
		}
	],
	"materials":[
		{
			"doubleSided":true,
			"name":"Main",
			"pbrMetallicRoughness":{
				"baseColorFactor":[
					0.15896087884902954,
					0.16202940046787262,
					0.1247718334197998,
					1
				],
				"metallicFactor":0,
				"roughnessFactor":0.5
			}
		},
		{
			"doubleSided":true,
			"name":"Black",
			"pbrMetallicRoughness":{
				"baseColorFactor":[
					0.04425261169672012,
					0.04425261169672012,
					0.04425261169672012,
					1
				],
				"metallicFactor":0,
				"roughnessFactor":0.5
			}
		},
		{
			"doubleSided":true,
			"name":"Highlights",
			"pbrMetallicRoughness":{
				"baseColorFactor":[
					0.289932519197464,
					0.29568690061569214,
					0.22595453262329102,
					1
				],
				"metallicFactor":0,
				"roughnessFactor":0.5
			}
		}
	],
	"meshes":[
		{
			"name":"Cylinder.004",
			"primitives":[
				{
					"attributes":{
						"POSITION":0,
						"NORMAL":1
					},
					"indices":2,
					"material":0
				},
				{
					"attributes":{
						"POSITION":3,
						"NORMAL":4
					},
					"indices":5,
					"material":1
				},
				{
					"attributes":{
						"POSITION":6,
						"NORMAL":7
					},
					"indices":8,
					"material":2
				}
			]
		}
	],
	"accessors":[
		{
			"bufferView":0,
			"componentType":5126,
			"count":2546,
			"max":[
				1.5459725856781006,
				3.5326757431030273,
				0.13147133588790894
			],
			"min":[
				-1.5459725856781006,
				-4.1993334889411926e-05,
				-0.35951897501945496
			],
			"type":"VEC3"
		},
		{
			"bufferView":1,
			"componentType":5126,
			"count":2546,
			"type":"VEC3"
		},
		{
			"bufferView":2,
			"componentType":5123,
			"count":7176,
			"type":"SCALAR"
		},
		{
			"bufferView":3,
			"componentType":5126,
			"count":800,
			"max":[
				1.5411016941070557,
				3.4746391773223877,
				0.12886787950992584
			],
			"min":[
				-1.5411016941070557,
				1.964309573173523,
				-0.35691553354263306
			],
			"type":"VEC3"
		},
		{
			"bufferView":4,
			"componentType":5126,
			"count":800,
			"type":"VEC3"
		},
		{
			"bufferView":5,
			"componentType":5123,
			"count":1560,
			"type":"SCALAR"
		},
		{
			"bufferView":6,
			"componentType":5126,
			"count":72,
			"max":[
				1.5459725856781006,
				1.9641821384429932,
				0.13147133588790894
			],
			"min":[
				-1.5459725856781006,
				0.35995906591415405,
				-0.35951897501945496
			],
			"type":"VEC3"
		},
		{
			"bufferView":7,
			"componentType":5126,
			"count":72,
			"type":"VEC3"
		},
		{
			"bufferView":8,
			"componentType":5123,
			"count":132,
			"type":"SCALAR"
		}
	],
	"bufferViews":[
		{
			"buffer":0,
			"byteLength":30552,
			"byteOffset":0,
			"target":34962
		},
		{
			"buffer":0,
			"byteLength":30552,
			"byteOffset":30552,
			"target":34962
		},
		{
			"buffer":0,
			"byteLength":14352,
			"byteOffset":61104,
			"target":34963
		},
		{
			"buffer":0,
			"byteLength":9600,
			"byteOffset":75456,
			"target":34962
		},
		{
			"buffer":0,
			"byteLength":9600,
			"byteOffset":85056,
			"target":34962
		},
		{
			"buffer":0,
			"byteLength":3120,
			"byteOffset":94656,
			"target":34963
		},
		{
			"buffer":0,
			"byteLength":864,
			"byteOffset":97776,
			"target":34962
		},
		{
			"buffer":0,
			"byteLength":864,
			"byteOffset":98640,
			"target":34962
		},
		{
			"buffer":0,
			"byteLength":264,
			"byteOffset":99504,
			"target":34963
		}
	],
	"buffers":[
		{
			"byteLength":99768,
			"uri":"Arch_Round-efc2b6b8769767094a584d2b46b87728.bin"
		}
	]
}
