{
	"asset":{
		"generator":"Khronos glTF Blender I/O v5.1.18",
		"version":"2.0"
	},
	"scene":0,
	"scenes":[
		{
			"name":"Scene",
			"nodes":[
				0
			]
		}
	],
	"nodes":[
		{
			"mesh":0,
			"name":"Arch_Round_RoundColumn"
		}
	],
	"materials":[
		{
			"doubleSided":true,
			"name":"Main",
			"pbrMetallicRoughness":{
				"baseColorFactor":[
					0.15896087884902954,
					0.16202940046787262,
					0.1247718334197998,
					1
				],
				"metallicFactor":0,
				"roughnessFactor":0.5
			}
		},
		{
			"doubleSided":true,
			"name":"Black",
			"pbrMetallicRoughness":{
				"baseColorFactor":[
					0.04425261169672012,
					0.04425261169672012,
					0.04425261169672012,
					1
				],
				"metallicFactor":0,
				"roughnessFactor":0.5
			}
		}
	],
	"meshes":[
		{
			"name":"Cylinder.019",
			"primitives":[
				{
					"attributes":{
						"POSITION":0,
						"NORMAL":1
					},
					"indices":2,
					"material":0
				},
				{
					"attributes":{
						"POSITION":3,
						"NORMAL":4
					},
					"indices":5,
					"material":1
				}
			]
		}
	],
	"accessors":[
		{
			"bufferView":0,
			"componentType":5126,
			"count":3408,
			"max":[
				1.5459725856781006,
				3.5326757431030273,
				0.12498906999826431
			],
			"min":[
				-1.5459725856781006,
				0.0017501115798950195,
				-0.3644011914730072
			],
			"type":"VEC3"
		},
		{
			"bufferView":1,
			"componentType":5126,
			"count":3408,
			"type":"VEC3"
		},
		{
			"bufferView":2,
			"componentType":5123,
			"count":8292,
			"type":"SCALAR"
		},
		{
			"bufferView":3,
			"componentType":5126,
			"count":800,
			"max":[
				1.5411016941070557,
				3.4746391773223877,
				0.09225999563932419
			],
			"min":[
				-1.5411016941070557,
				1.964309573173523,
				-0.3316721022129059
			],
			"type":"VEC3"
		},
		{
			"bufferView":4,
			"componentType":5126,
			"count":800,
			"type":"VEC3"
		},
		{
			"bufferView":5,
			"componentType":5123,
			"count":1536,
			"type":"SCALAR"
		}
	],
	"bufferViews":[
		{
			"buffer":0,
			"byteLength":40896,
			"byteOffset":0,
			"target":34962
		},
		{
			"buffer":0,
			"byteLength":40896,
			"byteOffset":40896,
			"target":34962
		},
		{
			"buffer":0,
			"byteLength":16584,
			"byteOffset":81792,
			"target":34963
		},
		{
			"buffer":0,
			"byteLength":9600,
			"byteOffset":98376,
			"target":34962
		},
		{
			"buffer":0,
			"byteLength":9600,
			"byteOffset":107976,
			"target":34962
		},
		{
			"buffer":0,
			"byteLength":3072,
			"byteOffset":117576,
			"target":34963
		}
	],
	"buffers":[
		{
			"byteLength":120648,
			"uri":"Arch_Round_RoundColumn-d3cf661d71a979b23ef9708aec39a612.bin"
		}
	]
}
