{
	"asset":{
		"generator":"Khronos glTF Blender I/O v5.1.18",
		"version":"2.0"
	},
	"scene":0,
	"scenes":[
		{
			"name":"Scene",
			"nodes":[
				0
			]
		}
	],
	"nodes":[
		{
			"mesh":0,
			"name":"Arch_Gothic_RoundColumn"
		}
	],
	"materials":[
		{
			"doubleSided":true,
			"name":"Main",
			"pbrMetallicRoughness":{
				"baseColorFactor":[
					0.15896087884902954,
					0.16202940046787262,
					0.1247718334197998,
					1
				],
				"metallicFactor":0,
				"roughnessFactor":0.5
			}
		},
		{
			"doubleSided":true,
			"name":"Black",
			"pbrMetallicRoughness":{
				"baseColorFactor":[
					0.04425261169672012,
					0.04425261169672012,
					0.04425261169672012,
					1
				],
				"metallicFactor":0,
				"roughnessFactor":0.5
			}
		},
		{
			"doubleSided":true,
			"name":"Highlights",
			"pbrMetallicRoughness":{
				"baseColorFactor":[
					0.289932519197464,
					0.29568690061569214,
					0.22595453262329102,
					1
				],
				"metallicFactor":0,
				"roughnessFactor":0.5
			}
		}
	],
	"meshes":[
		{
			"name":"Cylinder.021",
			"primitives":[
				{
					"attributes":{
						"POSITION":0,
						"NORMAL":1
					},
					"indices":2,
					"material":0
				},
				{
					"attributes":{
						"POSITION":3,
						"NORMAL":4
					},
					"indices":5,
					"material":1
				},
				{
					"attributes":{
						"POSITION":6,
						"NORMAL":7
					},
					"indices":8,
					"material":2
				}
			]
		}
	],
	"accessors":[
		{
			"bufferView":0,
			"componentType":5126,
			"count":3342,
			"max":[
				1.5459725856781006,
				3.7604541778564453,
				0.12498906999826431
			],
			"min":[
				-1.5459725856781006,
				0.0017501115798950195,
				-0.3644011914730072
			],
			"type":"VEC3"
		},
		{
			"bufferView":1,
			"componentType":5126,
			"count":3342,
			"type":"VEC3"
		},
		{
			"bufferView":2,
			"componentType":5123,
			"count":7932,
			"type":"SCALAR"
		},
		{
			"bufferView":3,
			"componentType":5126,
			"count":800,
			"max":[
				1.5411016941070557,
				3.6226303577423096,
				0.09225999563932419
			],
			"min":[
				-1.5411016941070557,
				1.964309573173523,
				-0.3316721022129059
			],
			"type":"VEC3"
		},
		{
			"bufferView":4,
			"componentType":5126,
			"count":800,
			"type":"VEC3"
		},
		{
			"bufferView":5,
			"componentType":5123,
			"count":1536,
			"type":"SCALAR"
		},
		{
			"bufferView":6,
			"componentType":5126,
			"count":124,
			"max":[
				1.5459725856781006,
				3.7604541778564453,
				0.09486345201730728
			],
			"min":[
				-1.5459725856781006,
				1.7357739210128784,
				-0.33427557349205017
			],
			"type":"VEC3"
		},
		{
			"bufferView":7,
			"componentType":5126,
			"count":124,
			"type":"VEC3"
		},
		{
			"bufferView":8,
			"componentType":5123,
			"count":204,
			"type":"SCALAR"
		}
	],
	"bufferViews":[
		{
			"buffer":0,
			"byteLength":40104,
			"byteOffset":0,
			"target":34962
		},
		{
			"buffer":0,
			"byteLength":40104,
			"byteOffset":40104,
			"target":34962
		},
		{
			"buffer":0,
			"byteLength":15864,
			"byteOffset":80208,
			"target":34963
		},
		{
			"buffer":0,
			"byteLength":9600,
			"byteOffset":96072,
			"target":34962
		},
		{
			"buffer":0,
			"byteLength":9600,
			"byteOffset":105672,
			"target":34962
		},
		{
			"buffer":0,
			"byteLength":3072,
			"byteOffset":115272,
			"target":34963
		},
		{
			"buffer":0,
			"byteLength":1488,
			"byteOffset":118344,
			"target":34962
		},
		{
			"buffer":0,
			"byteLength":1488,
			"byteOffset":119832,
			"target":34962
		},
		{
			"buffer":0,
			"byteLength":408,
			"byteOffset":121320,
			"target":34963
		}
	],
	"buffers":[
		{
			"byteLength":121728,
			"uri":"Arch_Gothic_RoundColumn-516bfaedd220c7f1ee4ee5ccf54a05b2.bin"
		}
	]
}
