{
	"asset":{
		"generator":"Khronos glTF Blender I/O v5.1.18",
		"version":"2.0"
	},
	"scene":0,
	"scenes":[
		{
			"name":"Scene",
			"nodes":[
				0
			]
		}
	],
	"nodes":[
		{
			"mesh":0,
			"name":"Arch_Gothic"
		}
	],
	"materials":[
		{
			"doubleSided":true,
			"name":"Main",
			"pbrMetallicRoughness":{
				"baseColorFactor":[
					0.15896087884902954,
					0.16202940046787262,
					0.1247718334197998,
					1
				],
				"metallicFactor":0,
				"roughnessFactor":0.5
			}
		},
		{
			"doubleSided":true,
			"name":"Highlights",
			"pbrMetallicRoughness":{
				"baseColorFactor":[
					0.289932519197464,
					0.29568690061569214,
					0.22595453262329102,
					1
				],
				"metallicFactor":0,
				"roughnessFactor":0.5
			}
		},
		{
			"doubleSided":true,
			"name":"Black",
			"pbrMetallicRoughness":{
				"baseColorFactor":[
					0.04425261169672012,
					0.04425261169672012,
					0.04425261169672012,
					1
				],
				"metallicFactor":0,
				"roughnessFactor":0.5
			}
		}
	],
	"meshes":[
		{
			"name":"Cylinder.002",
			"primitives":[
				{
					"attributes":{
						"POSITION":0,
						"NORMAL":1
					},
					"indices":2,
					"material":0
				},
				{
					"attributes":{
						"POSITION":3,
						"NORMAL":4
					},
					"indices":5,
					"material":1
				},
				{
					"attributes":{
						"POSITION":6,
						"NORMAL":7
					},
					"indices":8,
					"material":2
				}
			]
		}
	],
	"accessors":[
		{
			"bufferView":0,
			"componentType":5126,
			"count":2506,
			"max":[
				1.5459725856781006,
				3.7604541778564453,
				0.1257891058921814
			],
			"min":[
				-1.5459725856781006,
				-4.1993334889411926e-05,
				-0.3652012050151825
			],
			"type":"VEC3"
		},
		{
			"bufferView":1,
			"componentType":5126,
			"count":2506,
			"type":"VEC3"
		},
		{
			"bufferView":2,
			"componentType":5123,
			"count":6888,
			"type":"SCALAR"
		},
		{
			"bufferView":3,
			"componentType":5126,
			"count":160,
			"max":[
				1.5459725856781006,
				3.7604541778564453,
				0.1257891058921814
			],
			"min":[
				-1.5459725856781006,
				0.35995906591415405,
				-0.3652012050151825
			],
			"type":"VEC3"
		},
		{
			"bufferView":4,
			"componentType":5126,
			"count":160,
			"type":"VEC3"
		},
		{
			"bufferView":5,
			"componentType":5123,
			"count":264,
			"type":"SCALAR"
		},
		{
			"bufferView":6,
			"componentType":5126,
			"count":808,
			"max":[
				1.5411016941070557,
				3.6226303577423096,
				0.1231856420636177
			],
			"min":[
				-1.5411016941070557,
				1.964309573173523,
				-0.3625977635383606
			],
			"type":"VEC3"
		},
		{
			"bufferView":7,
			"componentType":5126,
			"count":808,
			"type":"VEC3"
		},
		{
			"bufferView":8,
			"componentType":5123,
			"count":1560,
			"type":"SCALAR"
		}
	],
	"bufferViews":[
		{
			"buffer":0,
			"byteLength":30072,
			"byteOffset":0,
			"target":34962
		},
		{
			"buffer":0,
			"byteLength":30072,
			"byteOffset":30072,
			"target":34962
		},
		{
			"buffer":0,
			"byteLength":13776,
			"byteOffset":60144,
			"target":34963
		},
		{
			"buffer":0,
			"byteLength":1920,
			"byteOffset":73920,
			"target":34962
		},
		{
			"buffer":0,
			"byteLength":1920,
			"byteOffset":75840,
			"target":34962
		},
		{
			"buffer":0,
			"byteLength":528,
			"byteOffset":77760,
			"target":34963
		},
		{
			"buffer":0,
			"byteLength":9696,
			"byteOffset":78288,
			"target":34962
		},
		{
			"buffer":0,
			"byteLength":9696,
			"byteOffset":87984,
			"target":34962
		},
		{
			"buffer":0,
			"byteLength":3120,
			"byteOffset":97680,
			"target":34963
		}
	],
	"buffers":[
		{
			"byteLength":100800,
			"uri":"Arch_Gothic-31c0848e4945bd3e88e5705bcba1ea9e.bin"
		}
	]
}
