{
	"asset":{
		"generator":"Khronos glTF Blender I/O v5.1.18",
		"version":"2.0"
	},
	"scene":0,
	"scenes":[
		{
			"name":"Scene",
			"nodes":[
				0
			]
		}
	],
	"nodes":[
		{
			"mesh":0,
			"name":"Barrel",
			"scale":[
				5.255073547363281,
				5.255073547363281,
				5.255073547363281
			]
		}
	],
	"materials":[
		{
			"doubleSided":true,
			"name":"Wood",
			"pbrMetallicRoughness":{
				"baseColorFactor":[
					0.15292437374591827,
					0.10439527034759521,
					0.05163053795695305,
					1
				],
				"metallicFactor":0,
				"roughnessFactor":0.5
			}
		},
		{
			"doubleSided":true,
			"name":"Metal",
			"pbrMetallicRoughness":{
				"baseColorFactor":[
					0.09704122692346573,
					0.10234932601451874,
					0.11927313357591629,
					1
				],
				"metallicFactor":0,
				"roughnessFactor":0.5
			}
		},
		{
			"doubleSided":true,
			"name":"DarkWood",
			"pbrMetallicRoughness":{
				"baseColorFactor":[
					0.08713703602552414,
					0.05797602981328964,
					0.02801351808011532,
					1
				],
				"metallicFactor":0,
				"roughnessFactor":0.5
			}
		}
	],
	"meshes":[
		{
			"name":"Cylinder.037",
			"primitives":[
				{
					"attributes":{
						"POSITION":0,
						"NORMAL":1
					},
					"indices":2,
					"material":0
				},
				{
					"attributes":{
						"POSITION":3,
						"NORMAL":4
					},
					"indices":5,
					"material":1
				},
				{
					"attributes":{
						"POSITION":6,
						"NORMAL":7
					},
					"indices":8,
					"material":2
				}
			]
		}
	],
	"accessors":[
		{
			"bufferView":0,
			"componentType":5126,
			"count":894,
			"max":[
				0.0791020318865776,
				0.2052011340856552,
				0.0781424343585968
			],
			"min":[
				-0.0791020318865776,
				0.0019831969402730465,
				-0.0786862000823021
			],
			"type":"VEC3"
		},
		{
			"bufferView":1,
			"componentType":5126,
			"count":894,
			"type":"VEC3"
		},
		{
			"bufferView":2,
			"componentType":5123,
			"count":2136,
			"type":"SCALAR"
		},
		{
			"bufferView":3,
			"componentType":5126,
			"count":360,
			"max":[
				0.07500802725553513,
				0.20147517323493958,
				0.07368902862071991
			],
			"min":[
				-0.07500802725553513,
				0.003979012835770845,
				-0.0736890435218811
			],
			"type":"VEC3"
		},
		{
			"bufferView":4,
			"componentType":5126,
			"count":360,
			"type":"VEC3"
		},
		{
			"bufferView":5,
			"componentType":5123,
			"count":672,
			"type":"SCALAR"
		},
		{
			"bufferView":6,
			"componentType":5126,
			"count":442,
			"max":[
				0.0743829682469368,
				0.20515313744544983,
				0.07307495921850204
			],
			"min":[
				-0.0743829682469368,
				0.000871309544891119,
				-0.07307495921850204
			],
			"type":"VEC3"
		},
		{
			"bufferView":7,
			"componentType":5126,
			"count":442,
			"type":"VEC3"
		},
		{
			"bufferView":8,
			"componentType":5123,
			"count":1128,
			"type":"SCALAR"
		}
	],
	"bufferViews":[
		{
			"buffer":0,
			"byteLength":10728,
			"byteOffset":0,
			"target":34962
		},
		{
			"buffer":0,
			"byteLength":10728,
			"byteOffset":10728,
			"target":34962
		},
		{
			"buffer":0,
			"byteLength":4272,
			"byteOffset":21456,
			"target":34963
		},
		{
			"buffer":0,
			"byteLength":4320,
			"byteOffset":25728,
			"target":34962
		},
		{
			"buffer":0,
			"byteLength":4320,
			"byteOffset":30048,
			"target":34962
		},
		{
			"buffer":0,
			"byteLength":1344,
			"byteOffset":34368,
			"target":34963
		},
		{
			"buffer":0,
			"byteLength":5304,
			"byteOffset":35712,
			"target":34962
		},
		{
			"buffer":0,
			"byteLength":5304,
			"byteOffset":41016,
			"target":34962
		},
		{
			"buffer":0,
			"byteLength":2256,
			"byteOffset":46320,
			"target":34963
		}
	],
	"buffers":[
		{
			"byteLength":48576,
			"uri":"Barrel-2473b8807f00fe2950eddb37ac8d1e80.bin"
		}
	]
}
