{
	"asset":{
		"generator":"Khronos glTF Blender I/O v5.1.18",
		"version":"2.0"
	},
	"scene":0,
	"scenes":[
		{
			"name":"Scene",
			"nodes":[
				0
			]
		}
	],
	"nodes":[
		{
			"mesh":0,
			"name":"BearTrap_Closed",
			"scale":[
				0.7957727313041687,
				0.7957727313041687,
				0.7957727313041687
			]
		}
	],
	"materials":[
		{
			"doubleSided":true,
			"name":"Metal",
			"pbrMetallicRoughness":{
				"baseColorFactor":[
					0.09704122692346573,
					0.10234932601451874,
					0.11927313357591629,
					1
				],
				"metallicFactor":0,
				"roughnessFactor":0.5
			}
		}
	],
	"meshes":[
		{
			"name":"Cube.034",
			"primitives":[
				{
					"attributes":{
						"POSITION":0,
						"NORMAL":1
					},
					"indices":2,
					"material":0
				}
			]
		}
	],
	"accessors":[
		{
			"bufferView":0,
			"componentType":5126,
			"count":818,
			"max":[
				0.7076652646064758,
				0.8286582231521606,
				1.0404629707336426
			],
			"min":[
				-0.7076652646064758,
				-0.02345133386552334,
				-0.7408982515335083
			],
			"type":"VEC3"
		},
		{
			"bufferView":1,
			"componentType":5126,
			"count":818,
			"type":"VEC3"
		},
		{
			"bufferView":2,
			"componentType":5123,
			"count":1824,
			"type":"SCALAR"
		}
	],
	"bufferViews":[
		{
			"buffer":0,
			"byteLength":9816,
			"byteOffset":0,
			"target":34962
		},
		{
			"buffer":0,
			"byteLength":9816,
			"byteOffset":9816,
			"target":34962
		},
		{
			"buffer":0,
			"byteLength":3648,
			"byteOffset":19632,
			"target":34963
		}
	],
	"buffers":[
		{
			"byteLength":23280,
			"uri":"BearTrap_Closed-5c08354864d3f387e6be03339a5effc1.bin"
		}
	]
}
