{
	"asset":{
		"generator":"Khronos glTF Blender I/O v5.1.18",
		"version":"2.0"
	},
	"scene":0,
	"scenes":[
		{
			"name":"Scene",
			"nodes":[
				0
			]
		}
	],
	"nodes":[
		{
			"mesh":0,
			"name":"Bookcase_Empty"
		}
	],
	"materials":[
		{
			"doubleSided":true,
			"name":"Wood",
			"pbrMetallicRoughness":{
				"baseColorFactor":[
					0.15292437374591827,
					0.10439527034759521,
					0.05163053795695305,
					1
				],
				"metallicFactor":0,
				"roughnessFactor":0.5
			}
		},
		{
			"doubleSided":true,
			"name":"DarkWood",
			"pbrMetallicRoughness":{
				"baseColorFactor":[
					0.08713703602552414,
					0.05797602981328964,
					0.02801351808011532,
					1
				],
				"metallicFactor":0,
				"roughnessFactor":0.5
			}
		}
	],
	"meshes":[
		{
			"name":"Cylinder.050",
			"primitives":[
				{
					"attributes":{
						"POSITION":0,
						"NORMAL":1,
						"TEXCOORD_0":2,
						"TANGENT":3
					},
					"indices":4,
					"material":0
				},
				{
					"attributes":{
						"POSITION":5,
						"NORMAL":6,
						"TEXCOORD_0":7,
						"TANGENT":8
					},
					"indices":9,
					"material":1
				}
			]
		}
	],
	"accessors":[
		{
			"bufferView":0,
			"componentType":5126,
			"count":324,
			"max":[
				1.0392625331878662,
				2.6295032501220703,
				0.3131300210952759
			],
			"min":[
				-1.0392625331878662,
				-0.024672389030456543,
				-0.34508392214775085
			],
			"type":"VEC3"
		},
		{
			"bufferView":1,
			"componentType":5126,
			"count":324,
			"type":"VEC3"
		},
		{
			"bufferView":2,
			"componentType":5126,
			"count":324,
			"type":"VEC2"
		},
		{
			"bufferView":3,
			"componentType":5126,
			"count":324,
			"type":"VEC4"
		},
		{
			"bufferView":4,
			"componentType":5123,
			"count":744,
			"type":"SCALAR"
		},
		{
			"bufferView":5,
			"componentType":5126,
			"count":1164,
			"max":[
				0.9977239370346069,
				2.5696072578430176,
				0.3118046224117279
			],
			"min":[
				-0.9977239370346069,
				0.10621362924575806,
				-0.3193744719028473
			],
			"type":"VEC3"
		},
		{
			"bufferView":6,
			"componentType":5126,
			"count":1164,
			"type":"VEC3"
		},
		{
			"bufferView":7,
			"componentType":5126,
			"count":1164,
			"type":"VEC2"
		},
		{
			"bufferView":8,
			"componentType":5126,
			"count":1164,
			"type":"VEC4"
		},
		{
			"bufferView":9,
			"componentType":5123,
			"count":3036,
			"type":"SCALAR"
		}
	],
	"bufferViews":[
		{
			"buffer":0,
			"byteLength":3888,
			"byteOffset":0,
			"target":34962
		},
		{
			"buffer":0,
			"byteLength":3888,
			"byteOffset":3888,
			"target":34962
		},
		{
			"buffer":0,
			"byteLength":2592,
			"byteOffset":7776,
			"target":34962
		},
		{
			"buffer":0,
			"byteLength":5184,
			"byteOffset":10368,
			"target":34962
		},
		{
			"buffer":0,
			"byteLength":1488,
			"byteOffset":15552,
			"target":34963
		},
		{
			"buffer":0,
			"byteLength":13968,
			"byteOffset":17040,
			"target":34962
		},
		{
			"buffer":0,
			"byteLength":13968,
			"byteOffset":31008,
			"target":34962
		},
		{
			"buffer":0,
			"byteLength":9312,
			"byteOffset":44976,
			"target":34962
		},
		{
			"buffer":0,
			"byteLength":18624,
			"byteOffset":54288,
			"target":34962
		},
		{
			"buffer":0,
			"byteLength":6072,
			"byteOffset":72912,
			"target":34963
		}
	],
	"buffers":[
		{
			"byteLength":78984,
			"uri":"Bookcase_Empty-654e4d9f5131800cfa324a2b733cad4c.bin"
		}
	]
}
