{
	"asset":{
		"generator":"Khronos glTF Blender I/O v5.1.18",
		"version":"2.0"
	},
	"scene":0,
	"scenes":[
		{
			"name":"Scene",
			"nodes":[
				0
			]
		}
	],
	"nodes":[
		{
			"mesh":0,
			"name":"Bookcase_Full"
		}
	],
	"materials":[
		{
			"doubleSided":true,
			"name":"Wood",
			"pbrMetallicRoughness":{
				"baseColorFactor":[
					0.15292437374591827,
					0.10439527034759521,
					0.05163053795695305,
					1
				],
				"metallicFactor":0,
				"roughnessFactor":0.5
			}
		},
		{
			"doubleSided":true,
			"name":"DarkWood",
			"pbrMetallicRoughness":{
				"baseColorFactor":[
					0.08713703602552414,
					0.05797602981328964,
					0.02801351808011532,
					1
				],
				"metallicFactor":0,
				"roughnessFactor":0.5
			}
		},
		{
			"doubleSided":true,
			"name":"Pages",
			"pbrMetallicRoughness":{
				"baseColorFactor":[
					0.40003857016563416,
					0.3703821301460266,
					0.23540449142456055,
					1
				],
				"metallicFactor":0,
				"roughnessFactor":0.5
			}
		},
		{
			"doubleSided":true,
			"name":"Book2",
			"pbrMetallicRoughness":{
				"baseColorFactor":[
					0.0746932104229927,
					0.12687918543815613,
					0.04346667230129242,
					1
				],
				"metallicFactor":0,
				"roughnessFactor":0.5
			}
		},
		{
			"doubleSided":true,
			"name":"Book",
			"pbrMetallicRoughness":{
				"baseColorFactor":[
					0.17320168018341064,
					0.03870757296681404,
					0.03360006585717201,
					1
				],
				"metallicFactor":0,
				"roughnessFactor":0.5
			}
		},
		{
			"doubleSided":true,
			"name":"Book3",
			"pbrMetallicRoughness":{
				"baseColorFactor":[
					0.08404484391212463,
					0.027922865003347397,
					0.17320069670677185,
					1
				],
				"metallicFactor":0,
				"roughnessFactor":0.5
			}
		},
		{
			"doubleSided":true,
			"name":"Book4",
			"pbrMetallicRoughness":{
				"baseColorFactor":[
					0.027892066165804863,
					0.0555395781993866,
					0.12687887251377106,
					1
				],
				"metallicFactor":0,
				"roughnessFactor":0.5
			}
		}
	],
	"meshes":[
		{
			"name":"Cylinder.044",
			"primitives":[
				{
					"attributes":{
						"POSITION":0,
						"NORMAL":1,
						"TEXCOORD_0":2,
						"TANGENT":3
					},
					"indices":4,
					"material":0
				},
				{
					"attributes":{
						"POSITION":5,
						"NORMAL":6,
						"TEXCOORD_0":7,
						"TANGENT":8
					},
					"indices":9,
					"material":1
				},
				{
					"attributes":{
						"POSITION":10,
						"NORMAL":11,
						"TEXCOORD_0":12,
						"TANGENT":13
					},
					"indices":14,
					"material":2
				},
				{
					"attributes":{
						"POSITION":15,
						"NORMAL":16,
						"TEXCOORD_0":17,
						"TANGENT":18
					},
					"indices":19,
					"material":3
				},
				{
					"attributes":{
						"POSITION":20,
						"NORMAL":21,
						"TEXCOORD_0":22,
						"TANGENT":23
					},
					"indices":24,
					"material":4
				},
				{
					"attributes":{
						"POSITION":25,
						"NORMAL":26,
						"TEXCOORD_0":27,
						"TANGENT":28
					},
					"indices":29,
					"material":5
				},
				{
					"attributes":{
						"POSITION":30,
						"NORMAL":31,
						"TEXCOORD_0":32,
						"TANGENT":33
					},
					"indices":34,
					"material":6
				}
			]
		}
	],
	"accessors":[
		{
			"bufferView":0,
			"componentType":5126,
			"count":324,
			"max":[
				1.0392625331878662,
				2.6295032501220703,
				0.3131300210952759
			],
			"min":[
				-1.0392625331878662,
				-0.024672389030456543,
				-0.34508392214775085
			],
			"type":"VEC3"
		},
		{
			"bufferView":1,
			"componentType":5126,
			"count":324,
			"type":"VEC3"
		},
		{
			"bufferView":2,
			"componentType":5126,
			"count":324,
			"type":"VEC2"
		},
		{
			"bufferView":3,
			"componentType":5126,
			"count":324,
			"type":"VEC4"
		},
		{
			"bufferView":4,
			"componentType":5123,
			"count":744,
			"type":"SCALAR"
		},
		{
			"bufferView":5,
			"componentType":5126,
			"count":1164,
			"max":[
				0.9977239370346069,
				2.5696072578430176,
				0.3118046224117279
			],
			"min":[
				-0.9977239370346069,
				0.10621362924575806,
				-0.3193744719028473
			],
			"type":"VEC3"
		},
		{
			"bufferView":6,
			"componentType":5126,
			"count":1164,
			"type":"VEC3"
		},
		{
			"bufferView":7,
			"componentType":5126,
			"count":1164,
			"type":"VEC2"
		},
		{
			"bufferView":8,
			"componentType":5126,
			"count":1164,
			"type":"VEC4"
		},
		{
			"bufferView":9,
			"componentType":5123,
			"count":3036,
			"type":"SCALAR"
		},
		{
			"bufferView":10,
			"componentType":5126,
			"count":420,
			"max":[
				0.9299060106277466,
				2.3801069259643555,
				0.13629208505153656
			],
			"min":[
				-0.9437186121940613,
				0.17332808673381805,
				-0.1441992223262787
			],
			"type":"VEC3"
		},
		{
			"bufferView":11,
			"componentType":5126,
			"count":420,
			"type":"VEC3"
		},
		{
			"bufferView":12,
			"componentType":5126,
			"count":420,
			"type":"VEC2"
		},
		{
			"bufferView":13,
			"componentType":5126,
			"count":420,
			"type":"VEC4"
		},
		{
			"bufferView":14,
			"componentType":5123,
			"count":630,
			"type":"SCALAR"
		},
		{
			"bufferView":15,
			"componentType":5126,
			"count":456,
			"max":[
				0.9234646558761597,
				2.088508367538452,
				0.14590153098106384
			],
			"min":[
				-0.8654963970184326,
				0.159866064786911,
				-0.15380874276161194
			],
			"type":"VEC3"
		},
		{
			"bufferView":16,
			"componentType":5126,
			"count":456,
			"type":"VEC3"
		},
		{
			"bufferView":17,
			"componentType":5126,
			"count":456,
			"type":"VEC2"
		},
		{
			"bufferView":18,
			"componentType":5126,
			"count":456,
			"type":"VEC4"
		},
		{
			"bufferView":19,
			"componentType":5123,
			"count":972,
			"type":"SCALAR"
		},
		{
			"bufferView":20,
			"componentType":5126,
			"count":760,
			"max":[
				0.8268357515335083,
				2.392399311065674,
				0.1376028060913086
			],
			"min":[
				-0.9355862140655518,
				0.159866064786911,
				-0.15380874276161194
			],
			"type":"VEC3"
		},
		{
			"bufferView":21,
			"componentType":5126,
			"count":760,
			"type":"VEC3"
		},
		{
			"bufferView":22,
			"componentType":5126,
			"count":760,
			"type":"VEC2"
		},
		{
			"bufferView":23,
			"componentType":5126,
			"count":760,
			"type":"VEC4"
		},
		{
			"bufferView":24,
			"componentType":5123,
			"count":1620,
			"type":"SCALAR"
		},
		{
			"bufferView":25,
			"componentType":5126,
			"count":684,
			"max":[
				0.8213542699813843,
				2.392399549484253,
				0.145901620388031
			],
			"min":[
				-0.906653642654419,
				0.1610356569290161,
				-0.14550992846488953
			],
			"type":"VEC3"
		},
		{
			"bufferView":26,
			"componentType":5126,
			"count":684,
			"type":"VEC3"
		},
		{
			"bufferView":27,
			"componentType":5126,
			"count":684,
			"type":"VEC2"
		},
		{
			"bufferView":28,
			"componentType":5126,
			"count":684,
			"type":"VEC4"
		},
		{
			"bufferView":29,
			"componentType":5123,
			"count":1458,
			"type":"SCALAR"
		},
		{
			"bufferView":30,
			"componentType":5126,
			"count":760,
			"max":[
				0.9480936527252197,
				2.312361001968384,
				0.14590154588222504
			],
			"min":[
				-0.961906373500824,
				0.1610356569290161,
				-0.15380871295928955
			],
			"type":"VEC3"
		},
		{
			"bufferView":31,
			"componentType":5126,
			"count":760,
			"type":"VEC3"
		},
		{
			"bufferView":32,
			"componentType":5126,
			"count":760,
			"type":"VEC2"
		},
		{
			"bufferView":33,
			"componentType":5126,
			"count":760,
			"type":"VEC4"
		},
		{
			"bufferView":34,
			"componentType":5123,
			"count":1620,
			"type":"SCALAR"
		}
	],
	"bufferViews":[
		{
			"buffer":0,
			"byteLength":3888,
			"byteOffset":0,
			"target":34962
		},
		{
			"buffer":0,
			"byteLength":3888,
			"byteOffset":3888,
			"target":34962
		},
		{
			"buffer":0,
			"byteLength":2592,
			"byteOffset":7776,
			"target":34962
		},
		{
			"buffer":0,
			"byteLength":5184,
			"byteOffset":10368,
			"target":34962
		},
		{
			"buffer":0,
			"byteLength":1488,
			"byteOffset":15552,
			"target":34963
		},
		{
			"buffer":0,
			"byteLength":13968,
			"byteOffset":17040,
			"target":34962
		},
		{
			"buffer":0,
			"byteLength":13968,
			"byteOffset":31008,
			"target":34962
		},
		{
			"buffer":0,
			"byteLength":9312,
			"byteOffset":44976,
			"target":34962
		},
		{
			"buffer":0,
			"byteLength":18624,
			"byteOffset":54288,
			"target":34962
		},
		{
			"buffer":0,
			"byteLength":6072,
			"byteOffset":72912,
			"target":34963
		},
		{
			"buffer":0,
			"byteLength":5040,
			"byteOffset":78984,
			"target":34962
		},
		{
			"buffer":0,
			"byteLength":5040,
			"byteOffset":84024,
			"target":34962
		},
		{
			"buffer":0,
			"byteLength":3360,
			"byteOffset":89064,
			"target":34962
		},
		{
			"buffer":0,
			"byteLength":6720,
			"byteOffset":92424,
			"target":34962
		},
		{
			"buffer":0,
			"byteLength":1260,
			"byteOffset":99144,
			"target":34963
		},
		{
			"buffer":0,
			"byteLength":5472,
			"byteOffset":100404,
			"target":34962
		},
		{
			"buffer":0,
			"byteLength":5472,
			"byteOffset":105876,
			"target":34962
		},
		{
			"buffer":0,
			"byteLength":3648,
			"byteOffset":111348,
			"target":34962
		},
		{
			"buffer":0,
			"byteLength":7296,
			"byteOffset":114996,
			"target":34962
		},
		{
			"buffer":0,
			"byteLength":1944,
			"byteOffset":122292,
			"target":34963
		},
		{
			"buffer":0,
			"byteLength":9120,
			"byteOffset":124236,
			"target":34962
		},
		{
			"buffer":0,
			"byteLength":9120,
			"byteOffset":133356,
			"target":34962
		},
		{
			"buffer":0,
			"byteLength":6080,
			"byteOffset":142476,
			"target":34962
		},
		{
			"buffer":0,
			"byteLength":12160,
			"byteOffset":148556,
			"target":34962
		},
		{
			"buffer":0,
			"byteLength":3240,
			"byteOffset":160716,
			"target":34963
		},
		{
			"buffer":0,
			"byteLength":8208,
			"byteOffset":163956,
			"target":34962
		},
		{
			"buffer":0,
			"byteLength":8208,
			"byteOffset":172164,
			"target":34962
		},
		{
			"buffer":0,
			"byteLength":5472,
			"byteOffset":180372,
			"target":34962
		},
		{
			"buffer":0,
			"byteLength":10944,
			"byteOffset":185844,
			"target":34962
		},
		{
			"buffer":0,
			"byteLength":2916,
			"byteOffset":196788,
			"target":34963
		},
		{
			"buffer":0,
			"byteLength":9120,
			"byteOffset":199704,
			"target":34962
		},
		{
			"buffer":0,
			"byteLength":9120,
			"byteOffset":208824,
			"target":34962
		},
		{
			"buffer":0,
			"byteLength":6080,
			"byteOffset":217944,
			"target":34962
		},
		{
			"buffer":0,
			"byteLength":12160,
			"byteOffset":224024,
			"target":34962
		},
		{
			"buffer":0,
			"byteLength":3240,
			"byteOffset":236184,
			"target":34963
		}
	],
	"buffers":[
		{
			"byteLength":239424,
			"uri":"Bookcase_Full-f251586c280a3790563b3f528f0d5963.bin"
		}
	]
}
