{
	"asset":{
		"generator":"Khronos glTF Blender I/O v5.1.18",
		"version":"2.0"
	},
	"scene":0,
	"scenes":[
		{
			"name":"Scene",
			"nodes":[
				0
			]
		}
	],
	"nodes":[
		{
			"mesh":0,
			"name":"Bricks",
			"rotation":[
				-0.7071068286895752,
				0,
				0,
				0.7071068286895752
			],
			"scale":[
				1,
				0.05973000079393387,
				1
			]
		}
	],
	"materials":[
		{
			"doubleSided":true,
			"name":"Main",
			"pbrMetallicRoughness":{
				"baseColorFactor":[
					0.15896087884902954,
					0.16202940046787262,
					0.1247718334197998,
					1
				],
				"metallicFactor":0,
				"roughnessFactor":0.5
			}
		},
		{
			"doubleSided":true,
			"name":"Highlights",
			"pbrMetallicRoughness":{
				"baseColorFactor":[
					0.289932519197464,
					0.29568690061569214,
					0.22595453262329102,
					1
				],
				"metallicFactor":0,
				"roughnessFactor":0.5
			}
		}
	],
	"meshes":[
		{
			"name":"Cube.676",
			"primitives":[
				{
					"attributes":{
						"POSITION":0,
						"NORMAL":1
					},
					"indices":2,
					"material":0
				},
				{
					"attributes":{
						"POSITION":3,
						"NORMAL":4
					},
					"indices":5,
					"material":1
				}
			]
		}
	],
	"accessors":[
		{
			"bufferView":0,
			"componentType":5126,
			"count":554,
			"max":[
				0.7436065077781677,
				13.170011520385742,
				0.544407844543457
			],
			"min":[
				-1.080749750137329,
				-13.787084579467773,
				-0.0017560124397277832
			],
			"type":"VEC3"
		},
		{
			"bufferView":1,
			"componentType":5126,
			"count":554,
			"type":"VEC3"
		},
		{
			"bufferView":2,
			"componentType":5123,
			"count":900,
			"type":"SCALAR"
		},
		{
			"bufferView":3,
			"componentType":5126,
			"count":28,
			"max":[
				0.7115668058395386,
				9.377711296081543,
				0.41026172041893005
			],
			"min":[
				-0.570188045501709,
				-8.105851173400879,
				0.26952216029167175
			],
			"type":"VEC3"
		},
		{
			"bufferView":4,
			"componentType":5126,
			"count":28,
			"type":"VEC3"
		},
		{
			"bufferView":5,
			"componentType":5123,
			"count":36,
			"type":"SCALAR"
		}
	],
	"bufferViews":[
		{
			"buffer":0,
			"byteLength":6648,
			"byteOffset":0,
			"target":34962
		},
		{
			"buffer":0,
			"byteLength":6648,
			"byteOffset":6648,
			"target":34962
		},
		{
			"buffer":0,
			"byteLength":1800,
			"byteOffset":13296,
			"target":34963
		},
		{
			"buffer":0,
			"byteLength":336,
			"byteOffset":15096,
			"target":34962
		},
		{
			"buffer":0,
			"byteLength":336,
			"byteOffset":15432,
			"target":34962
		},
		{
			"buffer":0,
			"byteLength":72,
			"byteOffset":15768,
			"target":34963
		}
	],
	"buffers":[
		{
			"byteLength":15840,
			"uri":"Bricks-561c2169d0c5f7d4095b99e85167df3c.bin"
		}
	]
}
