{
	"asset":{
		"generator":"Khronos glTF Blender I/O v5.1.18",
		"version":"2.0"
	},
	"scene":0,
	"scenes":[
		{
			"name":"Scene",
			"nodes":[
				0
			]
		}
	],
	"nodes":[
		{
			"mesh":0,
			"name":"Bush_Large"
		}
	],
	"materials":[
		{
			"doubleSided":true,
			"name":"Texture_Leaves"
		}
	],
	"meshes":[
		{
			"name":"Cylinder.005",
			"primitives":[
				{
					"attributes":{
						"POSITION":0,
						"NORMAL":1,
						"TEXCOORD_0":2,
						"TANGENT":3
					},
					"indices":4,
					"material":0
				}
			]
		}
	],
	"accessors":[
		{
			"bufferView":0,
			"componentType":5126,
			"count":255,
			"max":[
				1.0428105592727661,
				0.8996034860610962,
				1.0295714139938354
			],
			"min":[
				-1.026179552078247,
				-0.2886202037334442,
				-1.0356031656265259
			],
			"type":"VEC3"
		},
		{
			"bufferView":1,
			"componentType":5126,
			"count":255,
			"type":"VEC3"
		},
		{
			"bufferView":2,
			"componentType":5126,
			"count":255,
			"type":"VEC2"
		},
		{
			"bufferView":3,
			"componentType":5126,
			"count":255,
			"type":"VEC4"
		},
		{
			"bufferView":4,
			"componentType":5123,
			"count":1080,
			"type":"SCALAR"
		}
	],
	"bufferViews":[
		{
			"buffer":0,
			"byteLength":3060,
			"byteOffset":0,
			"target":34962
		},
		{
			"buffer":0,
			"byteLength":3060,
			"byteOffset":3060,
			"target":34962
		},
		{
			"buffer":0,
			"byteLength":2040,
			"byteOffset":6120,
			"target":34962
		},
		{
			"buffer":0,
			"byteLength":4080,
			"byteOffset":8160,
			"target":34962
		},
		{
			"buffer":0,
			"byteLength":2160,
			"byteOffset":12240,
			"target":34963
		}
	],
	"buffers":[
		{
			"byteLength":14400,
			"uri":"Bush_Large-781723cd50e9a0d97ececbd753d9d92b.bin"
		}
	]
}
