{
	"asset":{
		"generator":"Khronos glTF Blender I/O v5.1.18",
		"version":"2.0"
	},
	"scene":0,
	"scenes":[
		{
			"name":"Scene",
			"nodes":[
				0
			]
		}
	],
	"nodes":[
		{
			"mesh":0,
			"name":"Bush_2x1",
			"rotation":[
				0,
				1,
				0,
				1.6292068494294654e-07
			]
		}
	],
	"materials":[
		{
			"doubleSided":true,
			"name":"Texture_Leaves"
		}
	],
	"meshes":[
		{
			"name":"Cube.017",
			"primitives":[
				{
					"attributes":{
						"POSITION":0,
						"NORMAL":1,
						"TEXCOORD_0":2,
						"TANGENT":3
					},
					"indices":4,
					"material":0
				}
			]
		}
	],
	"accessors":[
		{
			"bufferView":0,
			"componentType":5126,
			"count":708,
			"max":[
				0.5940510034561157,
				1.455990195274353,
				0.5940510630607605
			],
			"min":[
				-0.5940511226654053,
				-0.17367371916770935,
				-0.59405118227005
			],
			"type":"VEC3"
		},
		{
			"bufferView":1,
			"componentType":5126,
			"count":708,
			"type":"VEC3"
		},
		{
			"bufferView":2,
			"componentType":5126,
			"count":708,
			"type":"VEC2"
		},
		{
			"bufferView":3,
			"componentType":5126,
			"count":708,
			"type":"VEC4"
		},
		{
			"bufferView":4,
			"componentType":5123,
			"count":1956,
			"type":"SCALAR"
		}
	],
	"bufferViews":[
		{
			"buffer":0,
			"byteLength":8496,
			"byteOffset":0,
			"target":34962
		},
		{
			"buffer":0,
			"byteLength":8496,
			"byteOffset":8496,
			"target":34962
		},
		{
			"buffer":0,
			"byteLength":5664,
			"byteOffset":16992,
			"target":34962
		},
		{
			"buffer":0,
			"byteLength":11328,
			"byteOffset":22656,
			"target":34962
		},
		{
			"buffer":0,
			"byteLength":3912,
			"byteOffset":33984,
			"target":34963
		}
	],
	"buffers":[
		{
			"byteLength":37896,
			"uri":"Bush_2x1-aeb807d2d502297c344dfb51693cb1fc.bin"
		}
	]
}
