{
	"asset":{
		"generator":"Khronos glTF Blender I/O v5.1.18",
		"version":"2.0"
	},
	"scene":0,
	"scenes":[
		{
			"name":"Scene",
			"nodes":[
				0
			]
		}
	],
	"nodes":[
		{
			"mesh":0,
			"name":"Bush_1x1"
		}
	],
	"materials":[
		{
			"doubleSided":true,
			"name":"Texture_Leaves"
		}
	],
	"meshes":[
		{
			"name":"Cube.023",
			"primitives":[
				{
					"attributes":{
						"POSITION":0,
						"NORMAL":1,
						"TEXCOORD_0":2,
						"TANGENT":3
					},
					"indices":4,
					"material":0
				}
			]
		}
	],
	"accessors":[
		{
			"bufferView":0,
			"componentType":5126,
			"count":555,
			"max":[
				0.5604532957077026,
				0.8559901714324951,
				0.5940510034561157
			],
			"min":[
				-0.5604531764984131,
				-0.34356483817100525,
				-0.5940511226654053
			],
			"type":"VEC3"
		},
		{
			"bufferView":1,
			"componentType":5126,
			"count":555,
			"type":"VEC3"
		},
		{
			"bufferView":2,
			"componentType":5126,
			"count":555,
			"type":"VEC2"
		},
		{
			"bufferView":3,
			"componentType":5126,
			"count":555,
			"type":"VEC4"
		},
		{
			"bufferView":4,
			"componentType":5123,
			"count":1548,
			"type":"SCALAR"
		}
	],
	"bufferViews":[
		{
			"buffer":0,
			"byteLength":6660,
			"byteOffset":0,
			"target":34962
		},
		{
			"buffer":0,
			"byteLength":6660,
			"byteOffset":6660,
			"target":34962
		},
		{
			"buffer":0,
			"byteLength":4440,
			"byteOffset":13320,
			"target":34962
		},
		{
			"buffer":0,
			"byteLength":8880,
			"byteOffset":17760,
			"target":34962
		},
		{
			"buffer":0,
			"byteLength":3096,
			"byteOffset":26640,
			"target":34963
		}
	],
	"buffers":[
		{
			"byteLength":29736,
			"uri":"Bush_1x1-b54429f178a5e1280de99a68222cbaba.bin"
		}
	]
}
