{
	"asset":{
		"generator":"Khronos glTF Blender I/O v5.1.18",
		"version":"2.0"
	},
	"scene":0,
	"scenes":[
		{
			"name":"Scene",
			"nodes":[
				0
			]
		}
	],
	"nodes":[
		{
			"mesh":0,
			"name":"Bush_2x2",
			"rotation":[
				0,
				1,
				0,
				1.6292068494294654e-07
			]
		}
	],
	"materials":[
		{
			"doubleSided":true,
			"name":"Texture_Leaves"
		}
	],
	"meshes":[
		{
			"name":"Cube.024",
			"primitives":[
				{
					"attributes":{
						"POSITION":0,
						"NORMAL":1,
						"TEXCOORD_0":2,
						"TANGENT":3
					},
					"indices":4,
					"material":0
				}
			]
		}
	],
	"accessors":[
		{
			"bufferView":0,
			"componentType":5126,
			"count":1050,
			"max":[
				0.8940510153770447,
				1.455990195274353,
				0.594050943851471
			],
			"min":[
				-0.9097339510917664,
				-0.17367374897003174,
				-0.594051718711853
			],
			"type":"VEC3"
		},
		{
			"bufferView":1,
			"componentType":5126,
			"count":1050,
			"type":"VEC3"
		},
		{
			"bufferView":2,
			"componentType":5126,
			"count":1050,
			"type":"VEC2"
		},
		{
			"bufferView":3,
			"componentType":5126,
			"count":1050,
			"type":"VEC4"
		},
		{
			"bufferView":4,
			"componentType":5123,
			"count":2868,
			"type":"SCALAR"
		}
	],
	"bufferViews":[
		{
			"buffer":0,
			"byteLength":12600,
			"byteOffset":0,
			"target":34962
		},
		{
			"buffer":0,
			"byteLength":12600,
			"byteOffset":12600,
			"target":34962
		},
		{
			"buffer":0,
			"byteLength":8400,
			"byteOffset":25200,
			"target":34962
		},
		{
			"buffer":0,
			"byteLength":16800,
			"byteOffset":33600,
			"target":34962
		},
		{
			"buffer":0,
			"byteLength":5736,
			"byteOffset":50400,
			"target":34963
		}
	],
	"buffers":[
		{
			"byteLength":56136,
			"uri":"Bush_2x2-e82b8bb1093a50b6cf12ec0066204e5a.bin"
		}
	]
}
