{
	"asset":{
		"generator":"Khronos glTF Blender I/O v5.1.18",
		"version":"2.0"
	},
	"scene":0,
	"scenes":[
		{
			"name":"Scene",
			"nodes":[
				0
			]
		}
	],
	"nodes":[
		{
			"mesh":0,
			"name":"Candles_1",
			"scale":[
				0.09908801317214966,
				0.09908801317214966,
				0.09908801317214966
			]
		}
	],
	"materials":[
		{
			"doubleSided":true,
			"name":"Candle",
			"pbrMetallicRoughness":{
				"baseColorFactor":[
					0.42522579431533813,
					0.3761412501335144,
					0.13521644473075867,
					1
				],
				"metallicFactor":0,
				"roughnessFactor":0.5
			}
		},
		{
			"doubleSided":true,
			"name":"Light",
			"pbrMetallicRoughness":{
				"baseColorFactor":[
					0.6985164880752563,
					0.10983259975910187,
					0.06794875115156174,
					1
				],
				"metallicFactor":0,
				"roughnessFactor":0.5
			}
		},
		{
			"doubleSided":true,
			"name":"Black",
			"pbrMetallicRoughness":{
				"baseColorFactor":[
					0.04425261169672012,
					0.04425261169672012,
					0.04425261169672012,
					1
				],
				"metallicFactor":0,
				"roughnessFactor":0.5
			}
		}
	],
	"meshes":[
		{
			"name":"Cube.003",
			"primitives":[
				{
					"attributes":{
						"POSITION":0,
						"NORMAL":1
					},
					"indices":2,
					"material":0
				},
				{
					"attributes":{
						"POSITION":3,
						"NORMAL":4
					},
					"indices":5,
					"material":1
				},
				{
					"attributes":{
						"POSITION":6,
						"NORMAL":7
					},
					"indices":8,
					"material":2
				}
			]
		}
	],
	"accessors":[
		{
			"bufferView":0,
			"componentType":5126,
			"count":427,
			"max":[
				5.006426811218262,
				4.720642566680908,
				3.7174155712127686
			],
			"min":[
				-3.884899139404297,
				-0.02787645161151886,
				-4.796032428741455
			],
			"type":"VEC3"
		},
		{
			"bufferView":1,
			"componentType":5126,
			"count":427,
			"type":"VEC3"
		},
		{
			"bufferView":2,
			"componentType":5123,
			"count":1944,
			"type":"SCALAR"
		},
		{
			"bufferView":3,
			"componentType":5126,
			"count":196,
			"max":[
				3.5242223739624023,
				6.095333099365234,
				2.887148141860962
			],
			"min":[
				-2.8889386653900146,
				2.648653984069824,
				-3.984623908996582
			],
			"type":"VEC3"
		},
		{
			"bufferView":4,
			"componentType":5126,
			"count":196,
			"type":"VEC3"
		},
		{
			"bufferView":5,
			"componentType":5123,
			"count":420,
			"type":"SCALAR"
		},
		{
			"bufferView":6,
			"componentType":5126,
			"count":112,
			"max":[
				3.415869951248169,
				4.873340606689453,
				2.805426597595215
			],
			"min":[
				-2.827313184738159,
				2.4645237922668457,
				-3.902902126312256
			],
			"type":"VEC3"
		},
		{
			"bufferView":7,
			"componentType":5126,
			"count":112,
			"type":"VEC3"
		},
		{
			"bufferView":8,
			"componentType":5123,
			"count":168,
			"type":"SCALAR"
		}
	],
	"bufferViews":[
		{
			"buffer":0,
			"byteLength":5124,
			"byteOffset":0,
			"target":34962
		},
		{
			"buffer":0,
			"byteLength":5124,
			"byteOffset":5124,
			"target":34962
		},
		{
			"buffer":0,
			"byteLength":3888,
			"byteOffset":10248,
			"target":34963
		},
		{
			"buffer":0,
			"byteLength":2352,
			"byteOffset":14136,
			"target":34962
		},
		{
			"buffer":0,
			"byteLength":2352,
			"byteOffset":16488,
			"target":34962
		},
		{
			"buffer":0,
			"byteLength":840,
			"byteOffset":18840,
			"target":34963
		},
		{
			"buffer":0,
			"byteLength":1344,
			"byteOffset":19680,
			"target":34962
		},
		{
			"buffer":0,
			"byteLength":1344,
			"byteOffset":21024,
			"target":34962
		},
		{
			"buffer":0,
			"byteLength":336,
			"byteOffset":22368,
			"target":34963
		}
	],
	"buffers":[
		{
			"byteLength":22704,
			"uri":"Candles_1-44c729875d6c44e34e0ac04b395f24c2.bin"
		}
	]
}
