{
	"asset":{
		"generator":"Khronos glTF Blender I/O v5.1.18",
		"version":"2.0"
	},
	"scene":0,
	"scenes":[
		{
			"name":"Scene",
			"nodes":[
				0
			]
		}
	],
	"nodes":[
		{
			"mesh":0,
			"name":"Candles_2",
			"scale":[
				0.09908801317214966,
				0.09908801317214966,
				0.09908801317214966
			]
		}
	],
	"materials":[
		{
			"doubleSided":true,
			"name":"Candle",
			"pbrMetallicRoughness":{
				"baseColorFactor":[
					0.42522579431533813,
					0.3761412501335144,
					0.13521644473075867,
					1
				],
				"metallicFactor":0,
				"roughnessFactor":0.5
			}
		},
		{
			"doubleSided":true,
			"name":"Light",
			"pbrMetallicRoughness":{
				"baseColorFactor":[
					0.6985164880752563,
					0.10983259975910187,
					0.06794875115156174,
					1
				],
				"metallicFactor":0,
				"roughnessFactor":0.5
			}
		},
		{
			"doubleSided":true,
			"name":"Black",
			"pbrMetallicRoughness":{
				"baseColorFactor":[
					0.04425261169672012,
					0.04425261169672012,
					0.04425261169672012,
					1
				],
				"metallicFactor":0,
				"roughnessFactor":0.5
			}
		}
	],
	"meshes":[
		{
			"name":"Cube",
			"primitives":[
				{
					"attributes":{
						"POSITION":0,
						"NORMAL":1
					},
					"indices":2,
					"material":0
				},
				{
					"attributes":{
						"POSITION":3,
						"NORMAL":4
					},
					"indices":5,
					"material":1
				},
				{
					"attributes":{
						"POSITION":6,
						"NORMAL":7
					},
					"indices":8,
					"material":2
				}
			]
		}
	],
	"accessors":[
		{
			"bufferView":0,
			"componentType":5126,
			"count":602,
			"max":[
				5.0872483253479,
				5.239555835723877,
				5.6254706382751465
			],
			"min":[
				-4.935375213623047,
				-0.02787637710571289,
				-4.326530933380127
			],
			"type":"VEC3"
		},
		{
			"bufferView":1,
			"componentType":5126,
			"count":602,
			"type":"VEC3"
		},
		{
			"bufferView":2,
			"componentType":5123,
			"count":2832,
			"type":"SCALAR"
		},
		{
			"bufferView":3,
			"componentType":5126,
			"count":280,
			"max":[
				3.9657657146453857,
				6.488837718963623,
				4.4589643478393555
			],
			"min":[
				-4.089719295501709,
				2.648653984069824,
				-3.552847385406494
			],
			"type":"VEC3"
		},
		{
			"bufferView":4,
			"componentType":5126,
			"count":280,
			"type":"VEC3"
		},
		{
			"bufferView":5,
			"componentType":5123,
			"count":600,
			"type":"SCALAR"
		},
		{
			"bufferView":6,
			"componentType":5126,
			"count":160,
			"max":[
				3.8822195529937744,
				5.409369468688965,
				4.372064113616943
			],
			"min":[
				-4.020198822021484,
				2.4645237922668457,
				-3.476149082183838
			],
			"type":"VEC3"
		},
		{
			"bufferView":7,
			"componentType":5126,
			"count":160,
			"type":"VEC3"
		},
		{
			"bufferView":8,
			"componentType":5123,
			"count":240,
			"type":"SCALAR"
		}
	],
	"bufferViews":[
		{
			"buffer":0,
			"byteLength":7224,
			"byteOffset":0,
			"target":34962
		},
		{
			"buffer":0,
			"byteLength":7224,
			"byteOffset":7224,
			"target":34962
		},
		{
			"buffer":0,
			"byteLength":5664,
			"byteOffset":14448,
			"target":34963
		},
		{
			"buffer":0,
			"byteLength":3360,
			"byteOffset":20112,
			"target":34962
		},
		{
			"buffer":0,
			"byteLength":3360,
			"byteOffset":23472,
			"target":34962
		},
		{
			"buffer":0,
			"byteLength":1200,
			"byteOffset":26832,
			"target":34963
		},
		{
			"buffer":0,
			"byteLength":1920,
			"byteOffset":28032,
			"target":34962
		},
		{
			"buffer":0,
			"byteLength":1920,
			"byteOffset":29952,
			"target":34962
		},
		{
			"buffer":0,
			"byteLength":480,
			"byteOffset":31872,
			"target":34963
		}
	],
	"buffers":[
		{
			"byteLength":32352,
			"uri":"Candles_2-7a4ef7fdedb9b76e4711f8f4945d29dc.bin"
		}
	]
}
