{
	"asset":{
		"generator":"Khronos glTF Blender I/O v5.1.18",
		"version":"2.0"
	},
	"scene":0,
	"scenes":[
		{
			"name":"Scene",
			"nodes":[
				0
			]
		}
	],
	"nodes":[
		{
			"mesh":0,
			"name":"Cart",
			"rotation":[
				-0.019680378958582878,
				0.46432045102119446,
				-0.3139220178127289,
				0.8279324769973755
			],
			"scale":[
				4.0438313484191895,
				4.043830871582031,
				4.043832302093506
			]
		}
	],
	"materials":[
		{
			"doubleSided":true,
			"name":"Wood",
			"pbrMetallicRoughness":{
				"baseColorFactor":[
					0.15292437374591827,
					0.10439527034759521,
					0.05163053795695305,
					1
				],
				"metallicFactor":0,
				"roughnessFactor":0.5
			}
		},
		{
			"doubleSided":true,
			"name":"DarkWood",
			"pbrMetallicRoughness":{
				"baseColorFactor":[
					0.08713703602552414,
					0.05797602981328964,
					0.02801351808011532,
					1
				],
				"metallicFactor":0,
				"roughnessFactor":0.5
			}
		},
		{
			"doubleSided":true,
			"name":"Metal",
			"pbrMetallicRoughness":{
				"baseColorFactor":[
					0.09704122692346573,
					0.10234932601451874,
					0.11927313357591629,
					1
				],
				"metallicFactor":0,
				"roughnessFactor":0.5
			}
		}
	],
	"meshes":[
		{
			"name":"Cube.350",
			"primitives":[
				{
					"attributes":{
						"POSITION":0,
						"NORMAL":1
					},
					"indices":2,
					"material":0
				},
				{
					"attributes":{
						"POSITION":3,
						"NORMAL":4
					},
					"indices":5,
					"material":1
				},
				{
					"attributes":{
						"POSITION":6,
						"NORMAL":7
					},
					"indices":8,
					"material":2
				}
			]
		}
	],
	"accessors":[
		{
			"bufferView":0,
			"componentType":5126,
			"count":1428,
			"max":[
				0.2560083866119385,
				0.34160053730010986,
				0.36604440212249756
			],
			"min":[
				-0.2310917228460312,
				-0.13603030145168304,
				-0.3919926881790161
			],
			"type":"VEC3"
		},
		{
			"bufferView":1,
			"componentType":5126,
			"count":1428,
			"type":"VEC3"
		},
		{
			"bufferView":2,
			"componentType":5123,
			"count":3384,
			"type":"SCALAR"
		},
		{
			"bufferView":3,
			"componentType":5126,
			"count":336,
			"max":[
				0.2332882434129715,
				0.3323284983634949,
				0.2428179830312729
			],
			"min":[
				-0.2082907110452652,
				-0.1118188351392746,
				-0.38377493619918823
			],
			"type":"VEC3"
		},
		{
			"bufferView":4,
			"componentType":5126,
			"count":336,
			"type":"VEC3"
		},
		{
			"bufferView":5,
			"componentType":5123,
			"count":516,
			"type":"SCALAR"
		},
		{
			"bufferView":6,
			"componentType":5126,
			"count":132,
			"max":[
				-0.09101905673742294,
				0.17548060417175293,
				-0.0472545363008976
			],
			"min":[
				-0.17760352790355682,
				-0.14303824305534363,
				-0.36524444818496704
			],
			"type":"VEC3"
		},
		{
			"bufferView":7,
			"componentType":5126,
			"count":132,
			"type":"VEC3"
		},
		{
			"bufferView":8,
			"componentType":5123,
			"count":396,
			"type":"SCALAR"
		}
	],
	"bufferViews":[
		{
			"buffer":0,
			"byteLength":17136,
			"byteOffset":0,
			"target":34962
		},
		{
			"buffer":0,
			"byteLength":17136,
			"byteOffset":17136,
			"target":34962
		},
		{
			"buffer":0,
			"byteLength":6768,
			"byteOffset":34272,
			"target":34963
		},
		{
			"buffer":0,
			"byteLength":4032,
			"byteOffset":41040,
			"target":34962
		},
		{
			"buffer":0,
			"byteLength":4032,
			"byteOffset":45072,
			"target":34962
		},
		{
			"buffer":0,
			"byteLength":1032,
			"byteOffset":49104,
			"target":34963
		},
		{
			"buffer":0,
			"byteLength":1584,
			"byteOffset":50136,
			"target":34962
		},
		{
			"buffer":0,
			"byteLength":1584,
			"byteOffset":51720,
			"target":34962
		},
		{
			"buffer":0,
			"byteLength":792,
			"byteOffset":53304,
			"target":34963
		}
	],
	"buffers":[
		{
			"byteLength":54096,
			"uri":"Cart-959b002914d4c2c066c6dc1fe097d3f1.bin"
		}
	]
}
