{
	"asset":{
		"generator":"Khronos glTF Blender I/O v5.1.18",
		"version":"2.0"
	},
	"scene":0,
	"scenes":[
		{
			"name":"Scene",
			"nodes":[
				0,
				1
			]
		}
	],
	"nodes":[
		{
			"mesh":0,
			"name":"Chest_Gold_Base"
		},
		{
			"mesh":1,
			"name":"Chest_Gold_Top",
			"translation":[
				0,
				0.5370768904685974,
				-0.35151615738868713
			]
		}
	],
	"materials":[
		{
			"doubleSided":true,
			"name":"DarkWood",
			"pbrMetallicRoughness":{
				"baseColorFactor":[
					0.08713703602552414,
					0.05797602981328964,
					0.02801351808011532,
					1
				],
				"metallicFactor":0,
				"roughnessFactor":0.5
			}
		},
		{
			"doubleSided":true,
			"name":"Wood",
			"pbrMetallicRoughness":{
				"baseColorFactor":[
					0.15292437374591827,
					0.10439527034759521,
					0.05163053795695305,
					1
				],
				"metallicFactor":0,
				"roughnessFactor":0.5
			}
		},
		{
			"doubleSided":true,
			"name":"Metal",
			"pbrMetallicRoughness":{
				"baseColorFactor":[
					0.09704122692346573,
					0.10234932601451874,
					0.11927313357591629,
					1
				],
				"metallicFactor":0,
				"roughnessFactor":0.5
			}
		},
		{
			"doubleSided":true,
			"name":"Gold",
			"pbrMetallicRoughness":{
				"baseColorFactor":[
					0.3672336935997009,
					0.2681660056114197,
					0.11144793778657913,
					1
				],
				"metallicFactor":0,
				"roughnessFactor":0.5
			}
		}
	],
	"meshes":[
		{
			"name":"Cube.010",
			"primitives":[
				{
					"attributes":{
						"POSITION":0,
						"NORMAL":1
					},
					"indices":2,
					"material":0
				},
				{
					"attributes":{
						"POSITION":3,
						"NORMAL":4
					},
					"indices":5,
					"material":1
				},
				{
					"attributes":{
						"POSITION":6,
						"NORMAL":7
					},
					"indices":8,
					"material":2
				},
				{
					"attributes":{
						"POSITION":9,
						"NORMAL":10
					},
					"indices":11,
					"material":3
				}
			]
		},
		{
			"name":"Cylinder.041",
			"primitives":[
				{
					"attributes":{
						"POSITION":12,
						"NORMAL":13
					},
					"indices":14,
					"material":0
				},
				{
					"attributes":{
						"POSITION":15,
						"NORMAL":16
					},
					"indices":17,
					"material":1
				}
			]
		}
	],
	"accessors":[
		{
			"bufferView":0,
			"componentType":5126,
			"count":390,
			"max":[
				0.5683982372283936,
				0.5370563864707947,
				0.386610746383667
			],
			"min":[
				-0.5741599202156067,
				-0.001326166559010744,
				-0.386610746383667
			],
			"type":"VEC3"
		},
		{
			"bufferView":1,
			"componentType":5126,
			"count":390,
			"type":"VEC3"
		},
		{
			"bufferView":2,
			"componentType":5123,
			"count":1092,
			"type":"SCALAR"
		},
		{
			"bufferView":3,
			"componentType":5126,
			"count":449,
			"max":[
				0.5357401967048645,
				0.4913301467895508,
				0.3644779324531555
			],
			"min":[
				-0.5503619909286499,
				0.060545142740011215,
				-0.37427136301994324
			],
			"type":"VEC3"
		},
		{
			"bufferView":4,
			"componentType":5126,
			"count":449,
			"type":"VEC3"
		},
		{
			"bufferView":5,
			"componentType":5123,
			"count":1080,
			"type":"SCALAR"
		},
		{
			"bufferView":6,
			"componentType":5126,
			"count":104,
			"max":[
				0.06789093464612961,
				0.5722053647041321,
				0.4333212971687317
			],
			"min":[
				-0.054309360682964325,
				0.40230292081832886,
				0.3461928367614746
			],
			"type":"VEC3"
		},
		{
			"bufferView":7,
			"componentType":5126,
			"count":104,
			"type":"VEC3"
		},
		{
			"bufferView":8,
			"componentType":5123,
			"count":276,
			"type":"SCALAR"
		},
		{
			"bufferView":9,
			"componentType":5126,
			"count":21443,
			"max":[
				0.5092581510543823,
				0.5528689026832581,
				0.3209703862667084
			],
			"min":[
				-0.5176641941070557,
				0.41026511788368225,
				-0.32485151290893555
			],
			"type":"VEC3"
		},
		{
			"bufferView":10,
			"componentType":5126,
			"count":21443,
			"type":"VEC3"
		},
		{
			"bufferView":11,
			"componentType":5123,
			"count":62448,
			"type":"SCALAR"
		},
		{
			"bufferView":12,
			"componentType":5126,
			"count":532,
			"max":[
				0.5896589159965515,
				0.37225812673568726,
				0.7454005479812622
			],
			"min":[
				-0.5896589756011963,
				-8.059222267320365e-08,
				-0.037430040538311005
			],
			"type":"VEC3"
		},
		{
			"bufferView":13,
			"componentType":5126,
			"count":532,
			"type":"VEC3"
		},
		{
			"bufferView":14,
			"componentType":5123,
			"count":948,
			"type":"SCALAR"
		},
		{
			"bufferView":15,
			"componentType":5126,
			"count":914,
			"max":[
				0.5628063082695007,
				0.3530072271823883,
				0.698881983757019
			],
			"min":[
				-0.5628063678741455,
				0.02623671106994152,
				0.009088565595448017
			],
			"type":"VEC3"
		},
		{
			"bufferView":16,
			"componentType":5126,
			"count":914,
			"type":"VEC3"
		},
		{
			"bufferView":17,
			"componentType":5123,
			"count":1692,
			"type":"SCALAR"
		}
	],
	"bufferViews":[
		{
			"buffer":0,
			"byteLength":4680,
			"byteOffset":0,
			"target":34962
		},
		{
			"buffer":0,
			"byteLength":4680,
			"byteOffset":4680,
			"target":34962
		},
		{
			"buffer":0,
			"byteLength":2184,
			"byteOffset":9360,
			"target":34963
		},
		{
			"buffer":0,
			"byteLength":5388,
			"byteOffset":11544,
			"target":34962
		},
		{
			"buffer":0,
			"byteLength":5388,
			"byteOffset":16932,
			"target":34962
		},
		{
			"buffer":0,
			"byteLength":2160,
			"byteOffset":22320,
			"target":34963
		},
		{
			"buffer":0,
			"byteLength":1248,
			"byteOffset":24480,
			"target":34962
		},
		{
			"buffer":0,
			"byteLength":1248,
			"byteOffset":25728,
			"target":34962
		},
		{
			"buffer":0,
			"byteLength":552,
			"byteOffset":26976,
			"target":34963
		},
		{
			"buffer":0,
			"byteLength":257316,
			"byteOffset":27528,
			"target":34962
		},
		{
			"buffer":0,
			"byteLength":257316,
			"byteOffset":284844,
			"target":34962
		},
		{
			"buffer":0,
			"byteLength":124896,
			"byteOffset":542160,
			"target":34963
		},
		{
			"buffer":0,
			"byteLength":6384,
			"byteOffset":667056,
			"target":34962
		},
		{
			"buffer":0,
			"byteLength":6384,
			"byteOffset":673440,
			"target":34962
		},
		{
			"buffer":0,
			"byteLength":1896,
			"byteOffset":679824,
			"target":34963
		},
		{
			"buffer":0,
			"byteLength":10968,
			"byteOffset":681720,
			"target":34962
		},
		{
			"buffer":0,
			"byteLength":10968,
			"byteOffset":692688,
			"target":34962
		},
		{
			"buffer":0,
			"byteLength":3384,
			"byteOffset":703656,
			"target":34963
		}
	],
	"buffers":[
		{
			"byteLength":707040,
			"uri":"Chest_Gold-7c5ab316959d84daa5c9f6dc8e1a6d72.bin"
		}
	]
}
