{
	"asset":{
		"generator":"Khronos glTF Blender I/O v5.1.18",
		"version":"2.0"
	},
	"scene":0,
	"scenes":[
		{
			"name":"Scene",
			"nodes":[
				0,
				1
			]
		}
	],
	"nodes":[
		{
			"mesh":0,
			"name":"Chest_Base"
		},
		{
			"mesh":1,
			"name":"Chest_Top",
			"translation":[
				0,
				0.5357579588890076,
				-0.35566964745521545
			]
		}
	],
	"materials":[
		{
			"doubleSided":true,
			"name":"DarkWood",
			"pbrMetallicRoughness":{
				"baseColorFactor":[
					0.08713703602552414,
					0.05797602981328964,
					0.02801351808011532,
					1
				],
				"metallicFactor":0,
				"roughnessFactor":0.5
			}
		},
		{
			"doubleSided":true,
			"name":"Wood",
			"pbrMetallicRoughness":{
				"baseColorFactor":[
					0.15292437374591827,
					0.10439527034759521,
					0.05163053795695305,
					1
				],
				"metallicFactor":0,
				"roughnessFactor":0.5
			}
		},
		{
			"doubleSided":true,
			"name":"Metal",
			"pbrMetallicRoughness":{
				"baseColorFactor":[
					0.09704122692346573,
					0.10234932601451874,
					0.11927313357591629,
					1
				],
				"metallicFactor":0,
				"roughnessFactor":0.5
			}
		}
	],
	"meshes":[
		{
			"name":"Cube.009",
			"primitives":[
				{
					"attributes":{
						"POSITION":0,
						"NORMAL":1
					},
					"indices":2,
					"material":0
				},
				{
					"attributes":{
						"POSITION":3,
						"NORMAL":4
					},
					"indices":5,
					"material":1
				},
				{
					"attributes":{
						"POSITION":6,
						"NORMAL":7
					},
					"indices":8,
					"material":2
				}
			]
		},
		{
			"name":"Cylinder.034",
			"primitives":[
				{
					"attributes":{
						"POSITION":9,
						"NORMAL":10
					},
					"indices":11,
					"material":0
				},
				{
					"attributes":{
						"POSITION":12,
						"NORMAL":13
					},
					"indices":14,
					"material":1
				}
			]
		}
	],
	"accessors":[
		{
			"bufferView":0,
			"componentType":5126,
			"count":578,
			"max":[
				0.5683982372283936,
				0.5370563864707947,
				0.386610746383667
			],
			"min":[
				-0.5741599202156067,
				-0.001326166559010744,
				-0.386610746383667
			],
			"type":"VEC3"
		},
		{
			"bufferView":1,
			"componentType":5126,
			"count":578,
			"type":"VEC3"
		},
		{
			"bufferView":2,
			"componentType":5123,
			"count":1032,
			"type":"SCALAR"
		},
		{
			"bufferView":3,
			"componentType":5126,
			"count":622,
			"max":[
				0.5357401967048645,
				0.4913301467895508,
				0.3644779324531555
			],
			"min":[
				-0.5503619909286499,
				0.060545142740011215,
				-0.37427136301994324
			],
			"type":"VEC3"
		},
		{
			"bufferView":4,
			"componentType":5126,
			"count":622,
			"type":"VEC3"
		},
		{
			"bufferView":5,
			"componentType":5123,
			"count":1080,
			"type":"SCALAR"
		},
		{
			"bufferView":6,
			"componentType":5126,
			"count":146,
			"max":[
				0.06789093464612961,
				0.5722053647041321,
				0.4333212971687317
			],
			"min":[
				-0.054309360682964325,
				0.40230292081832886,
				0.3461928367614746
			],
			"type":"VEC3"
		},
		{
			"bufferView":7,
			"componentType":5126,
			"count":146,
			"type":"VEC3"
		},
		{
			"bufferView":8,
			"componentType":5123,
			"count":276,
			"type":"SCALAR"
		},
		{
			"bufferView":9,
			"componentType":5126,
			"count":532,
			"max":[
				0.5896589159965515,
				0.37225812673568726,
				0.7454005479812622
			],
			"min":[
				-0.5896589756011963,
				-8.059222267320365e-08,
				-0.037430040538311005
			],
			"type":"VEC3"
		},
		{
			"bufferView":10,
			"componentType":5126,
			"count":532,
			"type":"VEC3"
		},
		{
			"bufferView":11,
			"componentType":5123,
			"count":948,
			"type":"SCALAR"
		},
		{
			"bufferView":12,
			"componentType":5126,
			"count":914,
			"max":[
				0.5628063082695007,
				0.3530072271823883,
				0.698881983757019
			],
			"min":[
				-0.5628063678741455,
				0.02623671106994152,
				0.009088565595448017
			],
			"type":"VEC3"
		},
		{
			"bufferView":13,
			"componentType":5126,
			"count":914,
			"type":"VEC3"
		},
		{
			"bufferView":14,
			"componentType":5123,
			"count":1692,
			"type":"SCALAR"
		}
	],
	"bufferViews":[
		{
			"buffer":0,
			"byteLength":6936,
			"byteOffset":0,
			"target":34962
		},
		{
			"buffer":0,
			"byteLength":6936,
			"byteOffset":6936,
			"target":34962
		},
		{
			"buffer":0,
			"byteLength":2064,
			"byteOffset":13872,
			"target":34963
		},
		{
			"buffer":0,
			"byteLength":7464,
			"byteOffset":15936,
			"target":34962
		},
		{
			"buffer":0,
			"byteLength":7464,
			"byteOffset":23400,
			"target":34962
		},
		{
			"buffer":0,
			"byteLength":2160,
			"byteOffset":30864,
			"target":34963
		},
		{
			"buffer":0,
			"byteLength":1752,
			"byteOffset":33024,
			"target":34962
		},
		{
			"buffer":0,
			"byteLength":1752,
			"byteOffset":34776,
			"target":34962
		},
		{
			"buffer":0,
			"byteLength":552,
			"byteOffset":36528,
			"target":34963
		},
		{
			"buffer":0,
			"byteLength":6384,
			"byteOffset":37080,
			"target":34962
		},
		{
			"buffer":0,
			"byteLength":6384,
			"byteOffset":43464,
			"target":34962
		},
		{
			"buffer":0,
			"byteLength":1896,
			"byteOffset":49848,
			"target":34963
		},
		{
			"buffer":0,
			"byteLength":10968,
			"byteOffset":51744,
			"target":34962
		},
		{
			"buffer":0,
			"byteLength":10968,
			"byteOffset":62712,
			"target":34962
		},
		{
			"buffer":0,
			"byteLength":3384,
			"byteOffset":73680,
			"target":34963
		}
	],
	"buffers":[
		{
			"byteLength":77064,
			"uri":"Chest-77e5bb34a2a5de273973dae6fb2e768f.bin"
		}
	]
}
