{
	"asset":{
		"generator":"Khronos glTF Blender I/O v5.1.18",
		"version":"2.0"
	},
	"scene":0,
	"scenes":[
		{
			"name":"Scene",
			"nodes":[
				0
			]
		}
	],
	"nodes":[
		{
			"mesh":0,
			"name":"Column_Round_Short"
		}
	],
	"materials":[
		{
			"doubleSided":true,
			"name":"Main",
			"pbrMetallicRoughness":{
				"baseColorFactor":[
					0.15896087884902954,
					0.16202940046787262,
					0.1247718334197998,
					1
				],
				"metallicFactor":0,
				"roughnessFactor":0.5
			}
		}
	],
	"meshes":[
		{
			"name":"Cylinder.047",
			"primitives":[
				{
					"attributes":{
						"POSITION":0,
						"NORMAL":1
					},
					"indices":2,
					"material":0
				}
			]
		}
	],
	"accessors":[
		{
			"bufferView":0,
			"componentType":5126,
			"count":900,
			"max":[
				0.24469494819641113,
				1.8296836614608765,
				0.24469512701034546
			],
			"min":[
				-0.24469494819641113,
				0,
				-0.24469512701034546
			],
			"type":"VEC3"
		},
		{
			"bufferView":1,
			"componentType":5126,
			"count":900,
			"type":"VEC3"
		},
		{
			"bufferView":2,
			"componentType":5123,
			"count":1902,
			"type":"SCALAR"
		}
	],
	"bufferViews":[
		{
			"buffer":0,
			"byteLength":10800,
			"byteOffset":0,
			"target":34962
		},
		{
			"buffer":0,
			"byteLength":10800,
			"byteOffset":10800,
			"target":34962
		},
		{
			"buffer":0,
			"byteLength":3804,
			"byteOffset":21600,
			"target":34963
		}
	],
	"buffers":[
		{
			"byteLength":25404,
			"uri":"Column_Round_Short-13e43284501fba5906795dda8dad7d52.bin"
		}
	]
}
