{
	"asset":{
		"generator":"Khronos glTF Blender I/O v5.1.18",
		"version":"2.0"
	},
	"scene":0,
	"scenes":[
		{
			"name":"Scene",
			"nodes":[
				0
			]
		}
	],
	"nodes":[
		{
			"mesh":0,
			"name":"Column_BridgeSupport"
		}
	],
	"materials":[
		{
			"doubleSided":true,
			"name":"Main",
			"pbrMetallicRoughness":{
				"baseColorFactor":[
					0.15896087884902954,
					0.16202940046787262,
					0.1247718334197998,
					1
				],
				"metallicFactor":0,
				"roughnessFactor":0.5
			}
		},
		{
			"doubleSided":true,
			"name":"Highlights",
			"pbrMetallicRoughness":{
				"baseColorFactor":[
					0.289932519197464,
					0.29568690061569214,
					0.22595453262329102,
					1
				],
				"metallicFactor":0,
				"roughnessFactor":0.5
			}
		}
	],
	"meshes":[
		{
			"name":"Cylinder.033",
			"primitives":[
				{
					"attributes":{
						"POSITION":0,
						"NORMAL":1
					},
					"indices":2,
					"material":0
				},
				{
					"attributes":{
						"POSITION":3,
						"NORMAL":4
					},
					"indices":5,
					"material":1
				}
			]
		}
	],
	"accessors":[
		{
			"bufferView":0,
			"componentType":5126,
			"count":851,
			"max":[
				0.4396308958530426,
				4.026278495788574,
				0.2707362771034241
			],
			"min":[
				-0.3399590849876404,
				0.8602250814437866,
				-0.27073538303375244
			],
			"type":"VEC3"
		},
		{
			"bufferView":1,
			"componentType":5126,
			"count":851,
			"type":"VEC3"
		},
		{
			"bufferView":2,
			"componentType":5123,
			"count":2424,
			"type":"SCALAR"
		},
		{
			"bufferView":3,
			"componentType":5126,
			"count":678,
			"max":[
				0.30874699354171753,
				3.9636788368225098,
				0.30874767899513245
			],
			"min":[
				-0.3399590849876404,
				0.006121844053268433,
				-0.3087467849254608
			],
			"type":"VEC3"
		},
		{
			"bufferView":4,
			"componentType":5126,
			"count":678,
			"type":"VEC3"
		},
		{
			"bufferView":5,
			"componentType":5123,
			"count":1302,
			"type":"SCALAR"
		}
	],
	"bufferViews":[
		{
			"buffer":0,
			"byteLength":10212,
			"byteOffset":0,
			"target":34962
		},
		{
			"buffer":0,
			"byteLength":10212,
			"byteOffset":10212,
			"target":34962
		},
		{
			"buffer":0,
			"byteLength":4848,
			"byteOffset":20424,
			"target":34963
		},
		{
			"buffer":0,
			"byteLength":8136,
			"byteOffset":25272,
			"target":34962
		},
		{
			"buffer":0,
			"byteLength":8136,
			"byteOffset":33408,
			"target":34962
		},
		{
			"buffer":0,
			"byteLength":2604,
			"byteOffset":41544,
			"target":34963
		}
	],
	"buffers":[
		{
			"byteLength":44148,
			"uri":"Column_BridgeSupport-9100da641d0da51ff4ed87bf77c9db17.bin"
		}
	]
}
