{
	"asset":{
		"generator":"Khronos glTF Blender I/O v5.1.18",
		"version":"2.0"
	},
	"scene":0,
	"scenes":[
		{
			"name":"Scene",
			"nodes":[
				0
			]
		}
	],
	"nodes":[
		{
			"mesh":0,
			"name":"Crate",
			"scale":[
				5.142258644104004,
				5.142258644104004,
				5.142258644104004
			]
		}
	],
	"materials":[
		{
			"doubleSided":true,
			"name":"DarkWood",
			"pbrMetallicRoughness":{
				"baseColorFactor":[
					0.08713703602552414,
					0.05797602981328964,
					0.02801351808011532,
					1
				],
				"metallicFactor":0,
				"roughnessFactor":0.5
			}
		},
		{
			"doubleSided":true,
			"name":"Wood",
			"pbrMetallicRoughness":{
				"baseColorFactor":[
					0.15292437374591827,
					0.10439527034759521,
					0.05163053795695305,
					1
				],
				"metallicFactor":0,
				"roughnessFactor":0.5
			}
		}
	],
	"meshes":[
		{
			"name":"Cube.259",
			"primitives":[
				{
					"attributes":{
						"POSITION":0,
						"NORMAL":1
					},
					"indices":2,
					"material":0
				},
				{
					"attributes":{
						"POSITION":3,
						"NORMAL":4
					},
					"indices":5,
					"material":1
				}
			]
		}
	],
	"accessors":[
		{
			"bufferView":0,
			"componentType":5126,
			"count":840,
			"max":[
				0.0788017064332962,
				0.15525305271148682,
				0.07711216062307358
			],
			"min":[
				-0.0788017213344574,
				0.0010287687182426453,
				-0.0788017213344574
			],
			"type":"VEC3"
		},
		{
			"bufferView":1,
			"componentType":5126,
			"count":840,
			"type":"VEC3"
		},
		{
			"bufferView":2,
			"componentType":5123,
			"count":1512,
			"type":"SCALAR"
		},
		{
			"bufferView":3,
			"componentType":5126,
			"count":340,
			"max":[
				0.08011595159769058,
				0.1582554578781128,
				0.08010999113321304
			],
			"min":[
				-0.08011507987976074,
				-0.0019760727882385254,
				-0.08013409376144409
			],
			"type":"VEC3"
		},
		{
			"bufferView":4,
			"componentType":5126,
			"count":340,
			"type":"VEC3"
		},
		{
			"bufferView":5,
			"componentType":5123,
			"count":840,
			"type":"SCALAR"
		}
	],
	"bufferViews":[
		{
			"buffer":0,
			"byteLength":10080,
			"byteOffset":0,
			"target":34962
		},
		{
			"buffer":0,
			"byteLength":10080,
			"byteOffset":10080,
			"target":34962
		},
		{
			"buffer":0,
			"byteLength":3024,
			"byteOffset":20160,
			"target":34963
		},
		{
			"buffer":0,
			"byteLength":4080,
			"byteOffset":23184,
			"target":34962
		},
		{
			"buffer":0,
			"byteLength":4080,
			"byteOffset":27264,
			"target":34962
		},
		{
			"buffer":0,
			"byteLength":1680,
			"byteOffset":31344,
			"target":34963
		}
	],
	"buffers":[
		{
			"byteLength":33024,
			"uri":"Crate-51dc12b2391360cb31b579279014a1fc.bin"
		}
	]
}
