{
	"asset":{
		"generator":"Khronos glTF Blender I/O v5.1.18",
		"version":"2.0"
	},
	"scene":0,
	"scenes":[
		{
			"name":"Scene",
			"nodes":[
				0
			]
		}
	],
	"nodes":[
		{
			"mesh":0,
			"name":"Curve_2_Overgrown"
		}
	],
	"materials":[
		{
			"doubleSided":true,
			"name":"Main",
			"pbrMetallicRoughness":{
				"baseColorFactor":[
					0.15896087884902954,
					0.16202940046787262,
					0.1247718334197998,
					1
				],
				"metallicFactor":0,
				"roughnessFactor":0.5
			}
		},
		{
			"doubleSided":true,
			"name":"Highlights",
			"pbrMetallicRoughness":{
				"baseColorFactor":[
					0.289932519197464,
					0.29568690061569214,
					0.22595453262329102,
					1
				],
				"metallicFactor":0,
				"roughnessFactor":0.5
			}
		},
		{
			"doubleSided":true,
			"name":"Leaf_Texture"
		},
		{
			"doubleSided":true,
			"name":"Green"
		}
	],
	"meshes":[
		{
			"name":"Cube.025",
			"primitives":[
				{
					"attributes":{
						"POSITION":0,
						"NORMAL":1,
						"TEXCOORD_0":2
					},
					"indices":3,
					"material":0
				},
				{
					"attributes":{
						"POSITION":4,
						"NORMAL":5,
						"TEXCOORD_0":6
					},
					"indices":7,
					"material":1
				},
				{
					"attributes":{
						"POSITION":8,
						"NORMAL":9,
						"TEXCOORD_0":10
					},
					"indices":11,
					"material":2
				},
				{
					"attributes":{
						"POSITION":12,
						"NORMAL":13,
						"TEXCOORD_0":14
					},
					"indices":15,
					"material":3
				}
			]
		}
	],
	"accessors":[
		{
			"bufferView":0,
			"componentType":5126,
			"count":4086,
			"max":[
				2.2527754306793213,
				1.9958676099777222,
				-0.006528518628329039
			],
			"min":[
				-0.022074202075600624,
				-0.0015011592768132687,
				-2.075469493865967
			],
			"type":"VEC3"
		},
		{
			"bufferView":1,
			"componentType":5126,
			"count":4086,
			"type":"VEC3"
		},
		{
			"bufferView":2,
			"componentType":5126,
			"count":4086,
			"type":"VEC2"
		},
		{
			"bufferView":3,
			"componentType":5123,
			"count":6402,
			"type":"SCALAR"
		},
		{
			"bufferView":4,
			"componentType":5126,
			"count":280,
			"max":[
				2.2458765506744385,
				1.7012594938278198,
				-0.07460536807775497
			],
			"min":[
				0.0002680903417058289,
				0.295421838760376,
				-2.049604654312134
			],
			"type":"VEC3"
		},
		{
			"bufferView":5,
			"componentType":5126,
			"count":280,
			"type":"VEC3"
		},
		{
			"bufferView":6,
			"componentType":5126,
			"count":280,
			"type":"VEC2"
		},
		{
			"bufferView":7,
			"componentType":5123,
			"count":408,
			"type":"SCALAR"
		},
		{
			"bufferView":8,
			"componentType":5126,
			"count":212,
			"max":[
				2.282715320587158,
				1.9993565082550049,
				-0.0689595639705658
			],
			"min":[
				0.12086039036512375,
				0.08082382380962372,
				-2.073843240737915
			],
			"type":"VEC3"
		},
		{
			"bufferView":9,
			"componentType":5126,
			"count":212,
			"type":"VEC3"
		},
		{
			"bufferView":10,
			"componentType":5126,
			"count":212,
			"type":"VEC2"
		},
		{
			"bufferView":11,
			"componentType":5123,
			"count":342,
			"type":"SCALAR"
		},
		{
			"bufferView":12,
			"componentType":5126,
			"count":102,
			"max":[
				2.185899496078491,
				1.9594712257385254,
				-0.02146228589117527
			],
			"min":[
				0.012165321037173271,
				0.03899732232093811,
				-2.013460159301758
			],
			"type":"VEC3"
		},
		{
			"bufferView":13,
			"componentType":5126,
			"count":102,
			"type":"VEC3"
		},
		{
			"bufferView":14,
			"componentType":5126,
			"count":102,
			"type":"VEC2"
		},
		{
			"bufferView":15,
			"componentType":5123,
			"count":180,
			"type":"SCALAR"
		}
	],
	"bufferViews":[
		{
			"buffer":0,
			"byteLength":49032,
			"byteOffset":0,
			"target":34962
		},
		{
			"buffer":0,
			"byteLength":49032,
			"byteOffset":49032,
			"target":34962
		},
		{
			"buffer":0,
			"byteLength":32688,
			"byteOffset":98064,
			"target":34962
		},
		{
			"buffer":0,
			"byteLength":12804,
			"byteOffset":130752,
			"target":34963
		},
		{
			"buffer":0,
			"byteLength":3360,
			"byteOffset":143556,
			"target":34962
		},
		{
			"buffer":0,
			"byteLength":3360,
			"byteOffset":146916,
			"target":34962
		},
		{
			"buffer":0,
			"byteLength":2240,
			"byteOffset":150276,
			"target":34962
		},
		{
			"buffer":0,
			"byteLength":816,
			"byteOffset":152516,
			"target":34963
		},
		{
			"buffer":0,
			"byteLength":2544,
			"byteOffset":153332,
			"target":34962
		},
		{
			"buffer":0,
			"byteLength":2544,
			"byteOffset":155876,
			"target":34962
		},
		{
			"buffer":0,
			"byteLength":1696,
			"byteOffset":158420,
			"target":34962
		},
		{
			"buffer":0,
			"byteLength":684,
			"byteOffset":160116,
			"target":34963
		},
		{
			"buffer":0,
			"byteLength":1224,
			"byteOffset":160800,
			"target":34962
		},
		{
			"buffer":0,
			"byteLength":1224,
			"byteOffset":162024,
			"target":34962
		},
		{
			"buffer":0,
			"byteLength":816,
			"byteOffset":163248,
			"target":34962
		},
		{
			"buffer":0,
			"byteLength":360,
			"byteOffset":164064,
			"target":34963
		}
	],
	"buffers":[
		{
			"byteLength":164424,
			"uri":"Curve_2_Overgrown-7b52c75d26ce0f5b6f123d394e179748.bin"
		}
	]
}
