{
	"asset":{
		"generator":"Khronos glTF Blender I/O v5.1.18",
		"version":"2.0"
	},
	"scene":0,
	"scenes":[
		{
			"name":"Scene",
			"nodes":[
				0
			]
		}
	],
	"nodes":[
		{
			"mesh":0,
			"name":"DeadTree_1",
			"scale":[
				0.5,
				0.5,
				0.5
			]
		}
	],
	"materials":[
		{
			"doubleSided":true,
			"name":"Bark",
			"pbrMetallicRoughness":{
				"baseColorTexture":{
					"index":0
				},
				"metallicFactor":0
			}
		}
	],
	"meshes":[
		{
			"name":"Cylinder.038",
			"primitives":[
				{
					"attributes":{
						"POSITION":0,
						"NORMAL":1,
						"TEXCOORD_0":2
					},
					"indices":3,
					"material":0
				}
			]
		}
	],
	"textures":[
		{
			"sampler":0,
			"source":0
		}
	],
	"images":[
		{
			"mimeType":"image/jpeg",
			"name":"Bark_Texture.jpg",
			"uri":"../../temp_resources/Ultimate%20Modular%20Ruins%20Pack%20-%20Aug%202021/Blends/textures/Bark_Texture.jpg"
		}
	],
	"accessors":[
		{
			"bufferView":0,
			"componentType":5126,
			"count":400,
			"max":[
				0.5404685735702515,
				5.1822991371154785,
				1.0847960710525513
			],
			"min":[
				-1.9030293226242065,
				0.011172615922987461,
				-0.4341592490673065
			],
			"type":"VEC3"
		},
		{
			"bufferView":1,
			"componentType":5126,
			"count":400,
			"type":"VEC3"
		},
		{
			"bufferView":2,
			"componentType":5126,
			"count":400,
			"type":"VEC2"
		},
		{
			"bufferView":3,
			"componentType":5123,
			"count":1332,
			"type":"SCALAR"
		}
	],
	"bufferViews":[
		{
			"buffer":0,
			"byteLength":4800,
			"byteOffset":0,
			"target":34962
		},
		{
			"buffer":0,
			"byteLength":4800,
			"byteOffset":4800,
			"target":34962
		},
		{
			"buffer":0,
			"byteLength":3200,
			"byteOffset":9600,
			"target":34962
		},
		{
			"buffer":0,
			"byteLength":2664,
			"byteOffset":12800,
			"target":34963
		}
	],
	"samplers":[
		{
			"magFilter":9729,
			"minFilter":9987
		}
	],
	"buffers":[
		{
			"byteLength":15464,
			"uri":"DeadTree_1-a2d5561bd39be450be753f8d0cf96666.bin"
		}
	]
}
