{
	"asset":{
		"generator":"Khronos glTF Blender I/O v5.1.18",
		"version":"2.0"
	},
	"scene":0,
	"scenes":[
		{
			"name":"Scene",
			"nodes":[
				0
			]
		}
	],
	"nodes":[
		{
			"mesh":0,
			"name":"Doors_GothicArch_Covered"
		}
	],
	"materials":[
		{
			"doubleSided":true,
			"name":"Wood",
			"pbrMetallicRoughness":{
				"baseColorFactor":[
					0.15292437374591827,
					0.10439527034759521,
					0.05163053795695305,
					1
				],
				"metallicFactor":0,
				"roughnessFactor":0.5
			}
		},
		{
			"doubleSided":true,
			"name":"DarkWood",
			"pbrMetallicRoughness":{
				"baseColorFactor":[
					0.08713703602552414,
					0.05797602981328964,
					0.02801351808011532,
					1
				],
				"metallicFactor":0,
				"roughnessFactor":0.5
			}
		},
		{
			"doubleSided":true,
			"name":"Metal",
			"pbrMetallicRoughness":{
				"baseColorFactor":[
					0.09704122692346573,
					0.10234932601451874,
					0.11927313357591629,
					1
				],
				"metallicFactor":0,
				"roughnessFactor":0.5
			}
		},
		{
			"doubleSided":true,
			"name":"Metal_Light",
			"pbrMetallicRoughness":{
				"baseColorFactor":[
					0.17861980199813843,
					0.18874633312225342,
					0.22110147774219513,
					1
				],
				"metallicFactor":0,
				"roughnessFactor":0.5
			}
		}
	],
	"meshes":[
		{
			"name":"Cylinder.032",
			"primitives":[
				{
					"attributes":{
						"POSITION":0,
						"NORMAL":1,
						"TEXCOORD_0":2,
						"TANGENT":3
					},
					"indices":4,
					"material":0
				},
				{
					"attributes":{
						"POSITION":5,
						"NORMAL":6,
						"TEXCOORD_0":7,
						"TANGENT":8
					},
					"indices":9,
					"material":1
				},
				{
					"attributes":{
						"POSITION":10,
						"NORMAL":11,
						"TEXCOORD_0":12,
						"TANGENT":13
					},
					"indices":14,
					"material":2
				},
				{
					"attributes":{
						"POSITION":15,
						"NORMAL":16,
						"TEXCOORD_0":17,
						"TANGENT":18
					},
					"indices":19,
					"material":3
				}
			]
		}
	],
	"accessors":[
		{
			"bufferView":0,
			"componentType":5126,
			"count":680,
			"max":[
				1.255102515220642,
				3.0254080295562744,
				0.13942793011665344
			],
			"min":[
				-1.267529010772705,
				0.22875046730041504,
				-0.13942793011665344
			],
			"type":"VEC3"
		},
		{
			"bufferView":1,
			"componentType":5126,
			"count":680,
			"type":"VEC3"
		},
		{
			"bufferView":2,
			"componentType":5126,
			"count":680,
			"type":"VEC2"
		},
		{
			"bufferView":3,
			"componentType":5126,
			"count":680,
			"type":"VEC4"
		},
		{
			"bufferView":4,
			"componentType":5123,
			"count":1824,
			"type":"SCALAR"
		},
		{
			"bufferView":5,
			"componentType":5126,
			"count":1748,
			"max":[
				1.1564465761184692,
				3.2036068439483643,
				0.06289885193109512
			],
			"min":[
				-1.1564465761184692,
				0.17493963241577148,
				-0.06289885193109512
			],
			"type":"VEC3"
		},
		{
			"bufferView":6,
			"componentType":5126,
			"count":1748,
			"type":"VEC3"
		},
		{
			"bufferView":7,
			"componentType":5126,
			"count":1748,
			"type":"VEC2"
		},
		{
			"bufferView":8,
			"componentType":5126,
			"count":1748,
			"type":"VEC4"
		},
		{
			"bufferView":9,
			"componentType":5123,
			"count":3732,
			"type":"SCALAR"
		},
		{
			"bufferView":10,
			"componentType":5126,
			"count":160,
			"max":[
				1.1564525365829468,
				0.22876304388046265,
				0.07531898468732834
			],
			"min":[
				-1.1564525365829468,
				-0.006005287170410156,
				-0.07531898468732834
			],
			"type":"VEC3"
		},
		{
			"bufferView":11,
			"componentType":5126,
			"count":160,
			"type":"VEC3"
		},
		{
			"bufferView":12,
			"componentType":5126,
			"count":160,
			"type":"VEC2"
		},
		{
			"bufferView":13,
			"componentType":5126,
			"count":160,
			"type":"VEC4"
		},
		{
			"bufferView":14,
			"componentType":5123,
			"count":252,
			"type":"SCALAR"
		},
		{
			"bufferView":15,
			"componentType":5126,
			"count":320,
			"max":[
				1.0332578420639038,
				0.15182697772979736,
				0.08162035793066025
			],
			"min":[
				-1.0332578420639038,
				0.06634056568145752,
				-0.08162035793066025
			],
			"type":"VEC3"
		},
		{
			"bufferView":16,
			"componentType":5126,
			"count":320,
			"type":"VEC3"
		},
		{
			"bufferView":17,
			"componentType":5126,
			"count":320,
			"type":"VEC2"
		},
		{
			"bufferView":18,
			"componentType":5126,
			"count":320,
			"type":"VEC4"
		},
		{
			"bufferView":19,
			"componentType":5123,
			"count":480,
			"type":"SCALAR"
		}
	],
	"bufferViews":[
		{
			"buffer":0,
			"byteLength":8160,
			"byteOffset":0,
			"target":34962
		},
		{
			"buffer":0,
			"byteLength":8160,
			"byteOffset":8160,
			"target":34962
		},
		{
			"buffer":0,
			"byteLength":5440,
			"byteOffset":16320,
			"target":34962
		},
		{
			"buffer":0,
			"byteLength":10880,
			"byteOffset":21760,
			"target":34962
		},
		{
			"buffer":0,
			"byteLength":3648,
			"byteOffset":32640,
			"target":34963
		},
		{
			"buffer":0,
			"byteLength":20976,
			"byteOffset":36288,
			"target":34962
		},
		{
			"buffer":0,
			"byteLength":20976,
			"byteOffset":57264,
			"target":34962
		},
		{
			"buffer":0,
			"byteLength":13984,
			"byteOffset":78240,
			"target":34962
		},
		{
			"buffer":0,
			"byteLength":27968,
			"byteOffset":92224,
			"target":34962
		},
		{
			"buffer":0,
			"byteLength":7464,
			"byteOffset":120192,
			"target":34963
		},
		{
			"buffer":0,
			"byteLength":1920,
			"byteOffset":127656,
			"target":34962
		},
		{
			"buffer":0,
			"byteLength":1920,
			"byteOffset":129576,
			"target":34962
		},
		{
			"buffer":0,
			"byteLength":1280,
			"byteOffset":131496,
			"target":34962
		},
		{
			"buffer":0,
			"byteLength":2560,
			"byteOffset":132776,
			"target":34962
		},
		{
			"buffer":0,
			"byteLength":504,
			"byteOffset":135336,
			"target":34963
		},
		{
			"buffer":0,
			"byteLength":3840,
			"byteOffset":135840,
			"target":34962
		},
		{
			"buffer":0,
			"byteLength":3840,
			"byteOffset":139680,
			"target":34962
		},
		{
			"buffer":0,
			"byteLength":2560,
			"byteOffset":143520,
			"target":34962
		},
		{
			"buffer":0,
			"byteLength":5120,
			"byteOffset":146080,
			"target":34962
		},
		{
			"buffer":0,
			"byteLength":960,
			"byteOffset":151200,
			"target":34963
		}
	],
	"buffers":[
		{
			"byteLength":152160,
			"uri":"Doors_GothicArch_Covered-e85b12f5860e40766fab02a6dd7c2886.bin"
		}
	]
}
