{
	"asset":{
		"generator":"Khronos glTF Blender I/O v5.1.18",
		"version":"2.0"
	},
	"scene":0,
	"scenes":[
		{
			"name":"Scene",
			"nodes":[
				0,
				1
			]
		}
	],
	"nodes":[
		{
			"mesh":0,
			"name":"Doors_RoundArch_L",
			"translation":[
				-1,
				0,
				0
			]
		},
		{
			"mesh":1,
			"name":"Doors_RoundArch_R",
			"translation":[
				1,
				0,
				0
			]
		}
	],
	"materials":[
		{
			"doubleSided":true,
			"name":"Wood",
			"pbrMetallicRoughness":{
				"baseColorFactor":[
					0.15292437374591827,
					0.10439527034759521,
					0.05163053795695305,
					1
				],
				"metallicFactor":0,
				"roughnessFactor":0.5
			}
		},
		{
			"doubleSided":true,
			"name":"DarkWood",
			"pbrMetallicRoughness":{
				"baseColorFactor":[
					0.08713703602552414,
					0.05797602981328964,
					0.02801351808011532,
					1
				],
				"metallicFactor":0,
				"roughnessFactor":0.5
			}
		},
		{
			"doubleSided":true,
			"name":"Metal",
			"pbrMetallicRoughness":{
				"baseColorFactor":[
					0.09704122692346573,
					0.10234932601451874,
					0.11927313357591629,
					1
				],
				"metallicFactor":0,
				"roughnessFactor":0.5
			}
		},
		{
			"doubleSided":true,
			"name":"Metal_Light",
			"pbrMetallicRoughness":{
				"baseColorFactor":[
					0.17861980199813843,
					0.18874633312225342,
					0.22110147774219513,
					1
				],
				"metallicFactor":0,
				"roughnessFactor":0.5
			}
		}
	],
	"meshes":[
		{
			"name":"Cylinder.006",
			"primitives":[
				{
					"attributes":{
						"POSITION":0,
						"NORMAL":1,
						"TEXCOORD_0":2
					},
					"indices":3,
					"material":0
				},
				{
					"attributes":{
						"POSITION":4,
						"NORMAL":5,
						"TEXCOORD_0":6
					},
					"indices":7,
					"material":1
				},
				{
					"attributes":{
						"POSITION":8,
						"NORMAL":9,
						"TEXCOORD_0":10
					},
					"indices":11,
					"material":2
				},
				{
					"attributes":{
						"POSITION":12,
						"NORMAL":13,
						"TEXCOORD_0":14
					},
					"indices":15,
					"material":3
				}
			]
		},
		{
			"name":"Cylinder.045",
			"primitives":[
				{
					"attributes":{
						"POSITION":16,
						"NORMAL":17,
						"TEXCOORD_0":18
					},
					"indices":3,
					"material":0
				},
				{
					"attributes":{
						"POSITION":19,
						"NORMAL":20,
						"TEXCOORD_0":21
					},
					"indices":22,
					"material":1
				},
				{
					"attributes":{
						"POSITION":23,
						"NORMAL":24,
						"TEXCOORD_0":25
					},
					"indices":26,
					"material":2
				},
				{
					"attributes":{
						"POSITION":27,
						"NORMAL":28,
						"TEXCOORD_0":29
					},
					"indices":30,
					"material":3
				}
			]
		}
	],
	"accessors":[
		{
			"bufferView":0,
			"componentType":5126,
			"count":52,
			"max":[
				0.8866811990737915,
				2.7904887199401855,
				0.04514420032501221
			],
			"min":[
				-0.025029540061950684,
				0.22875046730041504,
				-0.04514420032501221
			],
			"type":"VEC3"
		},
		{
			"bufferView":1,
			"componentType":5126,
			"count":52,
			"type":"VEC3"
		},
		{
			"bufferView":2,
			"componentType":5126,
			"count":52,
			"type":"VEC2"
		},
		{
			"bufferView":3,
			"componentType":5123,
			"count":144,
			"type":"SCALAR"
		},
		{
			"bufferView":4,
			"componentType":5126,
			"count":829,
			"max":[
				0.989986777305603,
				2.9633724689483643,
				0.06289885193109512
			],
			"min":[
				-0.15644657611846924,
				0.17493963241577148,
				-0.06289885193109512
			],
			"type":"VEC3"
		},
		{
			"bufferView":5,
			"componentType":5126,
			"count":829,
			"type":"VEC3"
		},
		{
			"bufferView":6,
			"componentType":5126,
			"count":829,
			"type":"VEC2"
		},
		{
			"bufferView":7,
			"componentType":5123,
			"count":1866,
			"type":"SCALAR"
		},
		{
			"bufferView":8,
			"componentType":5126,
			"count":344,
			"max":[
				0.989986777305603,
				1.3306325674057007,
				0.11931649595499039
			],
			"min":[
				-0.15645253658294678,
				-0.006005287170410156,
				-0.11931649595499039
			],
			"type":"VEC3"
		},
		{
			"bufferView":9,
			"componentType":5126,
			"count":344,
			"type":"VEC3"
		},
		{
			"bufferView":10,
			"componentType":5126,
			"count":344,
			"type":"VEC2"
		},
		{
			"bufferView":11,
			"componentType":5123,
			"count":858,
			"type":"SCALAR"
		},
		{
			"bufferView":12,
			"componentType":5126,
			"count":256,
			"max":[
				0.8700534105300903,
				1.1945585012435913,
				0.13713876903057098
			],
			"min":[
				-0.03325784206390381,
				0.05996274948120117,
				-0.13713876903057098
			],
			"type":"VEC3"
		},
		{
			"bufferView":13,
			"componentType":5126,
			"count":256,
			"type":"VEC3"
		},
		{
			"bufferView":14,
			"componentType":5126,
			"count":256,
			"type":"VEC2"
		},
		{
			"bufferView":15,
			"componentType":5123,
			"count":408,
			"type":"SCALAR"
		},
		{
			"bufferView":16,
			"componentType":5126,
			"count":52,
			"max":[
				0.025029554963111877,
				2.7904887199401855,
				0.04514449089765549
			],
			"min":[
				-0.8866811990737915,
				0.22875046730041504,
				-0.04514418542385101
			],
			"type":"VEC3"
		},
		{
			"bufferView":17,
			"componentType":5126,
			"count":52,
			"type":"VEC3"
		},
		{
			"bufferView":18,
			"componentType":5126,
			"count":52,
			"type":"VEC2"
		},
		{
			"bufferView":19,
			"componentType":5126,
			"count":829,
			"max":[
				0.15644659101963043,
				2.9633724689483643,
				0.06289917230606079
			],
			"min":[
				-0.989986777305603,
				0.17493963241577148,
				-0.06289888173341751
			],
			"type":"VEC3"
		},
		{
			"bufferView":20,
			"componentType":5126,
			"count":829,
			"type":"VEC3"
		},
		{
			"bufferView":21,
			"componentType":5126,
			"count":829,
			"type":"VEC2"
		},
		{
			"bufferView":22,
			"componentType":5123,
			"count":1866,
			"type":"SCALAR"
		},
		{
			"bufferView":23,
			"componentType":5126,
			"count":344,
			"max":[
				0.15645256638526917,
				1.3306325674057007,
				0.11931677162647247
			],
			"min":[
				-0.989986777305603,
				-0.006005287170410156,
				-0.11931630223989487
			],
			"type":"VEC3"
		},
		{
			"bufferView":24,
			"componentType":5126,
			"count":344,
			"type":"VEC3"
		},
		{
			"bufferView":25,
			"componentType":5126,
			"count":344,
			"type":"VEC2"
		},
		{
			"bufferView":26,
			"componentType":5123,
			"count":858,
			"type":"SCALAR"
		},
		{
			"bufferView":27,
			"componentType":5126,
			"count":256,
			"max":[
				0.0332578606903553,
				1.1945585012435913,
				0.13713902235031128
			],
			"min":[
				-0.8700534105300903,
				0.05996274948120117,
				-0.13713856041431427
			],
			"type":"VEC3"
		},
		{
			"bufferView":28,
			"componentType":5126,
			"count":256,
			"type":"VEC3"
		},
		{
			"bufferView":29,
			"componentType":5126,
			"count":256,
			"type":"VEC2"
		},
		{
			"bufferView":30,
			"componentType":5123,
			"count":408,
			"type":"SCALAR"
		}
	],
	"bufferViews":[
		{
			"buffer":0,
			"byteLength":624,
			"byteOffset":0,
			"target":34962
		},
		{
			"buffer":0,
			"byteLength":624,
			"byteOffset":624,
			"target":34962
		},
		{
			"buffer":0,
			"byteLength":416,
			"byteOffset":1248,
			"target":34962
		},
		{
			"buffer":0,
			"byteLength":288,
			"byteOffset":1664,
			"target":34963
		},
		{
			"buffer":0,
			"byteLength":9948,
			"byteOffset":1952,
			"target":34962
		},
		{
			"buffer":0,
			"byteLength":9948,
			"byteOffset":11900,
			"target":34962
		},
		{
			"buffer":0,
			"byteLength":6632,
			"byteOffset":21848,
			"target":34962
		},
		{
			"buffer":0,
			"byteLength":3732,
			"byteOffset":28480,
			"target":34963
		},
		{
			"buffer":0,
			"byteLength":4128,
			"byteOffset":32212,
			"target":34962
		},
		{
			"buffer":0,
			"byteLength":4128,
			"byteOffset":36340,
			"target":34962
		},
		{
			"buffer":0,
			"byteLength":2752,
			"byteOffset":40468,
			"target":34962
		},
		{
			"buffer":0,
			"byteLength":1716,
			"byteOffset":43220,
			"target":34963
		},
		{
			"buffer":0,
			"byteLength":3072,
			"byteOffset":44936,
			"target":34962
		},
		{
			"buffer":0,
			"byteLength":3072,
			"byteOffset":48008,
			"target":34962
		},
		{
			"buffer":0,
			"byteLength":2048,
			"byteOffset":51080,
			"target":34962
		},
		{
			"buffer":0,
			"byteLength":816,
			"byteOffset":53128,
			"target":34963
		},
		{
			"buffer":0,
			"byteLength":624,
			"byteOffset":53944,
			"target":34962
		},
		{
			"buffer":0,
			"byteLength":624,
			"byteOffset":54568,
			"target":34962
		},
		{
			"buffer":0,
			"byteLength":416,
			"byteOffset":55192,
			"target":34962
		},
		{
			"buffer":0,
			"byteLength":9948,
			"byteOffset":55608,
			"target":34962
		},
		{
			"buffer":0,
			"byteLength":9948,
			"byteOffset":65556,
			"target":34962
		},
		{
			"buffer":0,
			"byteLength":6632,
			"byteOffset":75504,
			"target":34962
		},
		{
			"buffer":0,
			"byteLength":3732,
			"byteOffset":82136,
			"target":34963
		},
		{
			"buffer":0,
			"byteLength":4128,
			"byteOffset":85868,
			"target":34962
		},
		{
			"buffer":0,
			"byteLength":4128,
			"byteOffset":89996,
			"target":34962
		},
		{
			"buffer":0,
			"byteLength":2752,
			"byteOffset":94124,
			"target":34962
		},
		{
			"buffer":0,
			"byteLength":1716,
			"byteOffset":96876,
			"target":34963
		},
		{
			"buffer":0,
			"byteLength":3072,
			"byteOffset":98592,
			"target":34962
		},
		{
			"buffer":0,
			"byteLength":3072,
			"byteOffset":101664,
			"target":34962
		},
		{
			"buffer":0,
			"byteLength":2048,
			"byteOffset":104736,
			"target":34962
		},
		{
			"buffer":0,
			"byteLength":816,
			"byteOffset":106784,
			"target":34963
		}
	],
	"buffers":[
		{
			"byteLength":107600,
			"uri":"Doors_RoundArch-d4c250b08d298b53dc811896d0e4d790.bin"
		}
	]
}
