{
	"asset":{
		"generator":"Khronos glTF Blender I/O v5.1.18",
		"version":"2.0"
	},
	"scene":0,
	"scenes":[
		{
			"name":"Scene",
			"nodes":[
				0
			]
		}
	],
	"nodes":[
		{
			"mesh":0,
			"name":"Flag_RoundArch"
		}
	],
	"materials":[
		{
			"doubleSided":true,
			"name":"Flag",
			"pbrMetallicRoughness":{
				"baseColorFactor":[
					0.2633514106273651,
					0.0846899077296257,
					0.022547682747244835,
					1
				],
				"metallicFactor":0,
				"roughnessFactor":0.5
			}
		}
	],
	"meshes":[
		{
			"name":"Cylinder.008",
			"primitives":[
				{
					"attributes":{
						"POSITION":0,
						"NORMAL":1
					},
					"indices":2,
					"material":0
				}
			]
		}
	],
	"accessors":[
		{
			"bufferView":0,
			"componentType":5126,
			"count":149,
			"max":[
				1.0840529203414917,
				3.3777782917022705,
				0.20340754091739655
			],
			"min":[
				-1.0844998359680176,
				2.2503554821014404,
				-0.1126335859298706
			],
			"type":"VEC3"
		},
		{
			"bufferView":1,
			"componentType":5126,
			"count":149,
			"type":"VEC3"
		},
		{
			"bufferView":2,
			"componentType":5123,
			"count":396,
			"type":"SCALAR"
		}
	],
	"bufferViews":[
		{
			"buffer":0,
			"byteLength":1788,
			"byteOffset":0,
			"target":34962
		},
		{
			"buffer":0,
			"byteLength":1788,
			"byteOffset":1788,
			"target":34962
		},
		{
			"buffer":0,
			"byteLength":792,
			"byteOffset":3576,
			"target":34963
		}
	],
	"buffers":[
		{
			"byteLength":4368,
			"uri":"Flag_RoundArch-767a97e5abac351e5c3f6acc3e7d54e4.bin"
		}
	]
}
