{
	"asset":{
		"generator":"Khronos glTF Blender I/O v5.1.18",
		"version":"2.0"
	},
	"scene":0,
	"scenes":[
		{
			"name":"Scene",
			"nodes":[
				0
			]
		}
	],
	"nodes":[
		{
			"mesh":0,
			"name":"Flag_Wall2"
		}
	],
	"materials":[
		{
			"doubleSided":true,
			"name":"Flag",
			"pbrMetallicRoughness":{
				"baseColorFactor":[
					0.2633514106273651,
					0.0846899077296257,
					0.022547682747244835,
					1
				],
				"metallicFactor":0,
				"roughnessFactor":0.5
			}
		},
		{
			"doubleSided":true,
			"name":"Wood",
			"pbrMetallicRoughness":{
				"baseColorFactor":[
					0.15292437374591827,
					0.10439527034759521,
					0.05163053795695305,
					1
				],
				"metallicFactor":0,
				"roughnessFactor":0.5
			}
		},
		{
			"doubleSided":true,
			"name":"Metal",
			"pbrMetallicRoughness":{
				"baseColorFactor":[
					0.09704122692346573,
					0.10234932601451874,
					0.11927313357591629,
					1
				],
				"metallicFactor":0,
				"roughnessFactor":0.5
			}
		}
	],
	"meshes":[
		{
			"name":"Cylinder.003",
			"primitives":[
				{
					"attributes":{
						"POSITION":0,
						"NORMAL":1
					},
					"indices":2,
					"material":0
				},
				{
					"attributes":{
						"POSITION":3,
						"NORMAL":4
					},
					"indices":5,
					"material":1
				},
				{
					"attributes":{
						"POSITION":6,
						"NORMAL":7
					},
					"indices":8,
					"material":2
				}
			]
		}
	],
	"accessors":[
		{
			"bufferView":0,
			"componentType":5126,
			"count":116,
			"max":[
				0.4505745768547058,
				0.008352279663085938,
				0.010557219386100769
			],
			"min":[
				-0.4505745768547058,
				-2.3067994117736816,
				-0.018863871693611145
			],
			"type":"VEC3"
		},
		{
			"bufferView":1,
			"componentType":5126,
			"count":116,
			"type":"VEC3"
		},
		{
			"bufferView":2,
			"componentType":5123,
			"count":552,
			"type":"SCALAR"
		},
		{
			"bufferView":3,
			"componentType":5126,
			"count":72,
			"max":[
				0.4728321135044098,
				0.025253992527723312,
				0.025253985077142715
			],
			"min":[
				-0.4728321135044098,
				-0.025254014879465103,
				-0.27484458684921265
			],
			"type":"VEC3"
		},
		{
			"bufferView":4,
			"componentType":5126,
			"count":72,
			"type":"VEC3"
		},
		{
			"bufferView":5,
			"componentType":5123,
			"count":228,
			"type":"SCALAR"
		},
		{
			"bufferView":6,
			"componentType":5126,
			"count":96,
			"max":[
				0.5633434057235718,
				0.047518838196992874,
				0.047518856823444366
			],
			"min":[
				-0.5633434057235718,
				-0.04751889407634735,
				-0.047518808394670486
			],
			"type":"VEC3"
		},
		{
			"bufferView":7,
			"componentType":5126,
			"count":96,
			"type":"VEC3"
		},
		{
			"bufferView":8,
			"componentType":5123,
			"count":324,
			"type":"SCALAR"
		}
	],
	"bufferViews":[
		{
			"buffer":0,
			"byteLength":1392,
			"byteOffset":0,
			"target":34962
		},
		{
			"buffer":0,
			"byteLength":1392,
			"byteOffset":1392,
			"target":34962
		},
		{
			"buffer":0,
			"byteLength":1104,
			"byteOffset":2784,
			"target":34963
		},
		{
			"buffer":0,
			"byteLength":864,
			"byteOffset":3888,
			"target":34962
		},
		{
			"buffer":0,
			"byteLength":864,
			"byteOffset":4752,
			"target":34962
		},
		{
			"buffer":0,
			"byteLength":456,
			"byteOffset":5616,
			"target":34963
		},
		{
			"buffer":0,
			"byteLength":1152,
			"byteOffset":6072,
			"target":34962
		},
		{
			"buffer":0,
			"byteLength":1152,
			"byteOffset":7224,
			"target":34962
		},
		{
			"buffer":0,
			"byteLength":648,
			"byteOffset":8376,
			"target":34963
		}
	],
	"buffers":[
		{
			"byteLength":9024,
			"uri":"Flag_Wall2-1d364e0945e3a3f9c3cba931b04f402d.bin"
		}
	]
}
