{
	"asset":{
		"generator":"Khronos glTF Blender I/O v5.1.18",
		"version":"2.0"
	},
	"scene":0,
	"scenes":[
		{
			"name":"Scene",
			"nodes":[
				0
			]
		}
	],
	"nodes":[
		{
			"mesh":0,
			"name":"Floor_Squares",
			"scale":[
				1,
				0.05973000079393387,
				1
			]
		}
	],
	"materials":[
		{
			"doubleSided":true,
			"name":"Main",
			"pbrMetallicRoughness":{
				"baseColorFactor":[
					0.15896087884902954,
					0.16202940046787262,
					0.1247718334197998,
					1
				],
				"metallicFactor":0,
				"roughnessFactor":0.5
			}
		},
		{
			"doubleSided":true,
			"name":"Highlights",
			"pbrMetallicRoughness":{
				"baseColorFactor":[
					0.289932519197464,
					0.29568690061569214,
					0.22595453262329102,
					1
				],
				"metallicFactor":0,
				"roughnessFactor":0.5
			}
		}
	],
	"meshes":[
		{
			"name":"Cube.035",
			"primitives":[
				{
					"attributes":{
						"POSITION":0,
						"NORMAL":1
					},
					"indices":2,
					"material":0
				},
				{
					"attributes":{
						"POSITION":3,
						"NORMAL":4
					},
					"indices":5,
					"material":1
				}
			]
		}
	],
	"accessors":[
		{
			"bufferView":0,
			"componentType":5126,
			"count":769,
			"max":[
				0.9975067973136902,
				0.5690498352050781,
				0.9989132881164551
			],
			"min":[
				-0.994628369808197,
				-1.3711445331573486,
				-0.9966913461685181
			],
			"type":"VEC3"
		},
		{
			"bufferView":1,
			"componentType":5126,
			"count":769,
			"type":"VEC3"
		},
		{
			"bufferView":2,
			"componentType":5123,
			"count":1149,
			"type":"SCALAR"
		},
		{
			"bufferView":3,
			"componentType":5126,
			"count":88,
			"max":[
				0.9896170496940613,
				0.3305075168609619,
				0.6452171802520752
			],
			"min":[
				-0.9915086030960083,
				-1.3711445331573486,
				-0.6693829894065857
			],
			"type":"VEC3"
		},
		{
			"bufferView":4,
			"componentType":5126,
			"count":88,
			"type":"VEC3"
		},
		{
			"bufferView":5,
			"componentType":5123,
			"count":90,
			"type":"SCALAR"
		}
	],
	"bufferViews":[
		{
			"buffer":0,
			"byteLength":9228,
			"byteOffset":0,
			"target":34962
		},
		{
			"buffer":0,
			"byteLength":9228,
			"byteOffset":9228,
			"target":34962
		},
		{
			"buffer":0,
			"byteLength":2298,
			"byteOffset":18456,
			"target":34963
		},
		{
			"buffer":0,
			"byteLength":1056,
			"byteOffset":20756,
			"target":34962
		},
		{
			"buffer":0,
			"byteLength":1056,
			"byteOffset":21812,
			"target":34962
		},
		{
			"buffer":0,
			"byteLength":180,
			"byteOffset":22868,
			"target":34963
		}
	],
	"buffers":[
		{
			"byteLength":23048,
			"uri":"Floor_Squares-4db177fb8bea1ca867c7b3dabbce47bc.bin"
		}
	]
}
