{
	"asset":{
		"generator":"Khronos glTF Blender I/O v5.1.18",
		"version":"2.0"
	},
	"scene":0,
	"scenes":[
		{
			"name":"Scene",
			"nodes":[
				0
			]
		}
	],
	"nodes":[
		{
			"mesh":0,
			"name":"Floor_Hole_Straight",
			"scale":[
				1,
				0.05973000079393387,
				1
			]
		}
	],
	"materials":[
		{
			"doubleSided":true,
			"name":"Main",
			"pbrMetallicRoughness":{
				"baseColorFactor":[
					0.15896087884902954,
					0.16202940046787262,
					0.1247718334197998,
					1
				],
				"metallicFactor":0,
				"roughnessFactor":0.5
			}
		},
		{
			"doubleSided":true,
			"name":"Highlights",
			"pbrMetallicRoughness":{
				"baseColorFactor":[
					0.289932519197464,
					0.29568690061569214,
					0.22595453262329102,
					1
				],
				"metallicFactor":0,
				"roughnessFactor":0.5
			}
		}
	],
	"meshes":[
		{
			"name":"Cube.031",
			"primitives":[
				{
					"attributes":{
						"POSITION":0,
						"NORMAL":1
					},
					"indices":2,
					"material":0
				},
				{
					"attributes":{
						"POSITION":3,
						"NORMAL":4
					},
					"indices":5,
					"material":1
				}
			]
		}
	],
	"accessors":[
		{
			"bufferView":0,
			"componentType":5126,
			"count":375,
			"max":[
				0.9929031133651733,
				0.5690498352050781,
				-0.0182003453373909
			],
			"min":[
				-0.994628369808197,
				-1.3711445331573486,
				-0.9966913461685181
			],
			"type":"VEC3"
		},
		{
			"bufferView":1,
			"componentType":5126,
			"count":375,
			"type":"VEC3"
		},
		{
			"bufferView":2,
			"componentType":5123,
			"count":561,
			"type":"SCALAR"
		},
		{
			"bufferView":3,
			"componentType":5126,
			"count":92,
			"max":[
				1,
				1.0181207656860352,
				0.10711736232042313
			],
			"min":[
				-1,
				-1.3711445331573486,
				-0.6693829894065857
			],
			"type":"VEC3"
		},
		{
			"bufferView":4,
			"componentType":5126,
			"count":92,
			"type":"VEC3"
		},
		{
			"bufferView":5,
			"componentType":5123,
			"count":120,
			"type":"SCALAR"
		}
	],
	"bufferViews":[
		{
			"buffer":0,
			"byteLength":4500,
			"byteOffset":0,
			"target":34962
		},
		{
			"buffer":0,
			"byteLength":4500,
			"byteOffset":4500,
			"target":34962
		},
		{
			"buffer":0,
			"byteLength":1122,
			"byteOffset":9000,
			"target":34963
		},
		{
			"buffer":0,
			"byteLength":1104,
			"byteOffset":10124,
			"target":34962
		},
		{
			"buffer":0,
			"byteLength":1104,
			"byteOffset":11228,
			"target":34962
		},
		{
			"buffer":0,
			"byteLength":240,
			"byteOffset":12332,
			"target":34963
		}
	],
	"buffers":[
		{
			"byteLength":12572,
			"uri":"Floor_Hole_Straight-e1d67402b679ab79046a81fe60f2864b.bin"
		}
	]
}
