{
	"asset":{
		"generator":"Khronos glTF Blender I/O v5.1.18",
		"version":"2.0"
	},
	"scene":0,
	"scenes":[
		{
			"name":"Scene",
			"nodes":[
				0
			]
		}
	],
	"nodes":[
		{
			"mesh":0,
			"name":"Floor_Standard_Half",
			"scale":[
				1,
				0.05973000079393387,
				1
			]
		}
	],
	"materials":[
		{
			"doubleSided":true,
			"name":"Main",
			"pbrMetallicRoughness":{
				"baseColorFactor":[
					0.15896087884902954,
					0.16202940046787262,
					0.1247718334197998,
					1
				],
				"metallicFactor":0,
				"roughnessFactor":0.5
			}
		},
		{
			"doubleSided":true,
			"name":"Highlights",
			"pbrMetallicRoughness":{
				"baseColorFactor":[
					0.289932519197464,
					0.29568690061569214,
					0.22595453262329102,
					1
				],
				"metallicFactor":0,
				"roughnessFactor":0.5
			}
		}
	],
	"meshes":[
		{
			"name":"Cube.041",
			"primitives":[
				{
					"attributes":{
						"POSITION":0,
						"NORMAL":1
					},
					"indices":2,
					"material":0
				},
				{
					"attributes":{
						"POSITION":3,
						"NORMAL":4
					},
					"indices":5,
					"material":1
				}
			]
		}
	],
	"accessors":[
		{
			"bufferView":0,
			"componentType":5126,
			"count":1444,
			"max":[
				1.0010757446289062,
				0.5719654560089111,
				1.0051950216293335
			],
			"min":[
				-0.9950747489929199,
				-1.3739961385726929,
				-0.9934678077697754
			],
			"type":"VEC3"
		},
		{
			"bufferView":1,
			"componentType":5126,
			"count":1444,
			"type":"VEC3"
		},
		{
			"bufferView":2,
			"componentType":5123,
			"count":2262,
			"type":"SCALAR"
		},
		{
			"bufferView":3,
			"componentType":5126,
			"count":161,
			"max":[
				0.9949226379394531,
				0.43523669242858887,
				0.9943588972091675
			],
			"min":[
				-0.9898975491523743,
				-1.3739961385726929,
				-0.9907033443450928
			],
			"type":"VEC3"
		},
		{
			"bufferView":4,
			"componentType":5126,
			"count":161,
			"type":"VEC3"
		},
		{
			"bufferView":5,
			"componentType":5123,
			"count":201,
			"type":"SCALAR"
		}
	],
	"bufferViews":[
		{
			"buffer":0,
			"byteLength":17328,
			"byteOffset":0,
			"target":34962
		},
		{
			"buffer":0,
			"byteLength":17328,
			"byteOffset":17328,
			"target":34962
		},
		{
			"buffer":0,
			"byteLength":4524,
			"byteOffset":34656,
			"target":34963
		},
		{
			"buffer":0,
			"byteLength":1932,
			"byteOffset":39180,
			"target":34962
		},
		{
			"buffer":0,
			"byteLength":1932,
			"byteOffset":41112,
			"target":34962
		},
		{
			"buffer":0,
			"byteLength":402,
			"byteOffset":43044,
			"target":34963
		}
	],
	"buffers":[
		{
			"byteLength":43448,
			"uri":"Floor_Standard_Half-a28387c1fa443c086defb3f5659b9f8e.bin"
		}
	]
}
