{
	"asset":{
		"generator":"Khronos glTF Blender I/O v5.1.18",
		"version":"2.0"
	},
	"scene":0,
	"scenes":[
		{
			"name":"Scene",
			"nodes":[
				0
			]
		}
	],
	"nodes":[
		{
			"mesh":0,
			"name":"Floor_Standard",
			"rotation":[
				1,
				0,
				0,
				1.6292068494294654e-07
			],
			"scale":[
				1,
				0.05973000079393387,
				1
			]
		}
	],
	"materials":[
		{
			"doubleSided":true,
			"name":"Main",
			"pbrMetallicRoughness":{
				"baseColorFactor":[
					0.15896087884902954,
					0.16202940046787262,
					0.1247718334197998,
					1
				],
				"metallicFactor":0,
				"roughnessFactor":0.5
			}
		},
		{
			"doubleSided":true,
			"name":"Highlights",
			"pbrMetallicRoughness":{
				"baseColorFactor":[
					0.289932519197464,
					0.29568690061569214,
					0.22595453262329102,
					1
				],
				"metallicFactor":0,
				"roughnessFactor":0.5
			}
		}
	],
	"meshes":[
		{
			"name":"Cube.044",
			"primitives":[
				{
					"attributes":{
						"POSITION":0,
						"NORMAL":1
					},
					"indices":2,
					"material":0
				},
				{
					"attributes":{
						"POSITION":3,
						"NORMAL":4
					},
					"indices":5,
					"material":1
				}
			]
		}
	],
	"accessors":[
		{
			"bufferView":0,
			"componentType":5126,
			"count":2280,
			"max":[
				0.9970556497573853,
				4.234889030456543,
				0.9891207218170166
			],
			"min":[
				-0.9933503866195679,
				-0.5523730516433716,
				-0.9874372482299805
			],
			"type":"VEC3"
		},
		{
			"bufferView":1,
			"componentType":5126,
			"count":2280,
			"type":"VEC3"
		},
		{
			"bufferView":2,
			"componentType":5123,
			"count":3648,
			"type":"SCALAR"
		},
		{
			"bufferView":3,
			"componentType":5126,
			"count":184,
			"max":[
				0.9810592532157898,
				4.098160266876221,
				0.7012594938278198
			],
			"min":[
				-0.9204298257827759,
				-0.4156443178653717,
				-0.704578161239624
			],
			"type":"VEC3"
		},
		{
			"bufferView":4,
			"componentType":5126,
			"count":184,
			"type":"VEC3"
		},
		{
			"bufferView":5,
			"componentType":5123,
			"count":264,
			"type":"SCALAR"
		}
	],
	"bufferViews":[
		{
			"buffer":0,
			"byteLength":27360,
			"byteOffset":0,
			"target":34962
		},
		{
			"buffer":0,
			"byteLength":27360,
			"byteOffset":27360,
			"target":34962
		},
		{
			"buffer":0,
			"byteLength":7296,
			"byteOffset":54720,
			"target":34963
		},
		{
			"buffer":0,
			"byteLength":2208,
			"byteOffset":62016,
			"target":34962
		},
		{
			"buffer":0,
			"byteLength":2208,
			"byteOffset":64224,
			"target":34962
		},
		{
			"buffer":0,
			"byteLength":528,
			"byteOffset":66432,
			"target":34963
		}
	],
	"buffers":[
		{
			"byteLength":66960,
			"uri":"Floor_Standard-167e4669a0ac3b6db9b2fe1ca8a11580.bin"
		}
	]
}
