{
	"asset":{
		"generator":"Khronos glTF Blender I/O v5.1.18",
		"version":"2.0"
	},
	"scene":0,
	"scenes":[
		{
			"name":"Scene",
			"nodes":[
				0
			]
		}
	],
	"nodes":[
		{
			"mesh":0,
			"name":"Floor_Diamond",
			"scale":[
				1,
				0.05973000079393387,
				1
			]
		}
	],
	"materials":[
		{
			"doubleSided":true,
			"name":"Main",
			"pbrMetallicRoughness":{
				"baseColorFactor":[
					0.15896087884902954,
					0.16202940046787262,
					0.1247718334197998,
					1
				],
				"metallicFactor":0,
				"roughnessFactor":0.5
			}
		},
		{
			"doubleSided":true,
			"name":"Highlights",
			"pbrMetallicRoughness":{
				"baseColorFactor":[
					0.289932519197464,
					0.29568690061569214,
					0.22595453262329102,
					1
				],
				"metallicFactor":0,
				"roughnessFactor":0.5
			}
		}
	],
	"meshes":[
		{
			"name":"Cube.048",
			"primitives":[
				{
					"attributes":{
						"POSITION":0,
						"NORMAL":1
					},
					"indices":2,
					"material":0
				},
				{
					"attributes":{
						"POSITION":3,
						"NORMAL":4
					},
					"indices":5,
					"material":1
				}
			]
		}
	],
	"accessors":[
		{
			"bufferView":0,
			"componentType":5126,
			"count":764,
			"max":[
				1,
				0.27371615171432495,
				1
			],
			"min":[
				-1,
				-1.7066433429718018,
				-1
			],
			"type":"VEC3"
		},
		{
			"bufferView":1,
			"componentType":5126,
			"count":764,
			"type":"VEC3"
		},
		{
			"bufferView":2,
			"componentType":5123,
			"count":1143,
			"type":"SCALAR"
		},
		{
			"bufferView":3,
			"componentType":5126,
			"count":55,
			"max":[
				0.989617109298706,
				0.03517383337020874,
				0.6452171802520752
			],
			"min":[
				-0.9896170496940613,
				-1.6664782762527466,
				-0.6693830490112305
			],
			"type":"VEC3"
		},
		{
			"bufferView":4,
			"componentType":5126,
			"count":55,
			"type":"VEC3"
		},
		{
			"bufferView":5,
			"componentType":5123,
			"count":57,
			"type":"SCALAR"
		}
	],
	"bufferViews":[
		{
			"buffer":0,
			"byteLength":9168,
			"byteOffset":0,
			"target":34962
		},
		{
			"buffer":0,
			"byteLength":9168,
			"byteOffset":9168,
			"target":34962
		},
		{
			"buffer":0,
			"byteLength":2286,
			"byteOffset":18336,
			"target":34963
		},
		{
			"buffer":0,
			"byteLength":660,
			"byteOffset":20624,
			"target":34962
		},
		{
			"buffer":0,
			"byteLength":660,
			"byteOffset":21284,
			"target":34962
		},
		{
			"buffer":0,
			"byteLength":114,
			"byteOffset":21944,
			"target":34963
		}
	],
	"buffers":[
		{
			"byteLength":22060,
			"uri":"Floor_Diamond-13b55baafd0f764cc448161191a94567.bin"
		}
	]
}
