{
	"asset":{
		"generator":"Khronos glTF Blender I/O v5.1.18",
		"version":"2.0"
	},
	"scene":0,
	"scenes":[
		{
			"name":"Scene",
			"nodes":[
				0
			]
		}
	],
	"nodes":[
		{
			"mesh":0,
			"name":"Floor_Tree",
			"scale":[
				1,
				0.05973000079393387,
				1
			]
		}
	],
	"materials":[
		{
			"doubleSided":true,
			"name":"Main",
			"pbrMetallicRoughness":{
				"baseColorFactor":[
					0.15896087884902954,
					0.16202940046787262,
					0.1247718334197998,
					1
				],
				"metallicFactor":0,
				"roughnessFactor":0.5
			}
		},
		{
			"doubleSided":true,
			"name":"Highlights",
			"pbrMetallicRoughness":{
				"baseColorFactor":[
					0.289932519197464,
					0.29568690061569214,
					0.22595453262329102,
					1
				],
				"metallicFactor":0,
				"roughnessFactor":0.5
			}
		},
		{
			"doubleSided":true,
			"name":"Dirt",
			"pbrMetallicRoughness":{
				"baseColorFactor":[
					0.0746932104229927,
					0.12687918543815613,
					0.04346667230129242,
					1
				],
				"metallicFactor":0,
				"roughnessFactor":0.5
			}
		},
		{
			"doubleSided":true,
			"name":"Main2",
			"pbrMetallicRoughness":{
				"baseColorFactor":[
					0.22696588933467865,
					0.22696588933467865,
					0.16513220965862274,
					1
				],
				"metallicFactor":0,
				"roughnessFactor":0.5
			}
		}
	],
	"meshes":[
		{
			"name":"Cube.035",
			"primitives":[
				{
					"attributes":{
						"POSITION":0,
						"NORMAL":1
					},
					"indices":2,
					"material":0
				},
				{
					"attributes":{
						"POSITION":3,
						"NORMAL":4
					},
					"indices":5,
					"material":1
				},
				{
					"attributes":{
						"POSITION":6,
						"NORMAL":7
					},
					"indices":8,
					"material":2
				},
				{
					"attributes":{
						"POSITION":9,
						"NORMAL":10
					},
					"indices":11,
					"material":3
				}
			]
		}
	],
	"accessors":[
		{
			"bufferView":0,
			"componentType":5126,
			"count":579,
			"max":[
				0.9975067973136902,
				0.5690498352050781,
				0.9989132881164551
			],
			"min":[
				-0.994628369808197,
				-1.3711445331573486,
				-0.9966913461685181
			],
			"type":"VEC3"
		},
		{
			"bufferView":1,
			"componentType":5126,
			"count":579,
			"type":"VEC3"
		},
		{
			"bufferView":2,
			"componentType":5123,
			"count":867,
			"type":"SCALAR"
		},
		{
			"bufferView":3,
			"componentType":5126,
			"count":70,
			"max":[
				0.9896170496940613,
				0.3305075168609619,
				0.6452171802520752
			],
			"min":[
				-0.9915086030960083,
				-1.3711445331573486,
				-0.6693829894065857
			],
			"type":"VEC3"
		},
		{
			"bufferView":4,
			"componentType":5126,
			"count":70,
			"type":"VEC3"
		},
		{
			"bufferView":5,
			"componentType":5123,
			"count":72,
			"type":"SCALAR"
		},
		{
			"bufferView":6,
			"componentType":5126,
			"count":4,
			"max":[
				0.42850837111473083,
				0.6736299991607666,
				0.4122578203678131
			],
			"min":[
				-0.4148268401622772,
				0.6736299991607666,
				-0.4305742084980011
			],
			"type":"VEC3"
		},
		{
			"bufferView":7,
			"componentType":5126,
			"count":4,
			"type":"VEC3"
		},
		{
			"bufferView":8,
			"componentType":5123,
			"count":6,
			"type":"SCALAR"
		},
		{
			"bufferView":9,
			"componentType":5126,
			"count":44,
			"max":[
				0.5392267107963562,
				1.0879052877426147,
				0.5229101181030273
			],
			"min":[
				-0.5255451798439026,
				-1.3967021703720093,
				-0.5412265062332153
			],
			"type":"VEC3"
		},
		{
			"bufferView":10,
			"componentType":5126,
			"count":44,
			"type":"VEC3"
		},
		{
			"bufferView":11,
			"componentType":5123,
			"count":78,
			"type":"SCALAR"
		}
	],
	"bufferViews":[
		{
			"buffer":0,
			"byteLength":6948,
			"byteOffset":0,
			"target":34962
		},
		{
			"buffer":0,
			"byteLength":6948,
			"byteOffset":6948,
			"target":34962
		},
		{
			"buffer":0,
			"byteLength":1734,
			"byteOffset":13896,
			"target":34963
		},
		{
			"buffer":0,
			"byteLength":840,
			"byteOffset":15632,
			"target":34962
		},
		{
			"buffer":0,
			"byteLength":840,
			"byteOffset":16472,
			"target":34962
		},
		{
			"buffer":0,
			"byteLength":144,
			"byteOffset":17312,
			"target":34963
		},
		{
			"buffer":0,
			"byteLength":48,
			"byteOffset":17456,
			"target":34962
		},
		{
			"buffer":0,
			"byteLength":48,
			"byteOffset":17504,
			"target":34962
		},
		{
			"buffer":0,
			"byteLength":12,
			"byteOffset":17552,
			"target":34963
		},
		{
			"buffer":0,
			"byteLength":528,
			"byteOffset":17564,
			"target":34962
		},
		{
			"buffer":0,
			"byteLength":528,
			"byteOffset":18092,
			"target":34962
		},
		{
			"buffer":0,
			"byteLength":156,
			"byteOffset":18620,
			"target":34963
		}
	],
	"buffers":[
		{
			"byteLength":18776,
			"uri":"Floor_Tree-b74fef2b7fbce166a132f80b2029b4a3.bin"
		}
	]
}
