{
	"asset":{
		"generator":"Khronos glTF Blender I/O v5.1.18",
		"version":"2.0"
	},
	"scene":0,
	"scenes":[
		{
			"name":"Scene",
			"nodes":[
				0
			]
		}
	],
	"nodes":[
		{
			"mesh":0,
			"name":"Pot1"
		}
	],
	"materials":[
		{
			"doubleSided":true,
			"name":"Pot_Main",
			"pbrMetallicRoughness":{
				"baseColorFactor":[
					0.3626789152622223,
					0.2465943545103073,
					0.10028184950351715,
					1
				],
				"metallicFactor":0,
				"roughnessFactor":0.5
			}
		},
		{
			"doubleSided":true,
			"name":"Pot_Detail",
			"pbrMetallicRoughness":{
				"baseColorFactor":[
					0.4385388493537903,
					0.09992167353630066,
					0.058856524527072906,
					1
				],
				"metallicFactor":0,
				"roughnessFactor":0.5
			}
		}
	],
	"meshes":[
		{
			"name":"Cube.103",
			"primitives":[
				{
					"attributes":{
						"POSITION":0,
						"NORMAL":1
					},
					"indices":2,
					"material":0
				},
				{
					"attributes":{
						"POSITION":3,
						"NORMAL":4
					},
					"indices":5,
					"material":1
				}
			]
		}
	],
	"accessors":[
		{
			"bufferView":0,
			"componentType":5126,
			"count":874,
			"max":[
				0.3842211961746216,
				0.9555917382240295,
				0.38413205742836
			],
			"min":[
				-0.3842211961746216,
				-0.006081308238208294,
				-0.38413205742836
			],
			"type":"VEC3"
		},
		{
			"bufferView":1,
			"componentType":5126,
			"count":874,
			"type":"VEC3"
		},
		{
			"bufferView":2,
			"componentType":5123,
			"count":2922,
			"type":"SCALAR"
		},
		{
			"bufferView":3,
			"componentType":5126,
			"count":72,
			"max":[
				0.3505534529685974,
				0.578960657119751,
				0.3497985005378723
			],
			"min":[
				-0.3505534529685974,
				0.38728901743888855,
				-0.3497985005378723
			],
			"type":"VEC3"
		},
		{
			"bufferView":4,
			"componentType":5126,
			"count":72,
			"type":"VEC3"
		},
		{
			"bufferView":5,
			"componentType":5123,
			"count":192,
			"type":"SCALAR"
		}
	],
	"bufferViews":[
		{
			"buffer":0,
			"byteLength":10488,
			"byteOffset":0,
			"target":34962
		},
		{
			"buffer":0,
			"byteLength":10488,
			"byteOffset":10488,
			"target":34962
		},
		{
			"buffer":0,
			"byteLength":5844,
			"byteOffset":20976,
			"target":34963
		},
		{
			"buffer":0,
			"byteLength":864,
			"byteOffset":26820,
			"target":34962
		},
		{
			"buffer":0,
			"byteLength":864,
			"byteOffset":27684,
			"target":34962
		},
		{
			"buffer":0,
			"byteLength":384,
			"byteOffset":28548,
			"target":34963
		}
	],
	"buffers":[
		{
			"byteLength":28932,
			"uri":"Pot1-5348e6a14fb786f579da9a330cf0ee4a.bin"
		}
	]
}
