{
	"asset":{
		"generator":"Khronos glTF Blender I/O v5.1.18",
		"version":"2.0"
	},
	"scene":0,
	"scenes":[
		{
			"name":"Scene",
			"nodes":[
				0
			]
		}
	],
	"nodes":[
		{
			"mesh":0,
			"name":"Pot1_Broken"
		}
	],
	"materials":[
		{
			"doubleSided":true,
			"name":"Pot_Main",
			"pbrMetallicRoughness":{
				"baseColorFactor":[
					0.3626789152622223,
					0.2465943545103073,
					0.10028184950351715,
					1
				],
				"metallicFactor":0,
				"roughnessFactor":0.5
			}
		},
		{
			"doubleSided":true,
			"name":"Pot_Detail",
			"pbrMetallicRoughness":{
				"baseColorFactor":[
					0.4385388493537903,
					0.09992167353630066,
					0.058856524527072906,
					1
				],
				"metallicFactor":0,
				"roughnessFactor":0.5
			}
		}
	],
	"meshes":[
		{
			"name":"Cube.108",
			"primitives":[
				{
					"attributes":{
						"POSITION":0,
						"NORMAL":1
					},
					"indices":2,
					"material":0
				},
				{
					"attributes":{
						"POSITION":3,
						"NORMAL":4
					},
					"indices":5,
					"material":1
				}
			]
		}
	],
	"accessors":[
		{
			"bufferView":0,
			"componentType":5126,
			"count":373,
			"max":[
				0.3842211961746216,
				0.6546732187271118,
				0.38413205742836
			],
			"min":[
				-0.3842211961746216,
				-0.006081308238208294,
				-0.38413205742836
			],
			"type":"VEC3"
		},
		{
			"bufferView":1,
			"componentType":5126,
			"count":373,
			"type":"VEC3"
		},
		{
			"bufferView":2,
			"componentType":5123,
			"count":1176,
			"type":"SCALAR"
		},
		{
			"bufferView":3,
			"componentType":5126,
			"count":46,
			"max":[
				0.1364726424217224,
				0.578960657119751,
				0.3497985005378723
			],
			"min":[
				-0.3505534529685974,
				0.38728901743888855,
				-0.3497985005378723
			],
			"type":"VEC3"
		},
		{
			"bufferView":4,
			"componentType":5126,
			"count":46,
			"type":"VEC3"
		},
		{
			"bufferView":5,
			"componentType":5123,
			"count":120,
			"type":"SCALAR"
		}
	],
	"bufferViews":[
		{
			"buffer":0,
			"byteLength":4476,
			"byteOffset":0,
			"target":34962
		},
		{
			"buffer":0,
			"byteLength":4476,
			"byteOffset":4476,
			"target":34962
		},
		{
			"buffer":0,
			"byteLength":2352,
			"byteOffset":8952,
			"target":34963
		},
		{
			"buffer":0,
			"byteLength":552,
			"byteOffset":11304,
			"target":34962
		},
		{
			"buffer":0,
			"byteLength":552,
			"byteOffset":11856,
			"target":34962
		},
		{
			"buffer":0,
			"byteLength":240,
			"byteOffset":12408,
			"target":34963
		}
	],
	"buffers":[
		{
			"byteLength":12648,
			"uri":"Pot1_Broken-7cd44461ffd64c2f932a4481dbe977d7.bin"
		}
	]
}
