{
	"asset":{
		"generator":"Khronos glTF Blender I/O v5.1.18",
		"version":"2.0"
	},
	"scene":0,
	"scenes":[
		{
			"name":"Scene",
			"nodes":[
				0
			]
		}
	],
	"nodes":[
		{
			"mesh":0,
			"name":"Pot2_Broken"
		}
	],
	"materials":[
		{
			"doubleSided":true,
			"name":"Pot_Main",
			"pbrMetallicRoughness":{
				"baseColorFactor":[
					0.3626789152622223,
					0.2465943545103073,
					0.10028184950351715,
					1
				],
				"metallicFactor":0,
				"roughnessFactor":0.5
			}
		},
		{
			"doubleSided":true,
			"name":"Pot_Detail",
			"pbrMetallicRoughness":{
				"baseColorFactor":[
					0.4385388493537903,
					0.09992167353630066,
					0.058856524527072906,
					1
				],
				"metallicFactor":0,
				"roughnessFactor":0.5
			}
		}
	],
	"meshes":[
		{
			"name":"Cube.109",
			"primitives":[
				{
					"attributes":{
						"POSITION":0,
						"NORMAL":1
					},
					"indices":2,
					"material":0
				},
				{
					"attributes":{
						"POSITION":3,
						"NORMAL":4
					},
					"indices":5,
					"material":1
				}
			]
		}
	],
	"accessors":[
		{
			"bufferView":0,
			"componentType":5126,
			"count":282,
			"max":[
				0.2308746874332428,
				0.4267352819442749,
				0.2308211326599121
			],
			"min":[
				-0.2308746874332428,
				-0.0019381017191335559,
				-0.2308211326599121
			],
			"type":"VEC3"
		},
		{
			"bufferView":1,
			"componentType":5126,
			"count":282,
			"type":"VEC3"
		},
		{
			"bufferView":2,
			"componentType":5123,
			"count":906,
			"type":"SCALAR"
		},
		{
			"bufferView":3,
			"componentType":5126,
			"count":22,
			"max":[
				0.21541912853717804,
				0.3663308620452881,
				0.21498291194438934
			],
			"min":[
				-0.0840238407254219,
				0.21338680386543274,
				-0.21498291194438934
			],
			"type":"VEC3"
		},
		{
			"bufferView":4,
			"componentType":5126,
			"count":22,
			"type":"VEC3"
		},
		{
			"bufferView":5,
			"componentType":5123,
			"count":60,
			"type":"SCALAR"
		}
	],
	"bufferViews":[
		{
			"buffer":0,
			"byteLength":3384,
			"byteOffset":0,
			"target":34962
		},
		{
			"buffer":0,
			"byteLength":3384,
			"byteOffset":3384,
			"target":34962
		},
		{
			"buffer":0,
			"byteLength":1812,
			"byteOffset":6768,
			"target":34963
		},
		{
			"buffer":0,
			"byteLength":264,
			"byteOffset":8580,
			"target":34962
		},
		{
			"buffer":0,
			"byteLength":264,
			"byteOffset":8844,
			"target":34962
		},
		{
			"buffer":0,
			"byteLength":120,
			"byteOffset":9108,
			"target":34963
		}
	],
	"buffers":[
		{
			"byteLength":9228,
			"uri":"Pot2_Broken-4a0f199842a91b7d1c7480d46ca1442c.bin"
		}
	]
}
