{
	"asset":{
		"generator":"Khronos glTF Blender I/O v5.1.18",
		"version":"2.0"
	},
	"scene":0,
	"scenes":[
		{
			"name":"Scene",
			"nodes":[
				0
			]
		}
	],
	"nodes":[
		{
			"mesh":0,
			"name":"Pot2"
		}
	],
	"materials":[
		{
			"doubleSided":true,
			"name":"Pot_Main",
			"pbrMetallicRoughness":{
				"baseColorFactor":[
					0.3626789152622223,
					0.2465943545103073,
					0.10028184950351715,
					1
				],
				"metallicFactor":0,
				"roughnessFactor":0.5
			}
		},
		{
			"doubleSided":true,
			"name":"Pot_Detail",
			"pbrMetallicRoughness":{
				"baseColorFactor":[
					0.4385388493537903,
					0.09992167353630066,
					0.058856524527072906,
					1
				],
				"metallicFactor":0,
				"roughnessFactor":0.5
			}
		}
	],
	"meshes":[
		{
			"name":"Cube.101",
			"primitives":[
				{
					"attributes":{
						"POSITION":0,
						"NORMAL":1
					},
					"indices":2,
					"material":0
				},
				{
					"attributes":{
						"POSITION":3,
						"NORMAL":4
					},
					"indices":5,
					"material":1
				}
			]
		}
	],
	"accessors":[
		{
			"bufferView":0,
			"componentType":5126,
			"count":734,
			"max":[
				0.23167188465595245,
				0.6368939280509949,
				0.23167188465595245
			],
			"min":[
				-0.23167188465595245,
				-0.0003777969104703516,
				-0.23167188465595245
			],
			"type":"VEC3"
		},
		{
			"bufferView":1,
			"componentType":5126,
			"count":734,
			"type":"VEC3"
		},
		{
			"bufferView":2,
			"componentType":5123,
			"count":2538,
			"type":"SCALAR"
		},
		{
			"bufferView":3,
			"componentType":5126,
			"count":36,
			"max":[
				0.21126824617385864,
				0.3473978340625763,
				0.21100422739982605
			],
			"min":[
				-0.21126824617385864,
				0.224898099899292,
				-0.21100422739982605
			],
			"type":"VEC3"
		},
		{
			"bufferView":4,
			"componentType":5126,
			"count":36,
			"type":"VEC3"
		},
		{
			"bufferView":5,
			"componentType":5123,
			"count":96,
			"type":"SCALAR"
		}
	],
	"bufferViews":[
		{
			"buffer":0,
			"byteLength":8808,
			"byteOffset":0,
			"target":34962
		},
		{
			"buffer":0,
			"byteLength":8808,
			"byteOffset":8808,
			"target":34962
		},
		{
			"buffer":0,
			"byteLength":5076,
			"byteOffset":17616,
			"target":34963
		},
		{
			"buffer":0,
			"byteLength":432,
			"byteOffset":22692,
			"target":34962
		},
		{
			"buffer":0,
			"byteLength":432,
			"byteOffset":23124,
			"target":34962
		},
		{
			"buffer":0,
			"byteLength":192,
			"byteOffset":23556,
			"target":34963
		}
	],
	"buffers":[
		{
			"byteLength":23748,
			"uri":"Pot2-04f3ac6384a5a0a5caea00f610b8cb65.bin"
		}
	]
}
