{
	"asset":{
		"generator":"Khronos glTF Blender I/O v5.1.18",
		"version":"2.0"
	},
	"scene":0,
	"scenes":[
		{
			"name":"Scene",
			"nodes":[
				0
			]
		}
	],
	"nodes":[
		{
			"mesh":0,
			"name":"Pot3"
		}
	],
	"materials":[
		{
			"doubleSided":true,
			"name":"Pot_Main",
			"pbrMetallicRoughness":{
				"baseColorFactor":[
					0.3626789152622223,
					0.2465943545103073,
					0.10028184950351715,
					1
				],
				"metallicFactor":0,
				"roughnessFactor":0.5
			}
		},
		{
			"doubleSided":true,
			"name":"Pot_Detail",
			"pbrMetallicRoughness":{
				"baseColorFactor":[
					0.4385388493537903,
					0.09992167353630066,
					0.058856524527072906,
					1
				],
				"metallicFactor":0,
				"roughnessFactor":0.5
			}
		}
	],
	"meshes":[
		{
			"name":"Cube.104",
			"primitives":[
				{
					"attributes":{
						"POSITION":0,
						"NORMAL":1
					},
					"indices":2,
					"material":0
				},
				{
					"attributes":{
						"POSITION":3,
						"NORMAL":4
					},
					"indices":5,
					"material":1
				}
			]
		}
	],
	"accessors":[
		{
			"bufferView":0,
			"componentType":5126,
			"count":624,
			"max":[
				0.23167188465595245,
				0.8349438309669495,
				0.23167188465595245
			],
			"min":[
				-0.23167188465595245,
				-0.0003777969104703516,
				-0.23167188465595245
			],
			"type":"VEC3"
		},
		{
			"bufferView":1,
			"componentType":5126,
			"count":624,
			"type":"VEC3"
		},
		{
			"bufferView":2,
			"componentType":5123,
			"count":2154,
			"type":"SCALAR"
		},
		{
			"bufferView":3,
			"componentType":5126,
			"count":32,
			"max":[
				0.18101593852043152,
				0.6341180801391602,
				0.18078972399234772
			],
			"min":[
				-0.18101593852043152,
				0.5286708474159241,
				-0.18078972399234772
			],
			"type":"VEC3"
		},
		{
			"bufferView":4,
			"componentType":5126,
			"count":32,
			"type":"VEC3"
		},
		{
			"bufferView":5,
			"componentType":5123,
			"count":96,
			"type":"SCALAR"
		}
	],
	"bufferViews":[
		{
			"buffer":0,
			"byteLength":7488,
			"byteOffset":0,
			"target":34962
		},
		{
			"buffer":0,
			"byteLength":7488,
			"byteOffset":7488,
			"target":34962
		},
		{
			"buffer":0,
			"byteLength":4308,
			"byteOffset":14976,
			"target":34963
		},
		{
			"buffer":0,
			"byteLength":384,
			"byteOffset":19284,
			"target":34962
		},
		{
			"buffer":0,
			"byteLength":384,
			"byteOffset":19668,
			"target":34962
		},
		{
			"buffer":0,
			"byteLength":192,
			"byteOffset":20052,
			"target":34963
		}
	],
	"buffers":[
		{
			"byteLength":20244,
			"uri":"Pot3-e71a3979321d3ea367476b5a326c0628.bin"
		}
	]
}
