{
	"asset":{
		"generator":"Khronos glTF Blender I/O v5.1.18",
		"version":"2.0"
	},
	"scene":0,
	"scenes":[
		{
			"name":"Scene",
			"nodes":[
				0
			]
		}
	],
	"nodes":[
		{
			"mesh":0,
			"name":"Pot3_Broken"
		}
	],
	"materials":[
		{
			"doubleSided":true,
			"name":"Pot_Main",
			"pbrMetallicRoughness":{
				"baseColorFactor":[
					0.3626789152622223,
					0.2465943545103073,
					0.10028184950351715,
					1
				],
				"metallicFactor":0,
				"roughnessFactor":0.5
			}
		}
	],
	"meshes":[
		{
			"name":"Cube.110",
			"primitives":[
				{
					"attributes":{
						"POSITION":0,
						"NORMAL":1
					},
					"indices":2,
					"material":0
				}
			]
		}
	],
	"accessors":[
		{
			"bufferView":0,
			"componentType":5126,
			"count":206,
			"max":[
				0.23167188465595245,
				0.3267585039138794,
				0.23167188465595245
			],
			"min":[
				-0.23167188465595245,
				-0.0003777969104703516,
				-0.23167188465595245
			],
			"type":"VEC3"
		},
		{
			"bufferView":1,
			"componentType":5126,
			"count":206,
			"type":"VEC3"
		},
		{
			"bufferView":2,
			"componentType":5123,
			"count":564,
			"type":"SCALAR"
		}
	],
	"bufferViews":[
		{
			"buffer":0,
			"byteLength":2472,
			"byteOffset":0,
			"target":34962
		},
		{
			"buffer":0,
			"byteLength":2472,
			"byteOffset":2472,
			"target":34962
		},
		{
			"buffer":0,
			"byteLength":1128,
			"byteOffset":4944,
			"target":34963
		}
	],
	"buffers":[
		{
			"byteLength":6072,
			"uri":"Pot3_Broken-5b8638220f0f87677678f410df1cde14.bin"
		}
	]
}
