{
	"asset":{
		"generator":"Khronos glTF Blender I/O v5.1.18",
		"version":"2.0"
	},
	"scene":0,
	"scenes":[
		{
			"name":"Scene",
			"nodes":[
				0
			]
		}
	],
	"nodes":[
		{
			"mesh":0,
			"name":"Skull"
		}
	],
	"materials":[
		{
			"doubleSided":true,
			"name":"Bone",
			"pbrMetallicRoughness":{
				"baseColorFactor":[
					0.4441336691379547,
					0.3618254065513611,
					0.21889948844909668,
					1
				],
				"metallicFactor":0,
				"roughnessFactor":0.5
			}
		}
	],
	"meshes":[
		{
			"name":"Cylinder.043",
			"primitives":[
				{
					"attributes":{
						"POSITION":0,
						"NORMAL":1
					},
					"indices":2,
					"material":0
				}
			]
		}
	],
	"accessors":[
		{
			"bufferView":0,
			"componentType":5126,
			"count":395,
			"max":[
				0.22190093994140625,
				0.44743990898132324,
				0.28195425868034363
			],
			"min":[
				-0.22168336808681488,
				-0.0131806880235672,
				-0.31463709473609924
			],
			"type":"VEC3"
		},
		{
			"bufferView":1,
			"componentType":5126,
			"count":395,
			"type":"VEC3"
		},
		{
			"bufferView":2,
			"componentType":5123,
			"count":1278,
			"type":"SCALAR"
		}
	],
	"bufferViews":[
		{
			"buffer":0,
			"byteLength":4740,
			"byteOffset":0,
			"target":34962
		},
		{
			"buffer":0,
			"byteLength":4740,
			"byteOffset":4740,
			"target":34962
		},
		{
			"buffer":0,
			"byteLength":2556,
			"byteOffset":9480,
			"target":34963
		}
	],
	"buffers":[
		{
			"byteLength":12036,
			"uri":"Skull-776d2d7555cf59e1d85f66b5ef4889e3.bin"
		}
	]
}
