{
	"asset":{
		"generator":"Khronos glTF Blender I/O v5.1.18",
		"version":"2.0"
	},
	"scene":0,
	"scenes":[
		{
			"name":"Scene",
			"nodes":[
				0
			]
		}
	],
	"nodes":[
		{
			"mesh":0,
			"name":"Stairs"
		}
	],
	"materials":[
		{
			"doubleSided":true,
			"name":"Main",
			"pbrMetallicRoughness":{
				"baseColorFactor":[
					0.15896087884902954,
					0.16202940046787262,
					0.1247718334197998,
					1
				],
				"metallicFactor":0,
				"roughnessFactor":0.5
			}
		},
		{
			"doubleSided":true,
			"name":"Highlights",
			"pbrMetallicRoughness":{
				"baseColorFactor":[
					0.289932519197464,
					0.29568690061569214,
					0.22595453262329102,
					1
				],
				"metallicFactor":0,
				"roughnessFactor":0.5
			}
		}
	],
	"meshes":[
		{
			"name":"Cylinder.025",
			"primitives":[
				{
					"attributes":{
						"POSITION":0,
						"NORMAL":1
					},
					"indices":2,
					"material":0
				},
				{
					"attributes":{
						"POSITION":3,
						"NORMAL":4
					},
					"indices":5,
					"material":1
				}
			]
		}
	],
	"accessors":[
		{
			"bufferView":0,
			"componentType":5126,
			"count":3785,
			"max":[
				1.0104655027389526,
				0.9028695225715637,
				1.0750442743301392
			],
			"min":[
				-1.004916787147522,
				-0.018902640789747238,
				-1.076859712600708
			],
			"type":"VEC3"
		},
		{
			"bufferView":1,
			"componentType":5126,
			"count":3785,
			"type":"VEC3"
		},
		{
			"bufferView":2,
			"componentType":5123,
			"count":6456,
			"type":"SCALAR"
		},
		{
			"bufferView":3,
			"componentType":5126,
			"count":336,
			"max":[
				1.0099536180496216,
				0.9028695225715637,
				1.062791347503662
			],
			"min":[
				-0.9995072484016418,
				-0.012327784672379494,
				-1.0598232746124268
			],
			"type":"VEC3"
		},
		{
			"bufferView":4,
			"componentType":5126,
			"count":336,
			"type":"VEC3"
		},
		{
			"bufferView":5,
			"componentType":5123,
			"count":360,
			"type":"SCALAR"
		}
	],
	"bufferViews":[
		{
			"buffer":0,
			"byteLength":45420,
			"byteOffset":0,
			"target":34962
		},
		{
			"buffer":0,
			"byteLength":45420,
			"byteOffset":45420,
			"target":34962
		},
		{
			"buffer":0,
			"byteLength":12912,
			"byteOffset":90840,
			"target":34963
		},
		{
			"buffer":0,
			"byteLength":4032,
			"byteOffset":103752,
			"target":34962
		},
		{
			"buffer":0,
			"byteLength":4032,
			"byteOffset":107784,
			"target":34962
		},
		{
			"buffer":0,
			"byteLength":720,
			"byteOffset":111816,
			"target":34963
		}
	],
	"buffers":[
		{
			"byteLength":112536,
			"uri":"Stairs-94a5e837b092a5f0cbd9dac12f22aef9.bin"
		}
	]
}
