{
	"asset":{
		"generator":"Khronos glTF Blender I/O v5.1.18",
		"version":"2.0"
	},
	"scene":0,
	"scenes":[
		{
			"name":"Scene",
			"nodes":[
				0
			]
		}
	],
	"nodes":[
		{
			"mesh":0,
			"name":"Statue_Fox"
		}
	],
	"materials":[
		{
			"doubleSided":true,
			"name":"Stone",
			"pbrMetallicRoughness":{
				"baseColorFactor":[
					0.1498711258172989,
					0.1498711258172989,
					0.1498711258172989,
					1
				],
				"metallicFactor":0,
				"roughnessFactor":0.5
			}
		}
	],
	"meshes":[
		{
			"name":"Cylinder.036",
			"primitives":[
				{
					"attributes":{
						"POSITION":0,
						"NORMAL":1
					},
					"indices":2,
					"material":0
				}
			]
		}
	],
	"accessors":[
		{
			"bufferView":0,
			"componentType":5126,
			"count":2132,
			"max":[
				0.7540774941444397,
				3.752453565597534,
				0.7764104008674622
			],
			"min":[
				-0.596571147441864,
				0,
				-0.9021936058998108
			],
			"type":"VEC3"
		},
		{
			"bufferView":1,
			"componentType":5126,
			"count":2132,
			"type":"VEC3"
		},
		{
			"bufferView":2,
			"componentType":5123,
			"count":6456,
			"type":"SCALAR"
		}
	],
	"bufferViews":[
		{
			"buffer":0,
			"byteLength":25584,
			"byteOffset":0,
			"target":34962
		},
		{
			"buffer":0,
			"byteLength":25584,
			"byteOffset":25584,
			"target":34962
		},
		{
			"buffer":0,
			"byteLength":12912,
			"byteOffset":51168,
			"target":34963
		}
	],
	"buffers":[
		{
			"byteLength":64080,
			"uri":"Statue_Fox-6d0260208f30dc2c7952f118130b593d.bin"
		}
	]
}
