{
	"asset":{
		"generator":"Khronos glTF Blender I/O v5.1.18",
		"version":"2.0"
	},
	"scene":0,
	"scenes":[
		{
			"name":"Scene",
			"nodes":[
				0
			]
		}
	],
	"nodes":[
		{
			"mesh":0,
			"name":"Statue_Stag"
		}
	],
	"materials":[
		{
			"doubleSided":true,
			"name":"Stone",
			"pbrMetallicRoughness":{
				"baseColorFactor":[
					0.1498711258172989,
					0.1498711258172989,
					0.1498711258172989,
					1
				],
				"metallicFactor":0,
				"roughnessFactor":0.5
			}
		}
	],
	"meshes":[
		{
			"name":"Cylinder.029",
			"primitives":[
				{
					"attributes":{
						"POSITION":0,
						"NORMAL":1
					},
					"indices":2,
					"material":0
				}
			]
		}
	],
	"accessors":[
		{
			"bufferView":0,
			"componentType":5126,
			"count":4164,
			"max":[
				0.596571147441864,
				4.633613109588623,
				0.6689291000366211
			],
			"min":[
				-1.7100281715393066,
				0,
				-0.6029173731803894
			],
			"type":"VEC3"
		},
		{
			"bufferView":1,
			"componentType":5126,
			"count":4164,
			"type":"VEC3"
		},
		{
			"bufferView":2,
			"componentType":5123,
			"count":12126,
			"type":"SCALAR"
		}
	],
	"bufferViews":[
		{
			"buffer":0,
			"byteLength":49968,
			"byteOffset":0,
			"target":34962
		},
		{
			"buffer":0,
			"byteLength":49968,
			"byteOffset":49968,
			"target":34962
		},
		{
			"buffer":0,
			"byteLength":24252,
			"byteOffset":99936,
			"target":34963
		}
	],
	"buffers":[
		{
			"byteLength":124188,
			"uri":"Statue_Stag-f566c36349476459fadeb67a5f55663a.bin"
		}
	]
}
