{
	"asset":{
		"generator":"Khronos glTF Blender I/O v5.1.18",
		"version":"2.0"
	},
	"scene":0,
	"scenes":[
		{
			"name":"Scene",
			"nodes":[
				0
			]
		}
	],
	"nodes":[
		{
			"mesh":0,
			"name":"Support_Left"
		}
	],
	"materials":[
		{
			"doubleSided":true,
			"name":"Main",
			"pbrMetallicRoughness":{
				"baseColorFactor":[
					0.15896087884902954,
					0.16202940046787262,
					0.1247718334197998,
					1
				],
				"metallicFactor":0,
				"roughnessFactor":0.5
			}
		},
		{
			"doubleSided":true,
			"name":"Black",
			"pbrMetallicRoughness":{
				"baseColorFactor":[
					0.04425261169672012,
					0.04425261169672012,
					0.04425261169672012,
					1
				],
				"metallicFactor":0,
				"roughnessFactor":0.5
			}
		},
		{
			"doubleSided":true,
			"name":"Highlights",
			"pbrMetallicRoughness":{
				"baseColorFactor":[
					0.289932519197464,
					0.29568690061569214,
					0.22595453262329102,
					1
				],
				"metallicFactor":0,
				"roughnessFactor":0.5
			}
		},
		{
			"doubleSided":true,
			"name":"Main2",
			"pbrMetallicRoughness":{
				"baseColorFactor":[
					0.22696588933467865,
					0.22696588933467865,
					0.16513220965862274,
					1
				],
				"metallicFactor":0,
				"roughnessFactor":0.5
			}
		}
	],
	"meshes":[
		{
			"name":"Cylinder.053",
			"primitives":[
				{
					"attributes":{
						"POSITION":0,
						"NORMAL":1
					},
					"indices":2,
					"material":0
				},
				{
					"attributes":{
						"POSITION":3,
						"NORMAL":4
					},
					"indices":5,
					"material":1
				},
				{
					"attributes":{
						"POSITION":6,
						"NORMAL":7
					},
					"indices":8,
					"material":2
				},
				{
					"attributes":{
						"POSITION":9,
						"NORMAL":10
					},
					"indices":11,
					"material":3
				}
			]
		}
	],
	"accessors":[
		{
			"bufferView":0,
			"componentType":5126,
			"count":5144,
			"max":[
				1.501825213432312,
				4.096127986907959,
				0.3294687271118164
			],
			"min":[
				-0.1434185802936554,
				-4.122748214285821e-05,
				-0.3294687271118164
			],
			"type":"VEC3"
		},
		{
			"bufferView":1,
			"componentType":5126,
			"count":5144,
			"type":"VEC3"
		},
		{
			"bufferView":2,
			"componentType":5123,
			"count":9105,
			"type":"SCALAR"
		},
		{
			"bufferView":3,
			"componentType":5126,
			"count":492,
			"max":[
				1.2514305114746094,
				3.559246778488159,
				0.3269108533859253
			],
			"min":[
				-0.13863292336463928,
				1.9299408197402954,
				-0.3269108533859253
			],
			"type":"VEC3"
		},
		{
			"bufferView":4,
			"componentType":5126,
			"count":492,
			"type":"VEC3"
		},
		{
			"bufferView":5,
			"componentType":5123,
			"count":780,
			"type":"SCALAR"
		},
		{
			"bufferView":6,
			"componentType":5126,
			"count":521,
			"max":[
				1.4999772310256958,
				4.096127986907959,
				0.3294687271118164
			],
			"min":[
				-0.1434185802936554,
				0.3536610007286072,
				-0.3294687271118164
			],
			"type":"VEC3"
		},
		{
			"bufferView":7,
			"componentType":5126,
			"count":521,
			"type":"VEC3"
		},
		{
			"bufferView":8,
			"componentType":5123,
			"count":579,
			"type":"SCALAR"
		},
		{
			"bufferView":9,
			"componentType":5126,
			"count":120,
			"max":[
				1.4999772310256958,
				3.9632391929626465,
				0.18871062994003296
			],
			"min":[
				4.5724610231445695e-07,
				1.9257317781448364,
				-0.1887107491493225
			],
			"type":"VEC3"
		},
		{
			"bufferView":10,
			"componentType":5126,
			"count":120,
			"type":"VEC3"
		},
		{
			"bufferView":11,
			"componentType":5123,
			"count":246,
			"type":"SCALAR"
		}
	],
	"bufferViews":[
		{
			"buffer":0,
			"byteLength":61728,
			"byteOffset":0,
			"target":34962
		},
		{
			"buffer":0,
			"byteLength":61728,
			"byteOffset":61728,
			"target":34962
		},
		{
			"buffer":0,
			"byteLength":18210,
			"byteOffset":123456,
			"target":34963
		},
		{
			"buffer":0,
			"byteLength":5904,
			"byteOffset":141668,
			"target":34962
		},
		{
			"buffer":0,
			"byteLength":5904,
			"byteOffset":147572,
			"target":34962
		},
		{
			"buffer":0,
			"byteLength":1560,
			"byteOffset":153476,
			"target":34963
		},
		{
			"buffer":0,
			"byteLength":6252,
			"byteOffset":155036,
			"target":34962
		},
		{
			"buffer":0,
			"byteLength":6252,
			"byteOffset":161288,
			"target":34962
		},
		{
			"buffer":0,
			"byteLength":1158,
			"byteOffset":167540,
			"target":34963
		},
		{
			"buffer":0,
			"byteLength":1440,
			"byteOffset":168700,
			"target":34962
		},
		{
			"buffer":0,
			"byteLength":1440,
			"byteOffset":170140,
			"target":34962
		},
		{
			"buffer":0,
			"byteLength":492,
			"byteOffset":171580,
			"target":34963
		}
	],
	"buffers":[
		{
			"byteLength":172072,
			"uri":"Support_Left-7f91173227c1f51d70539ebe4b2ec892.bin"
		}
	]
}
