{
	"asset":{
		"generator":"Khronos glTF Blender I/O v5.1.18",
		"version":"2.0"
	},
	"scene":0,
	"scenes":[
		{
			"name":"Scene",
			"nodes":[
				0
			]
		}
	],
	"nodes":[
		{
			"mesh":0,
			"name":"Support_Center"
		}
	],
	"materials":[
		{
			"doubleSided":true,
			"name":"Main",
			"pbrMetallicRoughness":{
				"baseColorFactor":[
					0.15896087884902954,
					0.16202940046787262,
					0.1247718334197998,
					1
				],
				"metallicFactor":0,
				"roughnessFactor":0.5
			}
		},
		{
			"doubleSided":true,
			"name":"Black",
			"pbrMetallicRoughness":{
				"baseColorFactor":[
					0.04425261169672012,
					0.04425261169672012,
					0.04425261169672012,
					1
				],
				"metallicFactor":0,
				"roughnessFactor":0.5
			}
		},
		{
			"doubleSided":true,
			"name":"Highlights",
			"pbrMetallicRoughness":{
				"baseColorFactor":[
					0.289932519197464,
					0.29568690061569214,
					0.22595453262329102,
					1
				],
				"metallicFactor":0,
				"roughnessFactor":0.5
			}
		},
		{
			"doubleSided":true,
			"name":"Main2",
			"pbrMetallicRoughness":{
				"baseColorFactor":[
					0.22696588933467865,
					0.22696588933467865,
					0.16513220965862274,
					1
				],
				"metallicFactor":0,
				"roughnessFactor":0.5
			}
		}
	],
	"meshes":[
		{
			"name":"Cylinder.048",
			"primitives":[
				{
					"attributes":{
						"POSITION":0,
						"NORMAL":1
					},
					"indices":2,
					"material":0
				},
				{
					"attributes":{
						"POSITION":3,
						"NORMAL":4
					},
					"indices":5,
					"material":1
				},
				{
					"attributes":{
						"POSITION":6,
						"NORMAL":7
					},
					"indices":8,
					"material":2
				},
				{
					"attributes":{
						"POSITION":9,
						"NORMAL":10
					},
					"indices":11,
					"material":3
				}
			]
		}
	],
	"accessors":[
		{
			"bufferView":0,
			"componentType":5126,
			"count":5949,
			"max":[
				1.500175952911377,
				4.109559535980225,
				0.3324747085571289
			],
			"min":[
				-1.5000227689743042,
				-8.736117161735072e-17,
				-0.3324747085571289
			],
			"type":"VEC3"
		},
		{
			"bufferView":1,
			"componentType":5126,
			"count":5949,
			"type":"VEC3"
		},
		{
			"bufferView":2,
			"componentType":5123,
			"count":10767,
			"type":"SCALAR"
		},
		{
			"bufferView":3,
			"componentType":5126,
			"count":972,
			"max":[
				1.2514305114746094,
				3.559246778488159,
				0.3299168348312378
			],
			"min":[
				-1.2514305114746094,
				1.9299408197402954,
				-0.3299168348312378
			],
			"type":"VEC3"
		},
		{
			"bufferView":4,
			"componentType":5126,
			"count":972,
			"type":"VEC3"
		},
		{
			"bufferView":5,
			"componentType":5123,
			"count":1536,
			"type":"SCALAR"
		},
		{
			"bufferView":6,
			"componentType":5126,
			"count":513,
			"max":[
				1.500175952911377,
				4.108111381530762,
				0.26837509870529175
			],
			"min":[
				-1.5000227689743042,
				0.3536610007286072,
				-0.26783624291419983
			],
			"type":"VEC3"
		},
		{
			"bufferView":7,
			"componentType":5126,
			"count":513,
			"type":"VEC3"
		},
		{
			"bufferView":8,
			"componentType":5123,
			"count":537,
			"type":"SCALAR"
		},
		{
			"bufferView":9,
			"componentType":5126,
			"count":196,
			"max":[
				1.500175952911377,
				3.9632391929626465,
				0.18871015310287476
			],
			"min":[
				-1.5000227689743042,
				1.9257317781448364,
				-0.18871109187602997
			],
			"type":"VEC3"
		},
		{
			"bufferView":10,
			"componentType":5126,
			"count":196,
			"type":"VEC3"
		},
		{
			"bufferView":11,
			"componentType":5123,
			"count":456,
			"type":"SCALAR"
		}
	],
	"bufferViews":[
		{
			"buffer":0,
			"byteLength":71388,
			"byteOffset":0,
			"target":34962
		},
		{
			"buffer":0,
			"byteLength":71388,
			"byteOffset":71388,
			"target":34962
		},
		{
			"buffer":0,
			"byteLength":21534,
			"byteOffset":142776,
			"target":34963
		},
		{
			"buffer":0,
			"byteLength":11664,
			"byteOffset":164312,
			"target":34962
		},
		{
			"buffer":0,
			"byteLength":11664,
			"byteOffset":175976,
			"target":34962
		},
		{
			"buffer":0,
			"byteLength":3072,
			"byteOffset":187640,
			"target":34963
		},
		{
			"buffer":0,
			"byteLength":6156,
			"byteOffset":190712,
			"target":34962
		},
		{
			"buffer":0,
			"byteLength":6156,
			"byteOffset":196868,
			"target":34962
		},
		{
			"buffer":0,
			"byteLength":1074,
			"byteOffset":203024,
			"target":34963
		},
		{
			"buffer":0,
			"byteLength":2352,
			"byteOffset":204100,
			"target":34962
		},
		{
			"buffer":0,
			"byteLength":2352,
			"byteOffset":206452,
			"target":34962
		},
		{
			"buffer":0,
			"byteLength":912,
			"byteOffset":208804,
			"target":34963
		}
	],
	"buffers":[
		{
			"byteLength":209716,
			"uri":"Support_Center-f6a20b63c1a8d0412279a46ca01afe34.bin"
		}
	]
}
