{
	"asset":{
		"generator":"Khronos glTF Blender I/O v5.1.18",
		"version":"2.0"
	},
	"scene":0,
	"scenes":[
		{
			"name":"Scene",
			"nodes":[
				0
			]
		}
	],
	"nodes":[
		{
			"mesh":0,
			"name":"Support_Tall",
			"scale":[
				1.332863211631775,
				1.332863211631775,
				1.332863211631775
			]
		}
	],
	"materials":[
		{
			"doubleSided":true,
			"name":"Main",
			"pbrMetallicRoughness":{
				"baseColorFactor":[
					0.15896087884902954,
					0.16202940046787262,
					0.1247718334197998,
					1
				],
				"metallicFactor":0,
				"roughnessFactor":0.5
			}
		},
		{
			"doubleSided":true,
			"name":"Highlights",
			"pbrMetallicRoughness":{
				"baseColorFactor":[
					0.289932519197464,
					0.29568690061569214,
					0.22595453262329102,
					1
				],
				"metallicFactor":0,
				"roughnessFactor":0.5
			}
		}
	],
	"meshes":[
		{
			"name":"Cylinder.012",
			"primitives":[
				{
					"attributes":{
						"POSITION":0,
						"NORMAL":1
					},
					"indices":2,
					"material":0
				},
				{
					"attributes":{
						"POSITION":3,
						"NORMAL":4
					},
					"indices":5,
					"material":1
				}
			]
		}
	],
	"accessors":[
		{
			"bufferView":0,
			"componentType":5126,
			"count":848,
			"max":[
				0.30179792642593384,
				3.0927257537841797,
				0.24549515545368195
			],
			"min":[
				-0.2947952151298523,
				-4.1993334889411926e-05,
				-0.24549515545368195
			],
			"type":"VEC3"
		},
		{
			"bufferView":1,
			"componentType":5126,
			"count":848,
			"type":"VEC3"
		},
		{
			"bufferView":2,
			"componentType":5123,
			"count":1956,
			"type":"SCALAR"
		},
		{
			"bufferView":3,
			"componentType":5126,
			"count":54,
			"max":[
				0.1329060196876526,
				3.0431129932403564,
				0.24549515545368195
			],
			"min":[
				-0.2947952151298523,
				0.35995906591415405,
				-0.24549515545368195
			],
			"type":"VEC3"
		},
		{
			"bufferView":4,
			"componentType":5126,
			"count":54,
			"type":"VEC3"
		},
		{
			"bufferView":5,
			"componentType":5123,
			"count":66,
			"type":"SCALAR"
		}
	],
	"bufferViews":[
		{
			"buffer":0,
			"byteLength":10176,
			"byteOffset":0,
			"target":34962
		},
		{
			"buffer":0,
			"byteLength":10176,
			"byteOffset":10176,
			"target":34962
		},
		{
			"buffer":0,
			"byteLength":3912,
			"byteOffset":20352,
			"target":34963
		},
		{
			"buffer":0,
			"byteLength":648,
			"byteOffset":24264,
			"target":34962
		},
		{
			"buffer":0,
			"byteLength":648,
			"byteOffset":24912,
			"target":34962
		},
		{
			"buffer":0,
			"byteLength":132,
			"byteOffset":25560,
			"target":34963
		}
	],
	"buffers":[
		{
			"byteLength":25692,
			"uri":"Support_Tall-4939236bbf207f94e2368ac379157bb4.bin"
		}
	]
}
