{
	"asset":{
		"generator":"Khronos glTF Blender I/O v5.1.18",
		"version":"2.0"
	},
	"scene":0,
	"scenes":[
		{
			"name":"Scene",
			"nodes":[
				0
			]
		}
	],
	"nodes":[
		{
			"mesh":0,
			"name":"Trapdoor"
		}
	],
	"materials":[
		{
			"doubleSided":true,
			"name":"Metal",
			"pbrMetallicRoughness":{
				"baseColorFactor":[
					0.09704122692346573,
					0.10234932601451874,
					0.11927313357591629,
					1
				],
				"metallicFactor":0,
				"roughnessFactor":0.5
			}
		},
		{
			"doubleSided":true,
			"name":"Wood",
			"pbrMetallicRoughness":{
				"baseColorFactor":[
					0.15292437374591827,
					0.10439527034759521,
					0.05163053795695305,
					1
				],
				"metallicFactor":0,
				"roughnessFactor":0.5
			}
		},
		{
			"doubleSided":true,
			"name":"DarkWood",
			"pbrMetallicRoughness":{
				"baseColorFactor":[
					0.08713703602552414,
					0.05797602981328964,
					0.02801351808011532,
					1
				],
				"metallicFactor":0,
				"roughnessFactor":0.5
			}
		},
		{
			"doubleSided":true,
			"name":"Black",
			"pbrMetallicRoughness":{
				"baseColorFactor":[
					0.04425261169672012,
					0.04425261169672012,
					0.04425261169672012,
					1
				],
				"metallicFactor":0,
				"roughnessFactor":0.5
			}
		}
	],
	"meshes":[
		{
			"name":"Cylinder.027",
			"primitives":[
				{
					"attributes":{
						"POSITION":0,
						"NORMAL":1
					},
					"indices":2,
					"material":0
				},
				{
					"attributes":{
						"POSITION":3,
						"NORMAL":4
					},
					"indices":5,
					"material":1
				},
				{
					"attributes":{
						"POSITION":6,
						"NORMAL":7
					},
					"indices":8,
					"material":2
				},
				{
					"attributes":{
						"POSITION":9,
						"NORMAL":10
					},
					"indices":11,
					"material":3
				}
			]
		}
	],
	"accessors":[
		{
			"bufferView":0,
			"componentType":5126,
			"count":476,
			"max":[
				0.5121055841445923,
				0.2096593976020813,
				0.4894733428955078
			],
			"min":[
				-0.5182511210441589,
				0.018985658884048462,
				-0.48799949884414673
			],
			"type":"VEC3"
		},
		{
			"bufferView":1,
			"componentType":5126,
			"count":476,
			"type":"VEC3"
		},
		{
			"bufferView":2,
			"componentType":5123,
			"count":696,
			"type":"SCALAR"
		},
		{
			"bufferView":3,
			"componentType":5126,
			"count":242,
			"max":[
				0.7134917974472046,
				0.1201338917016983,
				0.604873538017273
			],
			"min":[
				-0.7142571210861206,
				0.030309021472930908,
				-0.5890079140663147
			],
			"type":"VEC3"
		},
		{
			"bufferView":4,
			"componentType":5126,
			"count":242,
			"type":"VEC3"
		},
		{
			"bufferView":5,
			"componentType":5123,
			"count":408,
			"type":"SCALAR"
		},
		{
			"bufferView":6,
			"componentType":5126,
			"count":250,
			"max":[
				0.872589111328125,
				0.07406952977180481,
				0.7854626178741455
			],
			"min":[
				-0.8686822652816772,
				-0.005491048097610474,
				-0.7878747582435608
			],
			"type":"VEC3"
		},
		{
			"bufferView":7,
			"componentType":5126,
			"count":250,
			"type":"VEC3"
		},
		{
			"bufferView":8,
			"componentType":5123,
			"count":408,
			"type":"SCALAR"
		},
		{
			"bufferView":9,
			"componentType":5126,
			"count":4,
			"max":[
				0.7528151273727417,
				0.020244956016540527,
				0.5804704427719116
			],
			"min":[
				-0.7473031282424927,
				0.02024485170841217,
				-0.627522349357605
			],
			"type":"VEC3"
		},
		{
			"bufferView":10,
			"componentType":5126,
			"count":4,
			"type":"VEC3"
		},
		{
			"bufferView":11,
			"componentType":5123,
			"count":6,
			"type":"SCALAR"
		}
	],
	"bufferViews":[
		{
			"buffer":0,
			"byteLength":5712,
			"byteOffset":0,
			"target":34962
		},
		{
			"buffer":0,
			"byteLength":5712,
			"byteOffset":5712,
			"target":34962
		},
		{
			"buffer":0,
			"byteLength":1392,
			"byteOffset":11424,
			"target":34963
		},
		{
			"buffer":0,
			"byteLength":2904,
			"byteOffset":12816,
			"target":34962
		},
		{
			"buffer":0,
			"byteLength":2904,
			"byteOffset":15720,
			"target":34962
		},
		{
			"buffer":0,
			"byteLength":816,
			"byteOffset":18624,
			"target":34963
		},
		{
			"buffer":0,
			"byteLength":3000,
			"byteOffset":19440,
			"target":34962
		},
		{
			"buffer":0,
			"byteLength":3000,
			"byteOffset":22440,
			"target":34962
		},
		{
			"buffer":0,
			"byteLength":816,
			"byteOffset":25440,
			"target":34963
		},
		{
			"buffer":0,
			"byteLength":48,
			"byteOffset":26256,
			"target":34962
		},
		{
			"buffer":0,
			"byteLength":48,
			"byteOffset":26304,
			"target":34962
		},
		{
			"buffer":0,
			"byteLength":12,
			"byteOffset":26352,
			"target":34963
		}
	],
	"buffers":[
		{
			"byteLength":26364,
			"uri":"Trapdoor-65c13dbc7ab1ed8d14ae6ca1f5397a8a.bin"
		}
	]
}
