{
	"asset":{
		"generator":"Khronos glTF Blender I/O v5.1.18",
		"version":"2.0"
	},
	"scene":0,
	"scenes":[
		{
			"name":"Scene",
			"nodes":[
				0
			]
		}
	],
	"nodes":[
		{
			"mesh":0,
			"name":"Tree_1"
		}
	],
	"materials":[
		{
			"doubleSided":true,
			"name":"Bark",
			"pbrMetallicRoughness":{
				"baseColorTexture":{
					"index":0
				},
				"metallicFactor":0
			}
		},
		{
			"doubleSided":true,
			"name":"Texture_Leaves"
		}
	],
	"meshes":[
		{
			"name":"Cylinder.005",
			"primitives":[
				{
					"attributes":{
						"POSITION":0,
						"NORMAL":1,
						"TEXCOORD_0":2
					},
					"indices":3,
					"material":0
				},
				{
					"attributes":{
						"POSITION":4,
						"NORMAL":5,
						"TEXCOORD_0":6
					},
					"indices":7,
					"material":1
				}
			]
		}
	],
	"textures":[
		{
			"sampler":0,
			"source":0
		}
	],
	"images":[
		{
			"mimeType":"image/jpeg",
			"name":"Bark_Texture.jpg",
			"uri":"../../temp_resources/Ultimate%20Modular%20Ruins%20Pack%20-%20Aug%202021/Blends/textures/Bark_Texture.jpg"
		}
	],
	"accessors":[
		{
			"bufferView":0,
			"componentType":5126,
			"count":400,
			"max":[
				0.27023428678512573,
				2.5911495685577393,
				0.5423980355262756
			],
			"min":[
				-0.9515146613121033,
				0.0055863079614937305,
				-0.21707962453365326
			],
			"type":"VEC3"
		},
		{
			"bufferView":1,
			"componentType":5126,
			"count":400,
			"type":"VEC3"
		},
		{
			"bufferView":2,
			"componentType":5126,
			"count":400,
			"type":"VEC2"
		},
		{
			"bufferView":3,
			"componentType":5123,
			"count":1332,
			"type":"SCALAR"
		},
		{
			"bufferView":4,
			"componentType":5126,
			"count":255,
			"max":[
				0.9025489091873169,
				2.7777183055877686,
				1.0295714139938354
			],
			"min":[
				-1.1664412021636963,
				1.5894945859909058,
				-1.0356031656265259
			],
			"type":"VEC3"
		},
		{
			"bufferView":5,
			"componentType":5126,
			"count":255,
			"type":"VEC3"
		},
		{
			"bufferView":6,
			"componentType":5126,
			"count":255,
			"type":"VEC2"
		},
		{
			"bufferView":7,
			"componentType":5123,
			"count":1080,
			"type":"SCALAR"
		}
	],
	"bufferViews":[
		{
			"buffer":0,
			"byteLength":4800,
			"byteOffset":0,
			"target":34962
		},
		{
			"buffer":0,
			"byteLength":4800,
			"byteOffset":4800,
			"target":34962
		},
		{
			"buffer":0,
			"byteLength":3200,
			"byteOffset":9600,
			"target":34962
		},
		{
			"buffer":0,
			"byteLength":2664,
			"byteOffset":12800,
			"target":34963
		},
		{
			"buffer":0,
			"byteLength":3060,
			"byteOffset":15464,
			"target":34962
		},
		{
			"buffer":0,
			"byteLength":3060,
			"byteOffset":18524,
			"target":34962
		},
		{
			"buffer":0,
			"byteLength":2040,
			"byteOffset":21584,
			"target":34962
		},
		{
			"buffer":0,
			"byteLength":2160,
			"byteOffset":23624,
			"target":34963
		}
	],
	"samplers":[
		{
			"magFilter":9729,
			"minFilter":9987
		}
	],
	"buffers":[
		{
			"byteLength":25784,
			"uri":"Tree_1-868cd74b53396f1614f816bfd17bc22a.bin"
		}
	]
}
