{
	"asset":{
		"generator":"Khronos glTF Blender I/O v5.1.18",
		"version":"2.0"
	},
	"scene":0,
	"scenes":[
		{
			"name":"Scene",
			"nodes":[
				0
			]
		}
	],
	"nodes":[
		{
			"mesh":0,
			"name":"Tree_2"
		}
	],
	"materials":[
		{
			"doubleSided":true,
			"name":"Bark",
			"pbrMetallicRoughness":{
				"baseColorTexture":{
					"index":0
				},
				"metallicFactor":0
			}
		},
		{
			"doubleSided":true,
			"name":"Texture_Leaves"
		}
	],
	"meshes":[
		{
			"name":"Cylinder.007",
			"primitives":[
				{
					"attributes":{
						"POSITION":0,
						"NORMAL":1,
						"TEXCOORD_0":2
					},
					"indices":3,
					"material":0
				},
				{
					"attributes":{
						"POSITION":4,
						"NORMAL":5,
						"TEXCOORD_0":6
					},
					"indices":7,
					"material":1
				}
			]
		}
	],
	"textures":[
		{
			"sampler":0,
			"source":0
		}
	],
	"images":[
		{
			"mimeType":"image/jpeg",
			"name":"Bark_Texture.jpg",
			"uri":"../../temp_resources/Ultimate%20Modular%20Ruins%20Pack%20-%20Aug%202021/Blends/textures/Bark_Texture.jpg"
		}
	],
	"accessors":[
		{
			"bufferView":0,
			"componentType":5126,
			"count":868,
			"max":[
				1.0761117935180664,
				2.808666706085205,
				0.7465322017669678
			],
			"min":[
				-1.171828031539917,
				-0.0006899399450048804,
				-1.176037073135376
			],
			"type":"VEC3"
		},
		{
			"bufferView":1,
			"componentType":5126,
			"count":868,
			"type":"VEC3"
		},
		{
			"bufferView":2,
			"componentType":5126,
			"count":868,
			"type":"VEC2"
		},
		{
			"bufferView":3,
			"componentType":5123,
			"count":3648,
			"type":"SCALAR"
		},
		{
			"bufferView":4,
			"componentType":5126,
			"count":425,
			"max":[
				1.3021126985549927,
				2.8608345985412598,
				1.017878770828247
			],
			"min":[
				-1.4154382944107056,
				1.794999361038208,
				-1.0132704973220825
			],
			"type":"VEC3"
		},
		{
			"bufferView":5,
			"componentType":5126,
			"count":425,
			"type":"VEC3"
		},
		{
			"bufferView":6,
			"componentType":5126,
			"count":425,
			"type":"VEC2"
		},
		{
			"bufferView":7,
			"componentType":5123,
			"count":1800,
			"type":"SCALAR"
		}
	],
	"bufferViews":[
		{
			"buffer":0,
			"byteLength":10416,
			"byteOffset":0,
			"target":34962
		},
		{
			"buffer":0,
			"byteLength":10416,
			"byteOffset":10416,
			"target":34962
		},
		{
			"buffer":0,
			"byteLength":6944,
			"byteOffset":20832,
			"target":34962
		},
		{
			"buffer":0,
			"byteLength":7296,
			"byteOffset":27776,
			"target":34963
		},
		{
			"buffer":0,
			"byteLength":5100,
			"byteOffset":35072,
			"target":34962
		},
		{
			"buffer":0,
			"byteLength":5100,
			"byteOffset":40172,
			"target":34962
		},
		{
			"buffer":0,
			"byteLength":3400,
			"byteOffset":45272,
			"target":34962
		},
		{
			"buffer":0,
			"byteLength":3600,
			"byteOffset":48672,
			"target":34963
		}
	],
	"samplers":[
		{
			"magFilter":9729,
			"minFilter":9987
		}
	],
	"buffers":[
		{
			"byteLength":52272,
			"uri":"Tree_2-b1d4b1e1d44b607d09de1f5c3d3ff961.bin"
		}
	]
}
