{
	"asset":{
		"generator":"Khronos glTF Blender I/O v5.1.18",
		"version":"2.0"
	},
	"scene":0,
	"scenes":[
		{
			"name":"Scene",
			"nodes":[
				0
			]
		}
	],
	"nodes":[
		{
			"mesh":0,
			"name":"Wall_ArchRound_Overgrown",
			"rotation":[
				0.7071068286895752,
				0,
				0,
				0.7071068286895752
			],
			"scale":[
				1,
				0.05973000079393387,
				1
			]
		}
	],
	"materials":[
		{
			"doubleSided":true,
			"name":"Main",
			"pbrMetallicRoughness":{
				"baseColorFactor":[
					0.15896087884902954,
					0.16202940046787262,
					0.1247718334197998,
					1
				],
				"metallicFactor":0,
				"roughnessFactor":0.5
			}
		},
		{
			"doubleSided":true,
			"name":"Highlights",
			"pbrMetallicRoughness":{
				"baseColorFactor":[
					0.289932519197464,
					0.29568690061569214,
					0.22595453262329102,
					1
				],
				"metallicFactor":0,
				"roughnessFactor":0.5
			}
		},
		{
			"doubleSided":true,
			"name":"Leaf_Texture"
		},
		{
			"doubleSided":true,
			"name":"Green"
		}
	],
	"meshes":[
		{
			"name":"Cube.038",
			"primitives":[
				{
					"attributes":{
						"POSITION":0,
						"NORMAL":1,
						"TEXCOORD_0":2
					},
					"indices":3,
					"material":0
				},
				{
					"attributes":{
						"POSITION":4,
						"NORMAL":5,
						"TEXCOORD_0":6
					},
					"indices":7,
					"material":1
				},
				{
					"attributes":{
						"POSITION":8,
						"NORMAL":9,
						"TEXCOORD_0":10
					},
					"indices":11,
					"material":2
				},
				{
					"attributes":{
						"POSITION":12,
						"NORMAL":13,
						"TEXCOORD_0":14
					},
					"indices":15,
					"material":3
				}
			]
		}
	],
	"accessors":[
		{
			"bufferView":0,
			"componentType":5126,
			"count":4124,
			"max":[
				2.002013683319092,
				0.9994008541107178,
				-0.002668793313205242
			],
			"min":[
				-2.002013683319092,
				-4.190529823303223,
				-3.9967992305755615
			],
			"type":"VEC3"
		},
		{
			"bufferView":1,
			"componentType":5126,
			"count":4124,
			"type":"VEC3"
		},
		{
			"bufferView":2,
			"componentType":5126,
			"count":4124,
			"type":"VEC2"
		},
		{
			"bufferView":3,
			"componentType":5123,
			"count":6516,
			"type":"SCALAR"
		},
		{
			"bufferView":4,
			"componentType":5126,
			"count":400,
			"max":[
				1.9817774295806885,
				0.4570901393890381,
				-0.3105178475379944
			],
			"min":[
				-1.9817774295806885,
				-4.0567169189453125,
				-3.712609052658081
			],
			"type":"VEC3"
		},
		{
			"bufferView":5,
			"componentType":5126,
			"count":400,
			"type":"VEC3"
		},
		{
			"bufferView":6,
			"componentType":5126,
			"count":400,
			"type":"VEC2"
		},
		{
			"bufferView":7,
			"componentType":5123,
			"count":576,
			"type":"SCALAR"
		},
		{
			"bufferView":8,
			"componentType":5126,
			"count":180,
			"max":[
				1.9786008596420288,
				0.8605268001556396,
				-0.1966683715581894
			],
			"min":[
				-1.9786008596420288,
				-4.29266881942749,
				-3.6758389472961426
			],
			"type":"VEC3"
		},
		{
			"bufferView":9,
			"componentType":5126,
			"count":180,
			"type":"VEC3"
		},
		{
			"bufferView":10,
			"componentType":5126,
			"count":180,
			"type":"VEC2"
		},
		{
			"bufferView":11,
			"componentType":5123,
			"count":270,
			"type":"SCALAR"
		},
		{
			"bufferView":12,
			"componentType":5126,
			"count":192,
			"max":[
				1.9606040716171265,
				0.04496049880981445,
				-0.0032004578970372677
			],
			"min":[
				-1.9606040716171265,
				-3.4770922660827637,
				-3.944483995437622
			],
			"type":"VEC3"
		},
		{
			"bufferView":13,
			"componentType":5126,
			"count":192,
			"type":"VEC3"
		},
		{
			"bufferView":14,
			"componentType":5126,
			"count":192,
			"type":"VEC2"
		},
		{
			"bufferView":15,
			"componentType":5123,
			"count":444,
			"type":"SCALAR"
		}
	],
	"bufferViews":[
		{
			"buffer":0,
			"byteLength":49488,
			"byteOffset":0,
			"target":34962
		},
		{
			"buffer":0,
			"byteLength":49488,
			"byteOffset":49488,
			"target":34962
		},
		{
			"buffer":0,
			"byteLength":32992,
			"byteOffset":98976,
			"target":34962
		},
		{
			"buffer":0,
			"byteLength":13032,
			"byteOffset":131968,
			"target":34963
		},
		{
			"buffer":0,
			"byteLength":4800,
			"byteOffset":145000,
			"target":34962
		},
		{
			"buffer":0,
			"byteLength":4800,
			"byteOffset":149800,
			"target":34962
		},
		{
			"buffer":0,
			"byteLength":3200,
			"byteOffset":154600,
			"target":34962
		},
		{
			"buffer":0,
			"byteLength":1152,
			"byteOffset":157800,
			"target":34963
		},
		{
			"buffer":0,
			"byteLength":2160,
			"byteOffset":158952,
			"target":34962
		},
		{
			"buffer":0,
			"byteLength":2160,
			"byteOffset":161112,
			"target":34962
		},
		{
			"buffer":0,
			"byteLength":1440,
			"byteOffset":163272,
			"target":34962
		},
		{
			"buffer":0,
			"byteLength":540,
			"byteOffset":164712,
			"target":34963
		},
		{
			"buffer":0,
			"byteLength":2304,
			"byteOffset":165252,
			"target":34962
		},
		{
			"buffer":0,
			"byteLength":2304,
			"byteOffset":167556,
			"target":34962
		},
		{
			"buffer":0,
			"byteLength":1536,
			"byteOffset":169860,
			"target":34962
		},
		{
			"buffer":0,
			"byteLength":888,
			"byteOffset":171396,
			"target":34963
		}
	],
	"buffers":[
		{
			"byteLength":172284,
			"uri":"Wall_ArchRound_Overgrown-7edafcfe66f4dc17868ef7e5a195c4db.bin"
		}
	]
}
