{
	"asset":{
		"generator":"Khronos glTF Blender I/O v5.1.18",
		"version":"2.0"
	},
	"scene":0,
	"scenes":[
		{
			"name":"Scene",
			"nodes":[
				0
			]
		}
	],
	"nodes":[
		{
			"mesh":0,
			"name":"Wall_ArchRound",
			"rotation":[
				0.7071068286895752,
				0,
				0,
				0.7071068286895752
			],
			"scale":[
				1,
				0.05973000079393387,
				1
			]
		}
	],
	"materials":[
		{
			"doubleSided":true,
			"name":"Main",
			"pbrMetallicRoughness":{
				"baseColorFactor":[
					0.15896087884902954,
					0.16202940046787262,
					0.1247718334197998,
					1
				],
				"metallicFactor":0,
				"roughnessFactor":0.5
			}
		},
		{
			"doubleSided":true,
			"name":"Highlights",
			"pbrMetallicRoughness":{
				"baseColorFactor":[
					0.289932519197464,
					0.29568690061569214,
					0.22595453262329102,
					1
				],
				"metallicFactor":0,
				"roughnessFactor":0.5
			}
		}
	],
	"meshes":[
		{
			"name":"Cube.042",
			"primitives":[
				{
					"attributes":{
						"POSITION":0,
						"NORMAL":1,
						"TEXCOORD_0":2
					},
					"indices":3,
					"material":0
				},
				{
					"attributes":{
						"POSITION":4,
						"NORMAL":5,
						"TEXCOORD_0":6
					},
					"indices":7,
					"material":1
				}
			]
		}
	],
	"accessors":[
		{
			"bufferView":0,
			"componentType":5126,
			"count":4124,
			"max":[
				2.002013683319092,
				0.9994008541107178,
				-0.002668793313205242
			],
			"min":[
				-2.002013683319092,
				-4.190529823303223,
				-3.9967992305755615
			],
			"type":"VEC3"
		},
		{
			"bufferView":1,
			"componentType":5126,
			"count":4124,
			"type":"VEC3"
		},
		{
			"bufferView":2,
			"componentType":5126,
			"count":4124,
			"type":"VEC2"
		},
		{
			"bufferView":3,
			"componentType":5123,
			"count":6516,
			"type":"SCALAR"
		},
		{
			"bufferView":4,
			"componentType":5126,
			"count":400,
			"max":[
				1.9817774295806885,
				0.4570901393890381,
				-0.3105178475379944
			],
			"min":[
				-1.9817774295806885,
				-4.0567169189453125,
				-3.712609052658081
			],
			"type":"VEC3"
		},
		{
			"bufferView":5,
			"componentType":5126,
			"count":400,
			"type":"VEC3"
		},
		{
			"bufferView":6,
			"componentType":5126,
			"count":400,
			"type":"VEC2"
		},
		{
			"bufferView":7,
			"componentType":5123,
			"count":576,
			"type":"SCALAR"
		}
	],
	"bufferViews":[
		{
			"buffer":0,
			"byteLength":49488,
			"byteOffset":0,
			"target":34962
		},
		{
			"buffer":0,
			"byteLength":49488,
			"byteOffset":49488,
			"target":34962
		},
		{
			"buffer":0,
			"byteLength":32992,
			"byteOffset":98976,
			"target":34962
		},
		{
			"buffer":0,
			"byteLength":13032,
			"byteOffset":131968,
			"target":34963
		},
		{
			"buffer":0,
			"byteLength":4800,
			"byteOffset":145000,
			"target":34962
		},
		{
			"buffer":0,
			"byteLength":4800,
			"byteOffset":149800,
			"target":34962
		},
		{
			"buffer":0,
			"byteLength":3200,
			"byteOffset":154600,
			"target":34962
		},
		{
			"buffer":0,
			"byteLength":1152,
			"byteOffset":157800,
			"target":34963
		}
	],
	"buffers":[
		{
			"byteLength":158952,
			"uri":"Wall_ArchRound-9ffb6577460ccd3a5b19349870570b37.bin"
		}
	]
}
