{
	"asset":{
		"generator":"Khronos glTF Blender I/O v5.1.18",
		"version":"2.0"
	},
	"scene":0,
	"scenes":[
		{
			"name":"Scene",
			"nodes":[
				0
			]
		}
	],
	"nodes":[
		{
			"mesh":0,
			"name":"Wall_Half"
		}
	],
	"materials":[
		{
			"doubleSided":true,
			"name":"Main",
			"pbrMetallicRoughness":{
				"baseColorFactor":[
					0.15896087884902954,
					0.16202940046787262,
					0.1247718334197998,
					1
				],
				"metallicFactor":0,
				"roughnessFactor":0.5
			}
		},
		{
			"doubleSided":true,
			"name":"Highlights",
			"pbrMetallicRoughness":{
				"baseColorFactor":[
					0.289932519197464,
					0.29568690061569214,
					0.22595453262329102,
					1
				],
				"metallicFactor":0,
				"roughnessFactor":0.5
			}
		}
	],
	"meshes":[
		{
			"name":"Cube.960",
			"primitives":[
				{
					"attributes":{
						"POSITION":0,
						"NORMAL":1
					},
					"indices":2,
					"material":0
				},
				{
					"attributes":{
						"POSITION":3,
						"NORMAL":4
					},
					"indices":5,
					"material":1
				}
			]
		}
	],
	"accessors":[
		{
			"bufferView":0,
			"componentType":5126,
			"count":1052,
			"max":[
				0.4990781545639038,
				1.9997763633728027,
				0.2527758777141571
			],
			"min":[
				-0.4970436096191406,
				-0.00106331380084157,
				-0.032819680869579315
			],
			"type":"VEC3"
		},
		{
			"bufferView":1,
			"componentType":5126,
			"count":1052,
			"type":"VEC3"
		},
		{
			"bufferView":2,
			"componentType":5123,
			"count":1704,
			"type":"SCALAR"
		},
		{
			"bufferView":3,
			"componentType":5126,
			"count":136,
			"max":[
				0.4204298257827759,
				1.6865431070327759,
				0.24478305876255035
			],
			"min":[
				-0.4787564277648926,
				0.295421838760376,
				-0.024826936423778534
			],
			"type":"VEC3"
		},
		{
			"bufferView":4,
			"componentType":5126,
			"count":136,
			"type":"VEC3"
		},
		{
			"bufferView":5,
			"componentType":5123,
			"count":192,
			"type":"SCALAR"
		}
	],
	"bufferViews":[
		{
			"buffer":0,
			"byteLength":12624,
			"byteOffset":0,
			"target":34962
		},
		{
			"buffer":0,
			"byteLength":12624,
			"byteOffset":12624,
			"target":34962
		},
		{
			"buffer":0,
			"byteLength":3408,
			"byteOffset":25248,
			"target":34963
		},
		{
			"buffer":0,
			"byteLength":1632,
			"byteOffset":28656,
			"target":34962
		},
		{
			"buffer":0,
			"byteLength":1632,
			"byteOffset":30288,
			"target":34962
		},
		{
			"buffer":0,
			"byteLength":384,
			"byteOffset":31920,
			"target":34963
		}
	],
	"buffers":[
		{
			"byteLength":32304,
			"uri":"Wall_Half-4485be6ae612fda9f27e3d9e2ccf507b.bin"
		}
	]
}
