{
	"asset":{
		"generator":"Khronos glTF Blender I/O v5.1.18",
		"version":"2.0"
	},
	"scene":0,
	"scenes":[
		{
			"name":"Scene",
			"nodes":[
				0
			]
		}
	],
	"nodes":[
		{
			"mesh":0,
			"name":"Wall_ArchRound_Broken",
			"rotation":[
				0.7071068286895752,
				0,
				0,
				0.7071068286895752
			],
			"scale":[
				1,
				0.05973000079393387,
				1
			]
		}
	],
	"materials":[
		{
			"doubleSided":true,
			"name":"Main",
			"pbrMetallicRoughness":{
				"baseColorFactor":[
					0.15896087884902954,
					0.16202940046787262,
					0.1247718334197998,
					1
				],
				"metallicFactor":0,
				"roughnessFactor":0.5
			}
		},
		{
			"doubleSided":true,
			"name":"Highlights",
			"pbrMetallicRoughness":{
				"baseColorFactor":[
					0.289932519197464,
					0.29568690061569214,
					0.22595453262329102,
					1
				],
				"metallicFactor":0,
				"roughnessFactor":0.5
			}
		}
	],
	"meshes":[
		{
			"name":"Cube.059",
			"primitives":[
				{
					"attributes":{
						"POSITION":0,
						"NORMAL":1
					},
					"indices":2,
					"material":0
				},
				{
					"attributes":{
						"POSITION":3,
						"NORMAL":4
					},
					"indices":5,
					"material":1
				}
			]
		}
	],
	"accessors":[
		{
			"bufferView":0,
			"componentType":5126,
			"count":2788,
			"max":[
				1.9961416721343994,
				0.9994008541107178,
				-0.002668793313205242
			],
			"min":[
				-1.997028112411499,
				-4.190529823303223,
				-3.9874372482299805
			],
			"type":"VEC3"
		},
		{
			"bufferView":1,
			"componentType":5126,
			"count":2788,
			"type":"VEC3"
		},
		{
			"bufferView":2,
			"componentType":5123,
			"count":4380,
			"type":"SCALAR"
		},
		{
			"bufferView":3,
			"componentType":5126,
			"count":296,
			"max":[
				1.9204298257827759,
				0.4570901393890381,
				-0.3105178475379944
			],
			"min":[
				-1.9817774295806885,
				-4.05671501159668,
				-3.6512808799743652
			],
			"type":"VEC3"
		},
		{
			"bufferView":4,
			"componentType":5126,
			"count":296,
			"type":"VEC3"
		},
		{
			"bufferView":5,
			"componentType":5123,
			"count":432,
			"type":"SCALAR"
		}
	],
	"bufferViews":[
		{
			"buffer":0,
			"byteLength":33456,
			"byteOffset":0,
			"target":34962
		},
		{
			"buffer":0,
			"byteLength":33456,
			"byteOffset":33456,
			"target":34962
		},
		{
			"buffer":0,
			"byteLength":8760,
			"byteOffset":66912,
			"target":34963
		},
		{
			"buffer":0,
			"byteLength":3552,
			"byteOffset":75672,
			"target":34962
		},
		{
			"buffer":0,
			"byteLength":3552,
			"byteOffset":79224,
			"target":34962
		},
		{
			"buffer":0,
			"byteLength":864,
			"byteOffset":82776,
			"target":34963
		}
	],
	"buffers":[
		{
			"byteLength":83640,
			"uri":"Wall_ArchRound_Broken-e12ef80fb3eaa3bc89f34b17a2075a26.bin"
		}
	]
}
