{
	"asset":{
		"generator":"Khronos glTF Blender I/O v5.1.18",
		"version":"2.0"
	},
	"scene":0,
	"scenes":[
		{
			"name":"Scene",
			"nodes":[
				0
			]
		}
	],
	"nodes":[
		{
			"mesh":0,
			"name":"Wall_ArchRound_Overgrown_Broken",
			"rotation":[
				0.7071068286895752,
				0,
				0,
				0.7071068286895752
			],
			"scale":[
				1,
				0.05973000079393387,
				1
			]
		}
	],
	"materials":[
		{
			"doubleSided":true,
			"name":"Main",
			"pbrMetallicRoughness":{
				"baseColorFactor":[
					0.15896087884902954,
					0.16202940046787262,
					0.1247718334197998,
					1
				],
				"metallicFactor":0,
				"roughnessFactor":0.5
			}
		},
		{
			"doubleSided":true,
			"name":"Highlights",
			"pbrMetallicRoughness":{
				"baseColorFactor":[
					0.289932519197464,
					0.29568690061569214,
					0.22595453262329102,
					1
				],
				"metallicFactor":0,
				"roughnessFactor":0.5
			}
		},
		{
			"doubleSided":true,
			"name":"Leaf_Texture"
		},
		{
			"doubleSided":true,
			"name":"Green"
		}
	],
	"meshes":[
		{
			"name":"Cube.006",
			"primitives":[
				{
					"attributes":{
						"POSITION":0,
						"NORMAL":1,
						"TEXCOORD_0":2
					},
					"indices":3,
					"material":0
				},
				{
					"attributes":{
						"POSITION":4,
						"NORMAL":5,
						"TEXCOORD_0":6
					},
					"indices":7,
					"material":1
				},
				{
					"attributes":{
						"POSITION":8,
						"NORMAL":9,
						"TEXCOORD_0":10
					},
					"indices":11,
					"material":2
				},
				{
					"attributes":{
						"POSITION":12,
						"NORMAL":13,
						"TEXCOORD_0":14
					},
					"indices":15,
					"material":3
				}
			]
		}
	],
	"accessors":[
		{
			"bufferView":0,
			"componentType":5126,
			"count":2788,
			"max":[
				1.9961416721343994,
				0.9994008541107178,
				-0.002668793313205242
			],
			"min":[
				-1.997028112411499,
				-4.190529823303223,
				-3.9874372482299805
			],
			"type":"VEC3"
		},
		{
			"bufferView":1,
			"componentType":5126,
			"count":2788,
			"type":"VEC3"
		},
		{
			"bufferView":2,
			"componentType":5126,
			"count":2788,
			"type":"VEC2"
		},
		{
			"bufferView":3,
			"componentType":5123,
			"count":4380,
			"type":"SCALAR"
		},
		{
			"bufferView":4,
			"componentType":5126,
			"count":296,
			"max":[
				1.9204298257827759,
				0.4570901393890381,
				-0.3105178475379944
			],
			"min":[
				-1.9817774295806885,
				-4.05671501159668,
				-3.6512808799743652
			],
			"type":"VEC3"
		},
		{
			"bufferView":5,
			"componentType":5126,
			"count":296,
			"type":"VEC3"
		},
		{
			"bufferView":6,
			"componentType":5126,
			"count":296,
			"type":"VEC2"
		},
		{
			"bufferView":7,
			"componentType":5123,
			"count":432,
			"type":"SCALAR"
		},
		{
			"bufferView":8,
			"componentType":5126,
			"count":156,
			"max":[
				1.9786008596420288,
				0.8605268001556396,
				-0.1966683715581894
			],
			"min":[
				-1.9786008596420288,
				-4.29266881942749,
				-3.6630680561065674
			],
			"type":"VEC3"
		},
		{
			"bufferView":9,
			"componentType":5126,
			"count":156,
			"type":"VEC3"
		},
		{
			"bufferView":10,
			"componentType":5126,
			"count":156,
			"type":"VEC2"
		},
		{
			"bufferView":11,
			"componentType":5123,
			"count":234,
			"type":"SCALAR"
		},
		{
			"bufferView":12,
			"componentType":5126,
			"count":206,
			"max":[
				1.9606040716171265,
				0.04496049880981445,
				-0.0032004578970372677
			],
			"min":[
				-1.9606040716171265,
				-3.4770989418029785,
				-3.9203388690948486
			],
			"type":"VEC3"
		},
		{
			"bufferView":13,
			"componentType":5126,
			"count":206,
			"type":"VEC3"
		},
		{
			"bufferView":14,
			"componentType":5126,
			"count":206,
			"type":"VEC2"
		},
		{
			"bufferView":15,
			"componentType":5123,
			"count":432,
			"type":"SCALAR"
		}
	],
	"bufferViews":[
		{
			"buffer":0,
			"byteLength":33456,
			"byteOffset":0,
			"target":34962
		},
		{
			"buffer":0,
			"byteLength":33456,
			"byteOffset":33456,
			"target":34962
		},
		{
			"buffer":0,
			"byteLength":22304,
			"byteOffset":66912,
			"target":34962
		},
		{
			"buffer":0,
			"byteLength":8760,
			"byteOffset":89216,
			"target":34963
		},
		{
			"buffer":0,
			"byteLength":3552,
			"byteOffset":97976,
			"target":34962
		},
		{
			"buffer":0,
			"byteLength":3552,
			"byteOffset":101528,
			"target":34962
		},
		{
			"buffer":0,
			"byteLength":2368,
			"byteOffset":105080,
			"target":34962
		},
		{
			"buffer":0,
			"byteLength":864,
			"byteOffset":107448,
			"target":34963
		},
		{
			"buffer":0,
			"byteLength":1872,
			"byteOffset":108312,
			"target":34962
		},
		{
			"buffer":0,
			"byteLength":1872,
			"byteOffset":110184,
			"target":34962
		},
		{
			"buffer":0,
			"byteLength":1248,
			"byteOffset":112056,
			"target":34962
		},
		{
			"buffer":0,
			"byteLength":468,
			"byteOffset":113304,
			"target":34963
		},
		{
			"buffer":0,
			"byteLength":2472,
			"byteOffset":113772,
			"target":34962
		},
		{
			"buffer":0,
			"byteLength":2472,
			"byteOffset":116244,
			"target":34962
		},
		{
			"buffer":0,
			"byteLength":1648,
			"byteOffset":118716,
			"target":34962
		},
		{
			"buffer":0,
			"byteLength":864,
			"byteOffset":120364,
			"target":34963
		}
	],
	"buffers":[
		{
			"byteLength":121228,
			"uri":"Wall_ArchRound_Overgrown_Broken-718839ce84e776f588a933e0aba369f7.bin"
		}
	]
}
