{
	"asset":{
		"generator":"Khronos glTF Blender I/O v5.1.18",
		"version":"2.0"
	},
	"scene":0,
	"scenes":[
		{
			"name":"Scene",
			"nodes":[
				0
			]
		}
	],
	"nodes":[
		{
			"mesh":0,
			"name":"Wall_ArchGothic"
		}
	],
	"materials":[
		{
			"doubleSided":true,
			"name":"Main",
			"pbrMetallicRoughness":{
				"baseColorFactor":[
					0.15896087884902954,
					0.16202940046787262,
					0.1247718334197998,
					1
				],
				"metallicFactor":0,
				"roughnessFactor":0.5
			}
		},
		{
			"doubleSided":true,
			"name":"Highlights",
			"pbrMetallicRoughness":{
				"baseColorFactor":[
					0.289932519197464,
					0.29568690061569214,
					0.22595453262329102,
					1
				],
				"metallicFactor":0,
				"roughnessFactor":0.5
			}
		}
	],
	"meshes":[
		{
			"name":"Cube.045",
			"primitives":[
				{
					"attributes":{
						"POSITION":0,
						"NORMAL":1,
						"TEXCOORD_0":2
					},
					"indices":3,
					"material":0
				},
				{
					"attributes":{
						"POSITION":4,
						"NORMAL":5,
						"TEXCOORD_0":6
					},
					"indices":7,
					"material":1
				}
			]
		}
	],
	"accessors":[
		{
			"bufferView":0,
			"componentType":5126,
			"count":4096,
			"max":[
				2.002013683319092,
				3.9967992305755615,
				0.0352947935461998
			],
			"min":[
				-2.002013683319092,
				0.0026687942445278168,
				-0.25030022859573364
			],
			"type":"VEC3"
		},
		{
			"bufferView":1,
			"componentType":5126,
			"count":4096,
			"type":"VEC3"
		},
		{
			"bufferView":2,
			"componentType":5126,
			"count":4096,
			"type":"VEC2"
		},
		{
			"bufferView":3,
			"componentType":5123,
			"count":6480,
			"type":"SCALAR"
		},
		{
			"bufferView":4,
			"componentType":5126,
			"count":400,
			"max":[
				1.9817774295806885,
				3.712609052658081,
				0.027302049100399017
			],
			"min":[
				-1.9817774295806885,
				0.3105178475379944,
				-0.24230754375457764
			],
			"type":"VEC3"
		},
		{
			"bufferView":5,
			"componentType":5126,
			"count":400,
			"type":"VEC3"
		},
		{
			"bufferView":6,
			"componentType":5126,
			"count":400,
			"type":"VEC2"
		},
		{
			"bufferView":7,
			"componentType":5123,
			"count":576,
			"type":"SCALAR"
		}
	],
	"bufferViews":[
		{
			"buffer":0,
			"byteLength":49152,
			"byteOffset":0,
			"target":34962
		},
		{
			"buffer":0,
			"byteLength":49152,
			"byteOffset":49152,
			"target":34962
		},
		{
			"buffer":0,
			"byteLength":32768,
			"byteOffset":98304,
			"target":34962
		},
		{
			"buffer":0,
			"byteLength":12960,
			"byteOffset":131072,
			"target":34963
		},
		{
			"buffer":0,
			"byteLength":4800,
			"byteOffset":144032,
			"target":34962
		},
		{
			"buffer":0,
			"byteLength":4800,
			"byteOffset":148832,
			"target":34962
		},
		{
			"buffer":0,
			"byteLength":3200,
			"byteOffset":153632,
			"target":34962
		},
		{
			"buffer":0,
			"byteLength":1152,
			"byteOffset":156832,
			"target":34963
		}
	],
	"buffers":[
		{
			"byteLength":157984,
			"uri":"Wall_ArchGothic-0a515ed7f3e765fa59f4cfc2cddf93e7.bin"
		}
	]
}
