{
	"asset":{
		"generator":"Khronos glTF Blender I/O v5.1.18",
		"version":"2.0"
	},
	"scene":0,
	"scenes":[
		{
			"name":"Scene",
			"nodes":[
				0
			]
		}
	],
	"nodes":[
		{
			"mesh":0,
			"name":"Wall_Hole"
		}
	],
	"materials":[
		{
			"doubleSided":true,
			"name":"Main",
			"pbrMetallicRoughness":{
				"baseColorFactor":[
					0.15896087884902954,
					0.16202940046787262,
					0.1247718334197998,
					1
				],
				"metallicFactor":0,
				"roughnessFactor":0.5
			}
		},
		{
			"doubleSided":true,
			"name":"Highlights",
			"pbrMetallicRoughness":{
				"baseColorFactor":[
					0.289932519197464,
					0.29568690061569214,
					0.22595453262329102,
					1
				],
				"metallicFactor":0,
				"roughnessFactor":0.5
			}
		}
	],
	"meshes":[
		{
			"name":"Cube.055",
			"primitives":[
				{
					"attributes":{
						"POSITION":0,
						"NORMAL":1
					},
					"indices":2,
					"material":0
				},
				{
					"attributes":{
						"POSITION":3,
						"NORMAL":4
					},
					"indices":5,
					"material":1
				}
			]
		}
	],
	"accessors":[
		{
			"bufferView":0,
			"componentType":5126,
			"count":1570,
			"max":[
				0.9993463754653931,
				2.0354199409484863,
				0.032819442451000214
			],
			"min":[
				-0.9990782141685486,
				0.034580230712890625,
				-0.2527755796909332
			],
			"type":"VEC3"
		},
		{
			"bufferView":1,
			"componentType":5126,
			"count":1570,
			"type":"VEC3"
		},
		{
			"bufferView":2,
			"componentType":5123,
			"count":2532,
			"type":"SCALAR"
		},
		{
			"bufferView":3,
			"componentType":5126,
			"count":148,
			"max":[
				0.9810592532157898,
				1.7389347553253174,
				0.024826742708683014
			],
			"min":[
				-0.9204298257827759,
				0.3478134870529175,
				-0.24478286504745483
			],
			"type":"VEC3"
		},
		{
			"bufferView":4,
			"componentType":5126,
			"count":148,
			"type":"VEC3"
		},
		{
			"bufferView":5,
			"componentType":5123,
			"count":204,
			"type":"SCALAR"
		}
	],
	"bufferViews":[
		{
			"buffer":0,
			"byteLength":18840,
			"byteOffset":0,
			"target":34962
		},
		{
			"buffer":0,
			"byteLength":18840,
			"byteOffset":18840,
			"target":34962
		},
		{
			"buffer":0,
			"byteLength":5064,
			"byteOffset":37680,
			"target":34963
		},
		{
			"buffer":0,
			"byteLength":1776,
			"byteOffset":42744,
			"target":34962
		},
		{
			"buffer":0,
			"byteLength":1776,
			"byteOffset":44520,
			"target":34962
		},
		{
			"buffer":0,
			"byteLength":408,
			"byteOffset":46296,
			"target":34963
		}
	],
	"buffers":[
		{
			"byteLength":46704,
			"uri":"Wall_Hole-12920a2949893e0eee2f3be3513bd387.bin"
		}
	]
}
