{
	"asset":{
		"generator":"Khronos glTF Blender I/O v5.1.18",
		"version":"2.0"
	},
	"scene":0,
	"scenes":[
		{
			"name":"Scene",
			"nodes":[
				0
			]
		}
	],
	"nodes":[
		{
			"mesh":0,
			"name":"Window_Bars_Overgrown",
			"rotation":[
				-0.7071068286895752,
				0,
				0,
				0.7071068286895752
			],
			"scale":[
				1,
				0.05973000079393387,
				1
			]
		}
	],
	"materials":[
		{
			"doubleSided":true,
			"name":"Main",
			"pbrMetallicRoughness":{
				"baseColorFactor":[
					0.15896087884902954,
					0.16202940046787262,
					0.1247718334197998,
					1
				],
				"metallicFactor":0,
				"roughnessFactor":0.5
			}
		},
		{
			"doubleSided":true,
			"name":"Highlights",
			"pbrMetallicRoughness":{
				"baseColorFactor":[
					0.289932519197464,
					0.29568690061569214,
					0.22595453262329102,
					1
				],
				"metallicFactor":0,
				"roughnessFactor":0.5
			}
		},
		{
			"doubleSided":true,
			"name":"Metal",
			"pbrMetallicRoughness":{
				"baseColorFactor":[
					0.09704122692346573,
					0.10234932601451874,
					0.11927313357591629,
					1
				],
				"metallicFactor":0,
				"roughnessFactor":0.5
			}
		},
		{
			"doubleSided":true,
			"name":"Leaf_Texture"
		},
		{
			"doubleSided":true,
			"name":"Green"
		}
	],
	"meshes":[
		{
			"name":"Cube.669",
			"primitives":[
				{
					"attributes":{
						"POSITION":0,
						"NORMAL":1,
						"TEXCOORD_0":2
					},
					"indices":3,
					"material":0
				},
				{
					"attributes":{
						"POSITION":4,
						"NORMAL":5,
						"TEXCOORD_0":6
					},
					"indices":7,
					"material":1
				},
				{
					"attributes":{
						"POSITION":8,
						"NORMAL":9,
						"TEXCOORD_0":10
					},
					"indices":11,
					"material":2
				},
				{
					"attributes":{
						"POSITION":12,
						"NORMAL":13,
						"TEXCOORD_0":14
					},
					"indices":15,
					"material":3
				},
				{
					"attributes":{
						"POSITION":16,
						"NORMAL":17,
						"TEXCOORD_0":18
					},
					"indices":19,
					"material":4
				}
			]
		}
	],
	"accessors":[
		{
			"bufferView":0,
			"componentType":5126,
			"count":1836,
			"max":[
				0.9970556497573853,
				4.231968879699707,
				1.9891207218170166
			],
			"min":[
				-0.9933503866195679,
				-0.5494639873504639,
				0.0018747970461845398
			],
			"type":"VEC3"
		},
		{
			"bufferView":1,
			"componentType":5126,
			"count":1836,
			"type":"VEC3"
		},
		{
			"bufferView":2,
			"componentType":5126,
			"count":1836,
			"type":"VEC2"
		},
		{
			"bufferView":3,
			"componentType":5123,
			"count":2916,
			"type":"SCALAR"
		},
		{
			"bufferView":4,
			"componentType":5126,
			"count":300,
			"max":[
				0.9810592532157898,
				4.463429927825928,
				1.7012594938278198
			],
			"min":[
				-0.9204298257827759,
				-0.6075614094734192,
				0.295421838760376
			],
			"type":"VEC3"
		},
		{
			"bufferView":5,
			"componentType":5126,
			"count":300,
			"type":"VEC3"
		},
		{
			"bufferView":6,
			"componentType":5126,
			"count":300,
			"type":"VEC2"
		},
		{
			"bufferView":7,
			"componentType":5123,
			"count":528,
			"type":"SCALAR"
		},
		{
			"bufferView":8,
			"componentType":5126,
			"count":148,
			"max":[
				0.33715489506721497,
				1.4714970588684082,
				1.6431937217712402
			],
			"min":[
				-0.33192065358161926,
				0.7844329476356506,
				0.31928664445877075
			],
			"type":"VEC3"
		},
		{
			"bufferView":9,
			"componentType":5126,
			"count":148,
			"type":"VEC3"
		},
		{
			"bufferView":10,
			"componentType":5126,
			"count":148,
			"type":"VEC2"
		},
		{
			"bufferView":11,
			"componentType":5123,
			"count":222,
			"type":"SCALAR"
		},
		{
			"bufferView":12,
			"componentType":5126,
			"count":48,
			"max":[
				0.9018702507019043,
				4.414865016937256,
				1.669394850730896
			],
			"min":[
				-0.9485764503479004,
				-0.6469218730926514,
				0.19060367345809937
			],
			"type":"VEC3"
		},
		{
			"bufferView":13,
			"componentType":5126,
			"count":48,
			"type":"VEC3"
		},
		{
			"bufferView":14,
			"componentType":5126,
			"count":48,
			"type":"VEC2"
		},
		{
			"bufferView":15,
			"componentType":5123,
			"count":72,
			"type":"SCALAR"
		},
		{
			"bufferView":16,
			"componentType":5126,
			"count":58,
			"max":[
				0.9727168083190918,
				3.551546812057495,
				1.9594712257385254
			],
			"min":[
				-0.9727168083190918,
				0.1309601217508316,
				0.03899729251861572
			],
			"type":"VEC3"
		},
		{
			"bufferView":17,
			"componentType":5126,
			"count":58,
			"type":"VEC3"
		},
		{
			"bufferView":18,
			"componentType":5126,
			"count":58,
			"type":"VEC2"
		},
		{
			"bufferView":19,
			"componentType":5123,
			"count":318,
			"type":"SCALAR"
		}
	],
	"bufferViews":[
		{
			"buffer":0,
			"byteLength":22032,
			"byteOffset":0,
			"target":34962
		},
		{
			"buffer":0,
			"byteLength":22032,
			"byteOffset":22032,
			"target":34962
		},
		{
			"buffer":0,
			"byteLength":14688,
			"byteOffset":44064,
			"target":34962
		},
		{
			"buffer":0,
			"byteLength":5832,
			"byteOffset":58752,
			"target":34963
		},
		{
			"buffer":0,
			"byteLength":3600,
			"byteOffset":64584,
			"target":34962
		},
		{
			"buffer":0,
			"byteLength":3600,
			"byteOffset":68184,
			"target":34962
		},
		{
			"buffer":0,
			"byteLength":2400,
			"byteOffset":71784,
			"target":34962
		},
		{
			"buffer":0,
			"byteLength":1056,
			"byteOffset":74184,
			"target":34963
		},
		{
			"buffer":0,
			"byteLength":1776,
			"byteOffset":75240,
			"target":34962
		},
		{
			"buffer":0,
			"byteLength":1776,
			"byteOffset":77016,
			"target":34962
		},
		{
			"buffer":0,
			"byteLength":1184,
			"byteOffset":78792,
			"target":34962
		},
		{
			"buffer":0,
			"byteLength":444,
			"byteOffset":79976,
			"target":34963
		},
		{
			"buffer":0,
			"byteLength":576,
			"byteOffset":80420,
			"target":34962
		},
		{
			"buffer":0,
			"byteLength":576,
			"byteOffset":80996,
			"target":34962
		},
		{
			"buffer":0,
			"byteLength":384,
			"byteOffset":81572,
			"target":34962
		},
		{
			"buffer":0,
			"byteLength":144,
			"byteOffset":81956,
			"target":34963
		},
		{
			"buffer":0,
			"byteLength":696,
			"byteOffset":82100,
			"target":34962
		},
		{
			"buffer":0,
			"byteLength":696,
			"byteOffset":82796,
			"target":34962
		},
		{
			"buffer":0,
			"byteLength":464,
			"byteOffset":83492,
			"target":34962
		},
		{
			"buffer":0,
			"byteLength":636,
			"byteOffset":83956,
			"target":34963
		}
	],
	"buffers":[
		{
			"byteLength":84592,
			"uri":"Window_Bars_Overgrown-2635fbc9f01c3de6e19f104c79d9220f.bin"
		}
	]
}
